Bold.sfdir
StartChar: exclam
Encoding: 33 33 1
Width: 324
Flags: MW
LayerCount: 2
Back
Fore
SplineSet
68 65 m 0
 68 79 85 92 106 113 c 0
 123 131 141 170 166 170 c 0
 178 170 184 157 196 143 c 0
 241 89 266 89 266 63 c 0
 266 37 231 20 216 3 c 0
 200 -15 185 -50 167 -50 c 0
 155 -50 125 -19 112 1 c 0
 100 19 68 38 68 65 c 0
98 688 m 0
 98 712 127 726 172 726 c 0
 216 726 241 720 241 694 c 0
 241 687 238 679 233 655 c 0
 215 557 220 457 181 247 c 0
 179 240 175 236 160 236 c 0
 148 236 142 239 142 245 c 0
 104 543 118 484 112 544 c 0
 104 614 98 642 98 688 c 0
EndSplineSet
EndChar
StartChar: numbersign
Encoding: 35 35 3
Width: 628
Flags: MW
LayerCount: 2
Back
Fore
SplineSet
59 137 m 2
 59 142 l 2
 59 163 59 174 73 174 c 2
 168 174 l 2
 171 174 172 174 172 176 c 0
 179 214 194 286 194 290 c 0
 194 293 191 294 186 294 c 2
 77 294 l 2
 66 294 59 297 59 324 c 0
 59 345 63 358 78 358 c 2
 197 358 l 2
 204 358 207 360 207 365 c 0
 241 551 237 549 241 554 c 0
 246 560 252 561 270 561 c 0
 279 561 296 560 296 549 c 0
 296 543 270 369 270 363 c 0
 270 359 271 358 277 358 c 2
 398 358 l 2
 403 358 408 359 409 365 c 0
 441 551 440 551 444 555 c 0
 450 561 461 561 479 561 c 0
 491 561 503 561 503 551 c 0
 503 542 465 372 465 363 c 0
 465 360 466 358 471 358 c 2
 549 358 l 2
 565 358 570 346 570 320 c 0
 570 297 563 294 553 294 c 2
 461 294 l 2
 456 294 456 292 455 289 c 0
 448 253 435 182 435 179 c 0
 435 176 437 174 443 174 c 2
 551 174 l 2
 562 174 570 171 570 144 c 0
 570 121 565 110 550 110 c 2
 437 110 l 2
 427 110 425 106 424 100 c 0
 386 -77 397 -77 355 -77 c 0
 334 -77 326 -71 326 -64 c 0
 326 -58 361 99 361 104 c 0
 361 109 357 110 352 110 c 2
 271 110 l 2
 223 110 221 108 220 102 c 0
 192 -69 191 -66 190 -69 c 0
 184 -75 176 -77 155 -77 c 0
 141 -77 128 -74 128 -64 c 0
 128 -58 163 98 163 103 c 0
 163 108 160 110 151 110 c 2
 73 110 l 2
 60 110 59 122 59 137 c 2
230 178 m 0
 230 175 234 174 240 174 c 2
 363 174 l 2
 368 174 375 174 376 180 c 0
 393 260 399 283 399 290 c 0
 399 293 399 294 392 294 c 2
 269 294 l 2
 262 294 259 291 258 288 c 0
 249 252 230 182 230 178 c 0
EndSplineSet
EndChar
StartChar: dollar
Encoding: 36 36 4
Width: 613
Flags: MW
LayerCount: 2
Back
Fore
SplineSet
64 92 m 0
 64 94 68 167 91 167 c 0
 115 167 121 141 145 104 c 0
 169 68 229 37 273 37 c 0
 283 37 285 43 285 52 c 0
 285 181 290 170 290 290 c 0
 290 303 266 311 247 316 c 0
 174 336 87 372 87 535 c 0
 87 635 183 679 286 690 c 0
 296 691 302 694 302 714 c 0
 302 726 300 759 300 770 c 0
 300 787 310 794 334 794 c 0
 366 794 366 785 366 767 c 0
 366 727 365 706 365 700 c 0
 365 692 366 686 370 686 c 0
 490 671 522 599 522 591 c 0
 522 571 504 521 490 521 c 0
 483 521 478 526 476 531 c 0
 455 571 409 623 368 623 c 0
 359 623 359 612 359 604 c 0
 359 547 355 495 355 434 c 0
 355 413 356 409 370 406 c 0
 505 374 568 296 568 189 c 0
 568 51 449 -2 366 -21 c 0
 344 -26 342 -24 342 -40 c 2
 342 -58 l 1
 342 -120 l 2
 342 -157 335 -161 309 -161 c 0
 280 -161 277 -151 277 -140 c 0
 277 -107 282 -66 282 -42 c 0
 282 -36 282 -23 275 -23 c 0
 200 -23 109 18 77 54 c 0
 65 67 64 78 64 92 c 0
176 517 m 0
 176 462 215 454 280 438 c 1
 283 438 l 2
 295 438 297 448 297 454 c 0
 297 493 299 534 299 613 c 0
 299 620 293 624 287 624 c 0
 265 624 176 620 176 517 c 0
344 49 m 0
 344 40 345 36 350 36 c 0
 356 36 478 28 478 175 c 0
 478 252 359 277 356 277 c 0
 351 277 350 256 350 247 c 0
 350 140 344 156 344 49 c 0
EndSplineSet
EndChar
StartChar: percent
Encoding: 37 37 5
Width: 908
Flags: MW
LayerCount: 2
Back
Fore
SplineSet
59 350 m 0
 59 451 154 593 297 593 c 0
 387 593 402 536 476 536 c 0
 573 536 692.33470155 614.524786822 728 640 c 0
 735 645 743 647 749 647 c 0
 757 647 760 643 760 638 c 0
 760 631 754.490086189 621.671113186 751 617 c 0
 290 0 228 -85 214 -89 c 0
 211 -90 205 -91 202 -91 c 0
 182 -91 164 -78 164 -67 c 0
 164 -53 175 -42 211 4 c 2
 404 244 l 2
 553.741905555 430.207550949 606 504 606 512 c 0
 606 515 603 516 601 516 c 0
 593 516 561 491 488 491 c 0
 459 491 434 500 429 500 c 0
 428 500 428 500 428 499 c 0
 428 497 431 490 431 480 c 0
 431 405 420 365 368 302 c 0
 340 267 291 220 194 220 c 0
 150 220 59 258 59 350 c 0
167 373 m 0
 167 303 189 261 227 261 c 0
 296 261 333 373 333 461 c 0
 333 511 315 549 286 549 c 0
 206 549 167 454 167 373 c 0
454 70 m 0
 454 178 544 309 697 309 c 0
 790 309 829 252 829 181 c 0
 829 68 731 -78 602 -78 c 0
 502 -78 454 -9 454 70 c 0
561 83 m 0
 561 14 583 -30 621 -30 c 0
 685 -30 730 83 730 170 c 0
 730 219 709 262 680 262 c 0
 600 262 561 164 561 83 c 0
EndSplineSet
EndChar
StartChar: ampersand
Encoding: 38 38 6
Width: 1060
Flags: MW
LayerCount: 2
Back
Fore
SplineSet
59 234 m 0
 59 281 81.434036889 338.596089157 113 368 c 0
 186 436 258 457 258 465 c 0
 258 477 206 485 206 575 c 0
 206 675 323 713 414 713 c 0
 480 713 506 678 526 678 c 0
 535 678 540 683 550 683 c 0
 567 683 568 670 568 659 c 0
 568 656 572 613 572 591 c 0
 572 551 571 549 561 549 c 0
 540 549 492 657 404 657 c 0
 334 657 311 612 311 585 c 0
 311 536 403 457 490 384 c 0
 604 288 722 203 735 203 c 0
 748 203 764 226 764 273 c 0
 764 338 720 347 683 358 c 0
 656 372 630 358 630 385 c 0
 630 400 635 402 661 402 c 0
 735 402 679 400 845 400 c 0
 861 400 868 395 868 387 c 0
 868 366 832 384 828 331 c 0
 826 305 821 270 819 252 c 0
 813 208 783 164 783 155 c 0
 783 142 887 79 963 41 c 0
 983 31 997 31 1006 31 c 0
 1019 31 1032 36 1042 36 c 0
 1050 36 1055 30 1055 22 c 0
 1055 -11 1005 -35 946 -35 c 0
 790 -35 704 57 693 57 c 0
 672 57 614 -40 396 -40 c 0
 301 -40 59 -12 59 234 c 0
158 286 m 0
 158 202 248 62 467 62 c 0
 570 62 648 115 648 124 c 0
 648 134 552 185 396 325 c 0
 297 413 288 426 275 426 c 0
 236 426 158 373 158 286 c 0
EndSplineSet
EndChar
StartChar: quotesingle
Encoding: 39 39 7
Width: 297
Flags: MW
LayerCount: 2
Back
Fore
SplineSet
56 689 m 0
 56 701 73 717 90 738 c 0
 105 756 118 785 140 785 c 0
 150 785 223 740 223 617 c 0
 223 434 111 355 86 355 c 0
 76 355 69 368 69 373 c 0
 69 402 125 413 125 526 c 0
 125 646 56 635 56 689 c 0
EndSplineSet
EndChar
StartChar: parenleft
Encoding: 40 40 8
Width: 349
Flags: MW
LayerCount: 2
Back
Fore
SplineSet
73 278 m 0
 73 593 293 772 316 772 c 0
 336 772 339 762 339 751 c 0
 339 722 141 623 141 277 c 0
 141 -41 336 -168 336 -195 c 0
 336 -208 321 -214 314 -214 c 0
 278 -214 73 0 73 278 c 0
EndSplineSet
EndChar
StartChar: parenright
Encoding: 41 41 9
Width: 349
Flags: MW
LayerCount: 2
Back
Fore
SplineSet
10 -192 m 0
 10 -163 208 -65 208 281 c 0
 208 599 13 726 13 753 c 0
 13 766 28 772 35 772 c 0
 71 772 276 558 276 280 c 0
 276 -35 56 -214 33 -214 c 0
 13 -214 10 -203 10 -192 c 0
EndSplineSet
EndChar
StartChar: asterisk
Encoding: 42 42 10
Width: 463
Flags: MW
LayerCount: 2
Back
Fore
SplineSet
59 367 m 0
 59 394 167 436 167 447 c 0
 167 461 59 503 59 529 c 0
 59 540 71 572 91 572 c 0
 107 572 174 519 183 519 c 0
 186 519 188 524 188 538 c 0
 188 559 184 591 184 617 c 0
 184 634 191 638 223 638 c 0
 268 638 279 636 279 602 c 0
 279 584 273 557 273 537 c 0
 273 523 275 519 278 519 c 0
 289 519 359 573 371 573 c 0
 389 573 405 545 405 530 c 0
 405 504 296 460 296 448 c 0
 296 433 405 393 405 367 c 0
 405 355 392 324 371 324 c 0
 356 324 287 377 280 377 c 0
 276 377 274 372 274 358 c 0
 274 339 279 315 279 300 c 0
 279 262 275 258 225 258 c 0
 202 258 184 261 184 282 c 0
 184 300 188 331 188 354 c 0
 188 371 187 377 183 377 c 0
 174 377 103 324 91 324 c 0
 72 324 59 355 59 367 c 0
EndSplineSet
EndChar
StartChar: plus
Encoding: 43 43 11
Width: 551
Flags: MW
LayerCount: 2
Back
Fore
SplineSet
33 213 m 0
 33 233 33 243 51 243 c 2
 221 243 l 2
 240 243 243 251 243 262 c 2
 243 438 l 2
 243 453 254 453 275 453 c 0
 296 453 311 453 311 433 c 2
 311 270 l 2
 311 256 312 243 328 243 c 2
 505 243 l 2
 521 243 521 232 521 211 c 0
 521 185 521 176 500 176 c 2
 328 176 l 2
 311 176 311 170 311 158 c 2
 311 -17 l 2
 311 -34 298 -34 281 -34 c 0
 251 -34 243 -34 243 -16 c 2
 243 158 l 2
 243 176 236 176 219 176 c 2
 50 176 l 2
 23 176 33 187 33 213 c 0
EndSplineSet
EndChar
StartChar: comma
Encoding: 44 44 12
Width: 285
Flags: MW
LayerCount: 2
Back
Fore
SplineSet
54 91 m 0
 54 112 74 127 93 150 c 0
 108 168 116 198 145 198 c 0
 151 198 231 141 231 10 c 0
 231 -131 118 -240 84 -240 c 0
 75 -240 65 -232 65 -220 c 0
 65 -188 127 -166 127 -62 c 0
 127 1 103 24 71 60 c 0
 54 78 54 76 54 91 c 0
EndSplineSet
EndChar
StartChar: slash
Encoding: 47 47 15
Width: 445
Flags: MW
LayerCount: 2
Back
Fore
SplineSet
20 -170 m 0
 20 -161 31.3096700612 -136.118505927 40 -113 c 2
 40 -113 349.697827113 710.09348134 352 717 c 0
 357 732 372 735 391 735 c 0
 401 735 425 733 425 723 c 0
 425 714 416 692 411 679 c 2
 107 -152 l 2
 91 -183 81 -183 59 -183 c 0
 41 -183 20 -183 20 -170 c 0
EndSplineSet
EndChar
StartChar: zero
Encoding: 48 48 16
Width: 585
Flags: MW
LayerCount: 2
Back
Fore
SplineSet
42 324 m 0
 42 576 166 727 310 727 c 0
 466 727 543 563 543 364 c 0
 543 156 458 -25 287 -25 c 0
 96 -25 42 146 42 324 c 0
151 404 m 0
 151 240 220 56 334 56 c 0
 406 56 441 150 441 290 c 0
 441 448 380 617 261 617 c 0
 194 617 151 536 151 404 c 0
EndSplineSet
EndChar
StartChar: two
Encoding: 50 50 18
Width: 569
Flags: MW
LayerCount: 2
Back
Fore
SplineSet
66 -8 m 2
 66 -5 l 2
 66 26 171 93 289 350 c 0
 315 408 333 478 333 537 c 0
 333 592 293 633 229 633 c 0
 131 633 103 573 83 573 c 0
 78 573 75 581 75 590 c 0
 75 602 139 736 285 736 c 0
 368 736 459 691 459 595 c 0
 459 416 190 129 190 109 c 0
 190 99 224 97 257 97 c 0
 437 97 409 99 437 110 c 0
 470 123 494 162 510 162 c 0
 518 162 523 155 523 149 c 0
 523 139 433 0 433 0 c 2
 420 -17 408 -21 396 -21 c 0
 272 -21 267 -18 216 -18 c 0
 192 -18 126 -21 99 -21 c 0
 67 -21 66 -16 66 -8 c 2
EndSplineSet
EndChar
StartChar: three
Encoding: 51 51 19
Width: 569
Flags: MW
LayerCount: 2
Back
Fore
SplineSet
60 52 m 0
 60 57 62 71 81 71 c 0
 96 71 117 26 205 26 c 0
 335 26 384 155 384 220 c 0
 384 290 352 361 236 361 c 0
 215 361 206 357 203 357 c 0
 191 357 188 365 188 371 c 0
 188 383 201 380 265 431 c 0
 302 461 324 505 324 544 c 0
 324 593 287 635 238 635 c 0
 177 635 132 577 114 577 c 0
 107 577 106 583 106 589 c 0
 106 649 210 725 284 725 c 0
 361 725 440 688 440 604 c 0
 440 530 385 494 327 451 c 0
 314 442 306 436 306 431 c 0
 306 424 362 428 419 395 c 0
 473 364 510 323 510 258 c 0
 510 90 380 -32 232 -32 c 0
 149 -32 60 12 60 52 c 0
EndSplineSet
EndChar
StartChar: four
Encoding: 52 52 20
Width: 609
Flags: MW
LayerCount: 2
Back
Fore
SplineSet
42 206 m 0
 42 233 55 247 368 627 c 0
 405 672 439 727 465 727 c 0
 476 727 486 721 486 707 c 0
 486 701 474 370 474 322 c 0
 474 301 474 297 487 297 c 0
 556 297 552 329 574 329 c 0
 577 329 586 326 586 310 c 0
 586 292 580 275 575 251 c 0
 573 240 569 188 548 188 c 0
 532 188 502 193 488 193 c 0
 475 193 470 187 470 173 c 0
 470 137 474 103 474 40 c 0
 474 -40 475 -21 475 -48 c 0
 475 -98 474 -90 420 -101 c 0
 399 -105 376 -107 370 -107 c 0
 346 -107 337 -88 337 -80 c 0
 337 -70 362 -38 362 186 c 0
 362 192 356 192 349 192 c 2
 202 192 l 2
 154 192 112 188 76 188 c 0
 53 188 42 190 42 206 c 0
174 302 m 0
 174 294 186 292 202 292 c 2
 334 292 l 2
 362 292 364 297 364 314 c 0
 364 322 370 473 370 536 c 0
 370 555 367 565 364 565 c 0
 357 565 174 326 174 302 c 0
EndSplineSet
EndChar
StartChar: five
Encoding: 53 53 21
Width: 593
Flags: MW
LayerCount: 2
Back
Fore
SplineSet
65 20 m 0
 65 33 72 39 80 39 c 0
 102 39 116 17 201 17 c 0
 325 17 406 114 406 226 c 0
 406 305 356 374 242 374 c 0
 172 374 163 360 145 360 c 0
 124 360 120 379 120 387 c 0
 120 413 148 527 171 676 c 0
 173 691 183 704 209 704 c 0
 433 706 441 696 465 718 c 0
 485 731 490 744 504 744 c 0
 512 744 518 736 518 729 c 0
 518 724 516 716 514 709 c 0
 469 601 469 592 444 592 c 0
 436 592 398 594 369 594 c 0
 284 594 225 587 222 583 c 0
 212 568 195 501 195 485 c 0
 195 479 200 474 203 474 c 0
 206 474 225 486 300 486 c 0
 371 486 435 458 470 420 c 0
 511 376 529 320 529 278 c 0
 529 63 366 -39 228 -39 c 0
 171 -39 65 -23 65 20 c 0
EndSplineSet
EndChar
StartChar: six
Encoding: 54 54 22
Width: 604
Flags: MW
LayerCount: 2
Back
Fore
SplineSet
47 246 m 0
 47 600 426 734 504 734 c 0
 519 734 524 723 524 716 c 0
 524 686 458.838887387 712.998321605 342 616 c 0
 236 528 200 431 200 396 c 0
 200 390 201 385 204 385 c 0
 215 385 243 459 357 459 c 0
 469 459 557 367 557 230 c 0
 557 82 448 -32 310 -32 c 0
 285 -32 226 -29 177 5 c 0
 126 40 47 112 47 246 c 0
172 237 m 0
 172 182 204 30 335 30 c 0
 415 30 452 105 452 186 c 0
 452 284 398 391 298 391 c 0
 256 391 189 354 179 306 c 0
 175 285 172 267 172 237 c 0
EndSplineSet
EndChar
StartChar: seven
Encoding: 55 55 23
Width: 616
Flags: MW
LayerCount: 2
Back
Fore
SplineSet
77 551 m 0
 77 598 98 649 105 695 c 0
 106 706 119 710 125 710 c 0
 165 710 166 704 326 704 c 2
 364 704 l 2
 474 704 485 707 507 707 c 0
 526 707 539 698 539 685 c 0
 539 534 341 227 341 59 c 0
 341 -26 362 -42 362 -60 c 0
 362 -85 286 -93 275 -93 c 0
 237 -93 204 -84 204 -5 c 0
 204 150 379 372 431 492 c 0
 449 534 459 567 459 582 c 0
 459 586 451 595 436 595 c 0
 430 595 422 596 414 596 c 0
 400 596 332 594 277 594 c 0
 256 594 258 595 242 595 c 0
 155 595 137 569 125 536 c 0
 119 522 110 502 96 502 c 0
 82 502 77 523 77 551 c 0
EndSplineSet
EndChar
StartChar: eight
Encoding: 56 56 24
Width: 598
Flags: MW
LayerCount: 2
Back
Fore
SplineSet
51 178 m 0
 51 329 196 357 196 363 c 0
 196 373 98 413 98 529 c 0
 98 652 201 720 312 720 c 0
 471 720 510 623 510 555 c 0
 510 412 387 412 387 404 c 0
 387 391 547 348 547 193 c 0
 547 108 497 -30 295 -30 c 0
 162 -30 51 41 51 178 c 0
137 205 m 0
 137 91 229 28 313 28 c 0
 384 28 449 76 449 148 c 0
 449 186 412.662109375 232.545898438 387 252 c 0
 325 299 263 335 243 335 c 0
 205 335 137 279 137 205 c 0
194 571 m 0
 194 496 319 435 336 435 c 0
 371 435 423 467 423 547 c 0
 423 585 396 662 307 662 c 0
 259 662 194 659 194 571 c 0
EndSplineSet
EndChar
StartChar: nine
Encoding: 57 57 25
Width: 607
Flags: MW
LayerCount: 2
Back
Fore
SplineSet
57 462 m 0
 57 598 154 721 308 721 c 0
 464 721 570 596 570 445 c 0
 570 313 501 153 355 56 c 0
 263 -6 159 -36 110 -36 c 0
 92 -36 92 -24 92 -16 c 0
 92 -10 92 1 108 6 c 0
 171 18 250.369253265 61.6216745009 318 128 c 0
 372 181 414 273 414 292 c 0
 414 297 412 298 410 298 c 0
 400 298 351 228 273 228 c 0
 129 228 57 343 57 462 c 0
168 513 m 0
 168 416 228 301 314 301 c 0
 407 301 441 373 441 453 c 0
 441 540 387 654 289 654 c 0
 205 654 168 588 168 513 c 0
EndSplineSet
EndChar
StartChar: colon
Encoding: 58 58 26
Width: 332
Flags: MW
LayerCount: 2
Back
Fore
SplineSet
59 55 m 0
 59 64 88 80 112 94 c 0
 132 106 146 127 175 127 c 0
 187 127 205 109 229 90 c 0
 243 80 274 65 274 55 c 0
 274 43 244 33 221 19 c 0
 203 7 187 -16 166 -16 c 0
 142 -16 124 11 104 21 c 0
 78 33 59 45 59 55 c 0
70 336 m 0
 70 345 93 360 115 373 c 0
 135 384 145 406 172 406 c 0
 184 406 211 382 226 369 c 0
 238 359 265 349 265 335 c 0
 265 324 241 314 220 301 c 0
 202 290 190 268 166 268 c 0
 142 268 129 294 115 303 c 0
 94 317 70 327 70 336 c 0
EndSplineSet
EndChar
StartChar: semicolon
Encoding: 59 59 27
Width: 334
Flags: MW
LayerCount: 2
Back
Fore
SplineSet
59 341 m 0
 59 355 84 377 106 397 c 0
 126 414 130 448 162 448 c 0
 174 448 203 411 218 391 c 0
 230 376 260 359 260 338 c 0
 260 321 236 307 215 287 c 0
 197 270 182 237 158 237 c 0
 134 237 120 277 106 291 c 0
 85 312 59 327 59 341 c 0
62 18 m 0
 62 32 88 42 110 57 c 0
 128 69 137 89 171 89 c 0
 178 89 276 51 276 -36 c 0
 276 -130 138 -204 98 -204 c 0
 92 -204 80 -197 80 -189 c 0
 80 -168 171 -153 171 -84 c 0
 171 -46 137 -27 89 -3 c 0
 64 9 62 8 62 18 c 0
EndSplineSet
EndChar
StartChar: less
Encoding: 60 60 28
Width: 527
Flags: MW
LayerCount: 2
Back
Fore
SplineSet
41 211 m 0
 41 222 41 226 56 232 c 0
 463 389 462 391 468 391 c 0
 477 391 487 385 487 353 c 0
 487 339 479 332 471 329 c 2
 166 226 l 2
 147 220 124 212 124 207 c 0
 124 202 146 196 166 190 c 2
 476 87 l 2
 482 84 487 78 487 67 c 0
 487 55 481 31 463 31 c 0
 457 31 460 31 55 187 c 0
 41 192 41 196 41 211 c 0
EndSplineSet
EndChar
StartChar: equal
Encoding: 61 61 29
Width: 528
Flags: MW
LayerCount: 2
Back
Fore
SplineSet
33 114 m 0
 33 134 33 146 51 146 c 2
 482 146 l 2
 498 146 498 135 498 114 c 0
 498 88 498 78 477 78 c 2
 50 78 l 2
 23 78 33 88 33 114 c 0
33 311 m 0
 33 331 33 341 51 341 c 2
 482 341 l 2
 498 341 498 330 498 309 c 0
 498 283 498 274 477 274 c 2
 50 274 l 2
 23 274 33 285 33 311 c 0
EndSplineSet
EndChar
StartChar: greater
Encoding: 62 62 30
Width: 527
Flags: MW
LayerCount: 2
Back
Fore
SplineSet
41 67 m 0
 41 78 45 84 51 87 c 2
 362 190 l 2
 382 196 404 202 404 207 c 0
 404 212 381 220 362 226 c 2
 56 329 l 2
 48 332 41 339 41 353 c 0
 41 385 50 391 59 391 c 0
 65 391 64 389 471 232 c 0
 486 226 487 222 487 211 c 0
 487 196 486 192 472 187 c 0
 67 31 70 31 64 31 c 0
 46 31 41 55 41 67 c 0
EndSplineSet
EndChar
StartChar: question
Encoding: 63 63 31
Width: 410
Flags: MW
LayerCount: 2
Back
Fore
SplineSet
75 605 m 0
 75 630 131 684 205 684 c 0
 288 684 373 647 373 574 c 0
 373 480 191 380 191 278 c 0
 191 260 198 244 198 234 c 0
 198 228 195 224 186 224 c 0
 153 224 138 276 138 296 c 0
 138 360 248 487 248 544 c 0
 248 597 174 616 146 616 c 0
 113 616 94 593 85 593 c 0
 78 593 75 601 75 605 c 0
97 57 m 0
 97 71 122 99 139 119 c 0
 154 137 168 167 184 167 c 0
 196 167 220 120 225 114 c 0
 230 108 265 77 265 62 c 0
 265 36 238 25 225 8 c 0
 211 -10 197 -45 182 -45 c 0
 172 -45 147 -15 135 5 c 0
 125 23 97 36 97 57 c 0
EndSplineSet
EndChar
StartChar: at
Encoding: 64 64 32
Width: 906
Flags: MW
LayerCount: 2
Back
Fore
SplineSet
44 285 m 0
 44 633 378 707 512 707 c 0
 723 707 862 563 862 390 c 0
 862 236 743 117 612 117 c 0
 472 117 529 218 519 218 c 0
 509 218 448 91 349 91 c 0
 277 91 247 135 247 195 c 0
 247 316 365 496 500 496 c 0
 535 496 569 482 579 482 c 0
 595 482 602 524 625 524 c 0
 634 524 634 514 634 505 c 0
 634 492 585 329 585 256 c 2
 585 243 l 2
 585 214 596 185 626 185 c 0
 722 185 800 254 800 398 c 0
 800 562 669 649 513 649 c 0
 305 649 134 510 134 297 c 0
 134 114 270 -18 473 -18 c 0
 625 -18 691 33 704 33 c 0
 709 33 716 30 716 21 c 0
 716 2 610 -74 443 -74 c 0
 213 -74 44 56 44 285 c 0
348 231 m 0
 348 191 376 175 410 175 c 0
 453 175 493 209 501 220 c 0
 512 235 515 242 526 282 c 0
 540 332 566 425 566 428 c 0
 566 436 528 447 504 447 c 0
 450 447 348 369 348 231 c 0
EndSplineSet
EndChar
StartChar: B
Encoding: 66 66 34
Width: 714
Flags: MW
LayerCount: 2
Back
Fore
SplineSet
20 686 m 0
 20 695 23 709 30 709 c 0
 41 709 41 708 74 708 c 0
 114 708 215 709 235 709 c 0
 282 709 317 714 356 714 c 0
 481 714 590 657 590 545 c 0
 590 439 454 402 454 396 c 0
 454 384 685 378 685 206 c 0
 685 149 640 72 588 41 c 0
 517 -2 466 -11 388 -11 c 0
 309 -11 211 5 182 5 c 0
 154 5 122 -1 83 -1 c 2
 67 -1 l 2
 55 -1 43 2 43 22 c 0
 43 28 44 43 54 43 c 0
 65 43 69 44 76 44 c 0
 90 44 117 60 120 133 c 0
 124 195 125 324 125 431 c 2
 125 594 l 2
 125 603 120 668 37 668 c 0
 31 668 20 668 20 686 c 0
239 104 m 0
 239 51 303 49 338 49 c 2
 361 49 l 2
 391 49 422 50 448 54 c 0
 511 63 547 119 547 189 c 0
 547 347 392 354 359 354 c 0
 265 354 275 357 266 357 c 0
 245 357 240 356 240 208 c 2
 240 200 l 2
 240 123 239 113 239 104 c 0
248 540 m 2
 248 419 251 409 260 408 c 0
 277 406 280 405 305 405 c 2
 362 405 l 2
 441 405 471 454 471 513 c 4
 471 568 422 660 294 660 c 0
 259 660 248 649 248 566 c 2
 248 540 l 2
EndSplineSet
EndChar
StartChar: C
Encoding: 67 67 35
Width: 854
Flags: MW
LayerCount: 2
Back
Fore
SplineSet
44 322 m 0
 44 541 184 724 449 724 c 0
 596 724 716 631 726 631 c 0
 733 631 739 641 748 641 c 0
 754 641 764 636 764 625 c 0
 766 561 779 502 779 490 c 0
 779 475 771 473 767 473 c 0
 761 473 754 479 750 486 c 0
 692 591 600 662 470 662 c 0
 305 662 185 550 185 383 c 0
 185 208 274 38 517 38 c 0
 641 38 719 124 759 183 c 0
 763 190 767 189 774 189 c 0
 780 189 783 182 783 174 c 0
 783 148 768 90 764 67 c 0
 762 57 756 52 747 48 c 0
 654 2 582 -32 471 -32 c 0
 148 -32 44 160 44 322 c 0
EndSplineSet
EndChar
StartChar: D
Encoding: 68 68 36
Width: 877
Flags: MW
LayerCount: 2
Back
Fore
SplineSet
20 702 m 0
 20 720 30 721 77 721 c 2
 174 721 l 2
 233 721 316 727 392 727 c 0
 593 727 833 613 833 391 c 0
 833 191 768 129 671 55 c 0
 634 27 540 -13 442 -13 c 0
 415 -13 255 -6 174 -6 c 0
 107 -6 84 -13 62 -13 c 0
 38 -13 35 -5 35 7 c 0
 35 34 50 30 70 42 c 0
 91 51 113 80 113 105 c 0
 113 208 114 285 114 368 c 0
 114 447 113 498 113 614 c 0
 113 635 87 664 60 666 c 0
 39 668 20 668 20 702 c 0
239 146 m 0
 239 63 250 75 330 53 c 0
 351 47 377 43 403 43 c 2
 423 43 l 2
 516 43 574 68 631 121 c 0
 687 173 705 269 705 344 c 0
 705 561 517 661 363 661 c 0
 244 661 244 660 244 538 c 0
 244 500 240 370 240 352 c 0
 240 251 239 187 239 146 c 0
EndSplineSet
EndChar
StartChar: F
Encoding: 70 70 38
Width: 635
Flags: MW
LayerCount: 2
Back
Fore
SplineSet
20 692 m 0
 20 696 23 717 50 717 c 2
 81 717 l 2
 161 717 158 708 333 708 c 0
 487 708 479 716 595 716 c 0
 603 716 615 713 615 690 c 0
 615 668 603 634 594 579 c 0
 592 566 583 558 571 558 c 0
 559 558 550 563 550 576 c 0
 550 607 537 635 501 637 c 0
 408 643 349 648 311 648 c 0
 207 648 242 633 240 591 c 0
 237 559 236 483 236 442 c 0
 236 426 236 398 254 397 c 0
 263 397 272 396 279 396 c 0
 294 396 306 397 322 397 c 2
 353 397 l 2
 439 397 449 401 468 413 c 0
 474 417 479 422 482 426 c 0
 502 444 488 461 518 461 c 0
 536 461 538 457 538 445 c 0
 538 426 524 395 524 359 c 0
 524 324 535 295 535 275 c 0
 535 250 526 249 514 249 c 0
 491 249 485 259 482 271 c 0
 479 287 479 307 460 314 c 0
 438 323 367 326 363 326 c 2
 276 326 l 2
 255 326 234 323 234 309 c 0
 234 258 232 229 232 179 c 0
 232 166 230 155 230 143 c 0
 230 120 238 50 311 50 c 0
 334 50 342 33 342 23 c 0
 342 16 336 -5 306 -5 c 0
 270 -5 224 7 194 7 c 0
 131 7 111 -2 55 -2 c 0
 43 -2 32 -2 32 14 c 0
 32 41 34 39 75 61 c 0
 139 75 112 137 114 360 c 0
 114 412 118 466 118 524 c 2
 118 579 l 2
 118 609 115 643 71 662 c 0
 49 678 20 660 20 692 c 0
EndSplineSet
EndChar
StartChar: H
Encoding: 72 72 40
Width: 868
Flags: MW
LayerCount: 2
Back
Fore
SplineSet
20 696 m 0
 20 712 37 712 52 712 c 0
 84 712 118 706 182 706 c 0
 231 706 211 709 283 709 c 0
 291 709 308 708 308 688 c 0
 308 674 305 662 274 662 c 0
 244 662 236 583 236 547 c 2
 236 512 l 2
 236 472 234 446 234 427 c 0
 234 395 238 391 267 391 c 0
 300 391 284 392 431 392 c 0
 453 392 490 392 620 390 c 0
 630 390 631 396 631 526 c 2
 631 579 l 2
 631 706 547 658 547 696 c 0
 547 704 565 706 593 706 c 0
 621 706 660 703 706 703 c 0
 734 703 755 706 797 706 c 0
 808 706 824 701 824 686 c 0
 824 666 814 667 810 667 c 0
 772 667 754 641 754 607 c 0
 752 515 750 446 750 373 c 0
 750 327 747 281 747 229 c 2
 747 193 l 2
 747 141 753 131 753 104 c 0
 753 47 809 36 836 33 c 0
 839 33 848 31 848 16 c 0
 848 1 833 0 791 0 c 0
 764 0 736 8 702 8 c 0
 658 8 648 0 594 0 c 0
 564 0 552 0 552 12 c 0
 552 30 613 26 620 62 c 0
 625 87 626 111 626 132 c 0
 626 151 628 169 628 184 c 0
 628 219 631 259 631 302 c 0
 631 319 624 328 568 328 c 0
 542 328 452 324 446 324 c 0
 363 324 327 328 263 328 c 0
 245 328 238 326 238 294 c 0
 238 250 232 218 232 183 c 2
 232 144 l 2
 232 98 235 74 279 49 c 0
 284 46 301 44 322 44 c 0
 332 44 341 35 341 27 c 0
 341 3 324 0 305 0 c 0
 244 0 248 6 210 6 c 0
 151 6 128 -2 87 -2 c 0
 40 -2 34 5 34 13 c 0
 34 40 87 -2 108 76 c 0
 112.232061534 91.7190856977 121 223 121 339 c 2
 121 395 l 2
 121 424 122 461 122 501 c 0
 122 541 121 583 116 618 c 0
 111 653 70 670 41 670 c 0
 25 670 20 692 20 696 c 0
EndSplineSet
EndChar
StartChar: J
Encoding: 74 74 42
Width: 330
Flags: MW
LayerCount: 2
Back
Fore
SplineSet
-45 -158 m 0
 -45 -132 -25 -85 -14 -85 c 0
 3 -85 7 -118 44 -118 c 0
 84 -118 105 -86 113 -42 c 0
 122 4 126 43 126 75 c 0
 126 98 125 192 125 194 c 0
 125 260 120 12 120 525 c 0
 120 561 120 596 117 621 c 0
 113 655 70 667 42 668 c 0
 22 670 20 688 20 696 c 0
 20 710 26 722 54 722 c 0
 86 722 120 714 185 714 c 0
 235 714 206 715 279 715 c 0
 287 715 311 715 311 696 c 0
 311 683 294 672 265 654 c 0
 246 647 244 617 244 586 c 2
 244 540 l 2
 244 54 241 102 241 54 c 0
 241 -103 126 -208 1 -208 c 0
 -16 -208 -45 -206 -45 -158 c 0
EndSplineSet
EndChar
StartChar: K
Encoding: 75 75 43
Width: 856
Flags: MW
LayerCount: 2
Back
Fore
SplineSet
20 688 m 0
 20 698 25 708 53 708 c 0
 86 708 119 705 184 705 c 0
 234 705 204 708 284 708 c 0
 292 708 304 706 304 688 c 0
 304 673 285 671 269 657 c 0
 243 643 238 581 238 546 c 0
 238 464 234 424 234 405 c 0
 234 389 236 386 243 386 c 0
 254 386 541 601 541 645 c 0
 541 665 508 666 491 670 c 0
 482 673 480 688 480 692 c 0
 480 708 492 708 502 708 c 0
 510 708 521 706 536 706 c 0
 548 706 583 704 619 704 c 0
 625 704 789 708 789 708 c 2
 808 708 817 705 817 695 c 0
 817 679 789 682 746 667 c 0
 728 661 713.202941017 651.601470509 686 638 c 0
 664 627 635 629 367 413 c 0
 357.919921875 405.681640625 354 399 354 399 c 2
 354 393 361.38337346 389.427108467 367 384 c 0
 693 69 721.697729581 63.2888981575 796 49 c 0
 822 44 837 43 837 22 c 0
 837 4 833.972475725 2.94246393893 768 2 c 2
 628 0 l 2
 597 0 607.833814835 -2.85689373235 513 86 c 0
 275 309 272 309 253 309 c 0
 239 309 236 296 236 285 c 0
 236 283 238 266 238 216 c 0
 238 161 238 99 253 75 c 0
 271 47 310 46 320 46 c 0
 323 46 325 44 328 44 c 0
 338 44 349 36 349 28 c 0
 349 4 340 0 319 0 c 0
 254 0 244 6 204 6 c 0
 145 6 120 -1 79 -1 c 0
 46 -1 43 7 43 16 c 2
 43 22 l 2
 43 46 79 34 98 64 c 0
 119 84 119 164 119 277 c 2
 119 404 l 2
 119 431 116 467 116 506 c 2
 116 549 l 2
 116 574 116 597 113 618 c 0
 109 651 69 665 41 666 c 0
 21 668 20 680 20 688 c 0
EndSplineSet
EndChar
StartChar: M
Encoding: 77 77 45
Width: 980
Flags: MW
LayerCount: 2
Back
Fore
SplineSet
20 698 m 0
 20 708 23 720 39 720 c 0
 51 720 86 714 96 714 c 0
 125 714 203 717 223 717 c 0
 236 717 244.23828125 710.671875 248 703 c 0
 349 497 499 197 514 197 c 0
 526 197 537 230 549 253 c 2
 663 465 l 2
 729.950113027 602.800232638 768 681 774 693 c 0
 782 706 777 720 815 720 c 0
 861 720 839 717 907 717 c 0
 915 717 925 717 925 697 c 0
 925 678 919 669 889 663 c 0
 856 659 841 642 841 557 c 0
 841 472 850 228 850 185 c 0
 850 51 877 34 942 34 c 0
 952 34 960 21 960 13 c 0
 960 -11 954 -11 934 -11 c 0
 870 -11 853 -5 814 -5 c 0
 753 -5 710 -12 668 -12 c 0
 649 -12 647 -4 647 2 c 0
 647 31 705 0 718 67 c 0
 719.942382812 77.01171875 722 101 722 131 c 0
 722 206 713 386 713 389 c 0
 713 417 709 432 704 432 c 0
 695 432 684 406 666 370 c 2
 556 166 l 2
 475.422361499 16.5651067802 470 12 458 12 c 0
 438 12 433 47 404 105 c 0
 219 483 221 484 213 484 c 0
 208 484 205 474 205 445 c 0
 202 303 191 262 191 188 c 2
 191 144 l 2
 191 92 192 41 272 33 c 0
 278 33 286 24 286 16 c 0
 286 -8 281 -11 269 -11 c 0
 232 -11 170 -5 155 -5 c 0
 142 -5 113 -10 65 -10 c 0
 51 -10 42 -8 42 7 c 0
 42 34 110 0 118 83 c 0
 120.955540933 113.663737179 137 391 137 483 c 0
 137 612 122 654 33 675 c 0
 20 679 20 690 20 698 c 0
EndSplineSet
EndChar
StartChar: O
Encoding: 79 79 47
Width: 938
Flags: MW
LayerCount: 2
Back
Fore
SplineSet
44 338 m 0
 44 559 191 732 474 732 c 0
 810 732 894 497 894 392 c 0
 894 103 701 -28 458 -28 c 0
 182 -28 44 153 44 338 c 0
176 389 m 0
 176 266 267 39 493 39 c 0
 604 39 771 124 771 302 c 0
 771 546 617 671 441 671 c 0
 307 671 176 586 176 389 c 0
EndSplineSet
EndChar
StartChar: P
Encoding: 80 80 48
Width: 646
Flags: MW
LayerCount: 2
Back
Fore
SplineSet
20 696 m 0
 20 708 28 720 47 720 c 0
 59 720 55 721 90 721 c 0
 103 721 138 716 159 716 c 0
 209 716 309 721 350 721 c 0
 482 721 617 661 617 529 c 0
 617 348 429 311 369 311 c 0
 321 311 258 328 258 343 c 0
 258 358 264 365 271 365 c 0
 285 365 296 357 322 357 c 0
 376 357 489 384 489 489 c 0
 489 562 423 660 287 660 c 0
 248 660 234 648 234 558 c 0
 234 163 231 457 231 145 c 0
 231 76 249 45 272 30 c 0
 307 8 355 51 355 -1 c 0
 355 -15 341 -18 329 -18 c 0
 284 -18 184 -11 167 -11 c 0
 139 -11 111 -17 61 -17 c 0
 49 -17 26 -17 26 -0 c 0
 26 35 41 35 64 44 c 0
 78 48 83 17 99 87 c 0
 109 115 114 373 114 432 c 0
 114 535 112 573 112 598 c 0
 112 621 99 676 40 676 c 0
 29 676 20 681 20 696 c 0
EndSplineSet
EndChar
StartChar: Q
Encoding: 81 81 49
Width: 924
Flags: MW
LayerCount: 2
Back
Fore
SplineSet
45 349 m 0
 45 560 164 732 476 732 c 0
 801 732 880 488 880 380 c 0
 880 243 793 73 639 36 c 0
 571 19 559 17 559 13 c 0
 559 7 567 -1 580 -6 c 0
 667 -42 823 -110 912 -110 c 0
 984 -110 983 -82 1013 -82 c 0
 1018 -82 1024 -94 1024 -98 c 0
 1024 -160 932 -212 843 -212 c 0
 690 -212 379 5 300 5 c 0
 230 5 206 -48 206 -90 c 2
 206 -106 l 2
 206 -119 201 -130 179 -130 c 0
 159 -130 143 -109 143 -88 c 0
 143 -24 187 31 222 51 c 0
 236 59 249 65 249 69 c 0
 249 72 236 80 220 88 c 0
 105 149 45 244 45 349 c 0
205 386 m 0
 205 308 206.408402996 235.302881649 256 168 c 0
 312 92 429 67 494 67 c 0
 551 67 602.797656248 79.3988281239 638 97 c 0
 682 119 735 178 735 298 c 0
 735 508 620 671 444 671 c 0
 310 671 205 585 205 386 c 0
EndSplineSet
EndChar
StartChar: T
Encoding: 84 84 52
Width: 783
Flags: MW
LayerCount: 2
Back
Fore
SplineSet
20 571 m 0
 20 605 27 662 31 691 c 0
 34 717 32 732 66 732 c 0
 144 732 134 720 382 720 c 0
 548 720 668 724 727 728 c 0
 729 728 733 729 735 729 c 0
 754 729 756 713 756 709 c 0
 756 695 763 622 763 612 c 0
 763 570 759 567 739 567 c 0
 736 567 727 568 722 579 c 0
 709 624 705 642 621 642 c 2
 491 642 l 2
 459 642 456 638 456 578 c 2
 456 530 l 2
 456 299 452 257 452 167 c 0
 452 141 450 120 450 102 c 0
 450 75 452 58 464 46 c 0
 503 9 550 28 550 2 c 0
 550 -14 542 -15 522 -15 c 0
 492 -15 432 -3 394 -3 c 0
 364 -3 313 -14 276 -14 c 0
 252 -14 233 -7 233 11 c 0
 233 43 260 37 284 46 c 0
 302 50 318 58 321 84 c 0
 333 151 336 407 336 447 c 0
 336 549 334 619 334 619 c 2
 334 643 332 646 259 646 c 0
 111 646 109 636 98 622 c 0
 58 587 74 551 36 551 c 0
 27 551 20 555 20 571 c 0
EndSplineSet
EndChar
StartChar: V
Encoding: 86 86 54
Width: 965
Flags: MW
LayerCount: 2
Back
Fore
SplineSet
20 696 m 0
 20 709 44 710 60 710 c 0
 91 710 122 706 215 706 c 0
 240 706 277 708 307 708 c 0
 349 708 354 707 354 697 c 0
 354 682 313 683 313 650 c 0
 313 608 346.360351562 557.594726562 466 312 c 0
 502.285864134 237.512846315 541 159 554 159 c 0
 564 159 794 596 794 649 c 0
 794 696 722 676 722 700 c 0
 722 709 726 710 750 710 c 0
 766 710 786 709 832 709 c 0
 882 709 856 711 920 711 c 0
 934 711 945 709 945 697 c 0
 945 675 901 687 868 625 c 2
 599 117 l 2
 522 -29 529 -30 516 -30 c 0
 509 -30 491 -24 461 39 c 0
 422 118 391 173 337 271 c 0
 166 579 157.899212937 604.151180594 132 643 c 0
 96 697 20 661 20 696 c 0
EndSplineSet
EndChar
StartChar: W
Encoding: 87 87 55
Width: 1400
Flags: MW
LayerCount: 2
Back
Fore
SplineSet
20 702 m 0
 20 715 42 716 58 716 c 0
 89 716 120 712 213 712 c 0
 281 712 316 716 334 716 c 0
 351 716 354 713 354 704 c 0
 354 688 311 690 311 656 c 0
 311 624 355.291522067 560.610727413 494 309 c 0
 537 231 571 155 584 155 c 0
 592 155 641.399414062 233.798828125 676 303 c 0
 689 329 696 331 696 350 c 0
 696 363 572.10546875 593.741210938 542 628 c 0
 513 661 496.914956175 669.903688824 477 672 c 0
 420 678 420 683 420 697 c 0
 420 717 446 718 462 718 c 0
 494 718 525 712 620 712 c 0
 633 712 678 718 714 718 c 0
 738 718 758 715 758 709 c 0
 758 693 720 696 720 661 c 0
 720 638 734.924804688 611.9609375 759 566 c 0
 770 545 779 513 790 513 c 0
 804 513 879 636 879 657 c 0
 879 702 828 686 828 708 c 0
 828 718 836 720 851 720 c 0
 866 720 898 716 918 716 c 2
 936 716 l 2
 950 716 964 718 991 721 c 2
 1000 721 l 2
 1007 721 1014 719 1014 711 c 0
 1014 692 985 698 969 681 c 0
 960 672 945.63277224 655.223057364 933 634 c 0
 833 466 826 457 826 436 c 0
 826 431 952 162 969 162 c 0
 985 162 1240 621 1240 655 c 0
 1240 703 1174 683 1174 708 c 0
 1174 717 1175 718 1199 718 c 0
 1215 718 1235 716 1281 716 c 0
 1308 716 1316 720 1355 720 c 0
 1368.9817271 720 1381 717 1381 705 c 0
 1381 689 1356 690 1329 669 c 0
 1307 652 1301 635 1279 596 c 0
 930 -34 936 -35 918 -35 c 0
 904 -35 878.258277789 20.5839066887 860 54 c 0
 807 151 745 281 732 281 c 0
 713 281 567.495117188 12.796875 564 5 c 0
 551 -24 544 -38 531 -38 c 0
 504 -38 471 67 355 269 c 0
 262 431 220.139927903 512.673501561 199 562 c 0
 130 723 20 655 20 702 c 0
EndSplineSet
EndChar
StartChar: X
Encoding: 88 88 56
Width: 949
Flags: MW
LayerCount: 2
Back
Fore
SplineSet
20 694 m 0
 20 711 25 714 75 714 c 0
 130 714 114 708 192 708 c 0
 206 708 319 711 330 711 c 0
 348 711 359 711 359 702 c 0
 359 674 314 696 314 663 c 0
 314 642 368.408203125 593.30859375 388 567 c 0
 458 473 482 462 494 462 c 0
 502 462 512 468 524 484 c 0
 570 544 663 632 663 655 c 0
 663 702 610 677 610 704 c 0
 610 712 617 714 631 714 c 0
 690 714 694 708 742 708 c 0
 871 708 839 714 871 714 c 0
 882 714 893 712 893 704 c 0
 893 683 853 692 798 663 c 0
 776 651 756.829658056 632.16927398 730 605 c 0
 651 525 545 394 545 390 c 0
 545 378 549.735533905 380.644631865 689 221 c 0
 730 174 816 83 851 61 c 0
 862 49 929 49 929 20 c 0
 929 8 926 -1 887 -1 c 0
 845 -1 762 9 748 9 c 0
 663 9 631 0 615 0 c 0
 605 0 598 2 598 13 c 0
 598 39 649 22 649 57 c 0
 649 81 580 125 470 271 c 0
 462.654716066 280.74919504 454 288 451 288 c 0
 447 288 437.01953125 273.376953125 423 258 c 0
 361 190 268 112 268 68 c 0
 268 59 271 42 322 42 c 0
 329 42 334 36 334 16 c 0
 334 1 320 0 292 0 c 0
 268 0 185 4 173 4 c 0
 149 4 92 -1 64 -1 c 0
 40 -1 25 0 25 18 c 0
 25 38 66 20 115 50 c 0
 178 89 253.038346549 175.964373206 319 247 c 0
 371 303 400 340 400 347 c 0
 400 356 367.445170694 392.738053702 242 537 c 0
 202 583 128 654 70 664 c 0
 54 669 20 668 20 694 c 0
EndSplineSet
EndChar
StartChar: Y
Encoding: 89 89 57
Width: 831
Flags: MW
LayerCount: 2
Back
Fore
SplineSet
20 680 m 0
 20 702 32 705 82 705 c 0
 95 705 123 702 140 702 c 0
 163 702 240 704 268 704 c 0
 303 704 318 698 318 691 c 0
 318 670 276 675 276 656 c 0
 276 626 317 580 338 552 c 0
 391 480 429 422 437 422 c 0
 453 422 480 452 517 496 c 0
 557 546 613 592 613 618 c 0
 613 644 596 652 579 656 c 0
 560 662 539 660 539 687 c 0
 539 702 552 705 576 705 c 0
 591 705 610 704 631 704 c 0
 691 704 695 702 746 702 c 0
 783 702 811 701 811 687 c 0
 811 677 783 678 756 661 c 0
 667 607 568 461 488 382 c 0
 460 355 458 330 458 259 c 0
 458 233 459 179 459 146 c 2
 459 123 l 2
 459 53 499 47 512 47 c 0
 515 47 529 46 532 46 c 0
 542 46 547 32 547 24 c 0
 547 4 540 0 519 0 c 0
 503 0 438 2 402 2 c 0
 326 2 322 -4 274 -4 c 0
 248 -4 241 1 241 12 c 0
 241 44 262 33 283 42 c 0
 303 48 325 64 325 101 c 0
 325 125 328 117 328 294 c 0
 328 352 314 354 171 560 c 0
 105 655 74 660 45 660 c 0
 36 660 20 660 20 680 c 0
EndSplineSet
EndChar
StartChar: bracketleft
Encoding: 91 91 59
Width: 312
Flags: MW
LayerCount: 2
Back
Fore
SplineSet
78 -91 m 2
 78 72 87 373 87 576 c 0
 87 679 86 730 86 747 c 0
 86 771 100 773 141 773 c 2
 190 773 l 2
 250 773 256 774 264 774 c 0
 274 774 282 760 282 743 c 0
 282 726 278 712 270 712 c 0
 251 712 187 711 178 711 c 2
 162 711 l 2
 157 711 154 711 154 703 c 0
 154 687 158 643 158 552 c 0
 158 399 150 168 150 22 c 0
 150 -19 150 -73 152 -122 c 0
 152 -134 154 -148 164 -148 c 0
 182 -148 245 -146 254 -146 c 0
 272 -146 278 -154 278 -180 c 0
 278 -213 263 -216 219 -216 c 2
 116 -216 l 2
 82 -216 78 -210 78 -154 c 2
 78 -91 l 2
EndSplineSet
EndChar
StartChar: backslash
Encoding: 92 92 60
Width: 445
Flags: MW
LayerCount: 2
Back
Fore
SplineSet
20 723 m 0
 20 733 40 735 50 735 c 0
 69 735 87 732 92 717 c 0
 94 710 405 -113 405 -113 c 2
 413.714527104 -136.108809892 425 -158 425 -167 c 0
 425 -183 392 -183 376 -183 c 0
 362 -183 354 -181 338 -152 c 2
 34 679 l 2
 29 692 20 714 20 723 c 0
EndSplineSet
EndChar
StartChar: asciicircum
Encoding: 94 94 62
Width: 465
Flags: MW
LayerCount: 2
Back
Fore
SplineSet
29 317 m 0
 29 322 42 336 48 342 c 0
 178 512 188 534 228 534 c 0
 270 534 279 511 408 342 c 0
 414 336 425 320 425 315 c 0
 425 308 412 307 398 307 c 2
 376 307 l 2
 350 307 342 325 330 340 c 0
 262 423 242 454 228 454 c 0
 213 454 194 423 126 340 c 0
 114 325 106 308 80 308 c 2
 59 308 l 2
 44 308 29 310 29 317 c 0
EndSplineSet
EndChar
StartChar: underscore
Encoding: 95 95 63
Width: 320
Flags: MW
LayerCount: 2
Back
Fore
SplineSet
0 -38 m 0
 0 -18 2 -6 29 -6 c 2
 296 -6 l 2
 320 -6 320 -17 320 -38 c 0
 320 -64 320 -74 288 -74 c 2
 27 -74 l 2
 0 -74 0 -64 0 -38 c 0
EndSplineSet
EndChar
StartChar: grave
Encoding: 96 96 64
Width: 514
Flags: MW
LayerCount: 2
Back
Fore
SplineSet
109 669 m 0
 109 701 183 708 189 708 c 0
 195 708 208 703 219 679 c 0
 297 491 333 472 333 451 c 0
 333 442 324 434 315 434 c 0
 303 434 279 457 256 481 c 0
 194 546 109 637 109 669 c 0
EndSplineSet
EndChar
StartChar: b
Encoding: 98 98 66
Width: 616
Flags: MW
LayerCount: 2
Back
Fore
SplineSet
12 703 m 0
 12 725 69 734 93 742 c 0
 119 751 161 770 174 770 c 0
 182 770 192 763 192 751 c 0
 192 712 191 798 191 400 c 0
 191 386 194 382 199 382 c 0
 216 382 216 456 371 456 c 0
 509 456 577 344 577 238 c 0
 577 182 543 74 471 25 c 0
 428 -4 373 -21 308 -21 c 0
 199 -21 145 55 137 55 c 0
 124 55 108 -27 79 -27 c 0
 67 -27 65 -23 65 -14 c 0
 65 11 69 65 69 71 c 0
 69 149 83 226 83 343 c 2
 83 598 l 2
 83 642 75 692 38 692 c 2
 28 692 l 2
 20 692 12 694 12 703 c 0
191 134 m 2
 191 112 235 34 337 34 c 0
 434 34 479 106 479 184 c 0
 479 275 417 374 303 374 c 0
 274 374 244 365 223 348 c 0
 194 326 191 315 191 304 c 2
 191 134 l 2
EndSplineSet
EndChar
StartChar: c
Encoding: 99 99 67
Width: 490
Flags: MW
LayerCount: 2
Back
Fore
SplineSet
39 189 m 0
 39 318 139 439 296 439 c 0
 341 439 424 423 426 402 c 0
 427 389 428 368 428 349 c 0
 428 323 425 300 417 300 c 0
 403 300 401 317 384 330 c 0
 361 349 304 379 251 379 c 0
 231 379 152 354 152 224 c 0
 152 129 226 44 323 44 c 0
 403 44 442 93 455 93 c 0
 461 93 466 86 466 80 c 0
 466 69 408 -35 266 -35 c 0
 130 -35 39 48 39 189 c 0
EndSplineSet
EndChar
StartChar: d
Encoding: 100 100 68
Width: 637
Flags: MW
LayerCount: 2
Back
Fore
SplineSet
39 191 m 0
 39 316 129 445 308 445 c 0
 358 445 418 416 433 416 c 0
 436 416 439 422 439 450 c 0
 439 569 442 535 442 568 c 0
 442 630 442 671 386 671 c 2
 375 671 l 2
 354 671 354 672 354 683 c 2
 354 685 l 2
 354 708 393 703 482 757 c 0
 499 762 520 772 537 772 c 0
 547 772 554 767 554 752 c 0
 554 731 541 618 541 534 c 0
 541 354 538 240 538 168 c 0
 538 77 544 56 573 47 c 0
 589 40 617 41 617 16 c 0
 617 9 612 -2 521 -11 c 0
 485 -14 457 -28 442 -28 c 0
 433 -28 428 -24 428 -13 c 0
 428 0 424 14 424 39 c 0
 424 49 423 63 414 63 c 0
 402 63 358 -28 254 -28 c 0
 111 -28 39 79 39 191 c 0
147 243 m 0
 147 156 209 51 313 51 c 0
 371 51 432 109 432 152 c 0
 434 313 433 271 433 287 c 0
 433 339 419 351 405 359 c 0
 373 377 322 401 286 401 c 0
 197 401 147 331 147 243 c 0
EndSplineSet
EndChar
StartChar: e
Encoding: 101 101 69
Width: 552
Flags: MW
LayerCount: 2
Back
Fore
SplineSet
39 188 m 0
 39 324 138 438 287 438 c 0
 470 438 512 283 512 267 c 0
 512 252 497 248 465 248 c 2
 203 248 l 1
 169 248 l 2
 156 248 156 247 156 238 c 0
 156 119 255 57 351 57 c 0
 433 57 481 97 501 97 c 0
 507 97 513 91 513 86 c 0
 513 72 440 -35 297 -35 c 0
 166 -35 39 32 39 188 c 0
165 298 m 0
 165 290 167 285 178 285 c 0
 223 285 334 294 351 294 c 0
 370 294 372 296 372 304 c 0
 372 327 344 400 266 400 c 0
 195 400 165 329 165 298 c 0
EndSplineSet
EndChar
StartChar: f
Encoding: 102 102 70
Width: 380
Flags: MW
LayerCount: 2
Back
Fore
SplineSet
29 380 m 0
 29 418 40 426 72 426 c 2
 93 426 l 2
 110 426 111 435 111 449 c 0
 111 658 277 763 358 763 c 0
 393 763 417 749 417 726 c 0
 417 718 414 705 411 689 c 0
 405 663 404 646 388 646 c 0
 376 646 380 669 317 669 c 0
 233 669 212 552 212 464 c 2
 212 442 l 2
 212 432 214 424 224 424 c 0
 266 424 299 430 320 436 c 0
 329 439 335 450 341 450 c 0
 344 450 346 444 346 438 c 0
 346 413 337 394 332 381 c 0
 328 372 319 368 307 368 c 0
 260 368 291 366 229 366 c 0
 220 366 213 366 213 357 c 2
 213 301 l 2
 213 284 218 153 220 112 c 0
 221 76 222 25 282 25 c 0
 298 25 298 13 298 2 c 0
 298 -4 297 -13 285 -13 c 0
 281 -13 195 -6 168 -6 c 0
 125 -6 127 -13 81 -13 c 0
 70 -13 63 -10 63 1 c 0
 63 16 114 8 114 69 c 0
 114 97 108 162 108 349 c 0
 108 364 104 365 91 365 c 0
 80 365 68 360 51 360 c 0
 30 360 29 371 29 380 c 0
EndSplineSet
EndChar
StartChar: h
Encoding: 104 104 72
Width: 655
Flags: MW
LayerCount: 2
Back
Fore
SplineSet
20 704 m 0
 20 723 72 725 105 737 c 0
 138 749 179 765 194 765 c 0
 209 765 210 748 210 741 c 0
 210 726 203.645057713 711.994220377 203 676 c 0
 198 397 192 406 192 376 c 0
 192 363 194 356 201 356 c 0
 212 356 266 441 358 441 c 0
 473 441 548 385 548 249 c 2
 548 108 l 2
 548 93 553 54 581 51 c 0
 611 47 635 38 635 20 c 0
 635 0 618 -4 599 -4 c 0
 585 -4 525 3 501 3 c 0
 482 3 421 -2 412 -2 c 0
 397 -2 385 0 385 8 c 0
 385 40 437 0 437 69 c 0
 437 85 440 69 440 228 c 0
 440 307 382 372 316 372 c 0
 278 372 242 352 219 336 c 0
 195 319 190 300 190 167 c 2
 190 146 l 2
 190 102 194 60 232 45 c 0
 254 31 285 45 285 18 c 0
 285 9 279 0 272 0 c 0
 271 0 154 8 148 8 c 0
 132 8 82 0 65 0 c 0
 23 0 34 6 34 15 c 0
 34 23 35 30 46 35 c 0
 86 47 90 71 90 111 c 2
 96 450 l 1
 96 499 l 2
 96 673 96 693 54 693 c 0
 39 693 40 694 37 694 c 0
 26 694 20 698 20 704 c 0
EndSplineSet
EndChar
StartChar: i
Encoding: 105 105 73
Width: 327
Flags: MW
LayerCount: 2
Back
Fore
SplineSet
36 344 m 0
 36 358 68 359 139 380 c 0
 185 394 182 396 202 396 c 0
 210 396 221 392 221 380 c 0
 221 370 212 354 212 339 c 2
 212 104 l 2
 212 48 246 43 273 41 c 0
 291 39 305 39 305 18 c 0
 305 9 304 -7 285 -7 c 0
 280 -7 272 -6 266 -6 c 0
 215 -6 227 -2 181 -2 c 0
 130 -2 115 -6 95 -6 c 0
 65 -6 47 -3 47 6 c 0
 47 12 53 20 62 23 c 0
 102 35 104 30 104 186 c 2
 104 265 l 2
 104 351 68 328 46 335 c 0
 41 337 36 340 36 344 c 0
88 562 m 0
 88 582 130 645 163 645 c 0
 197 645 232 590 232 560 c 0
 232 524 176 477 162 477 c 0
 118 477 88 538 88 562 c 0
EndSplineSet
EndChar
StartChar: j
Encoding: 106 106 74
Width: 329
Flags: MW
LayerCount: 2
Back
Fore
SplineSet
23 -134 m 0
 23 -113 28 -98 45 -98 c 0
 66 -98 87 -139 103 -139 c 0
 120 -139 126 -106 126 15 c 2
 126 305 l 2
 126 326 125 361 67 361 c 0
 58 361 51 362 51 376 c 0
 51 396 88 388 161 431 c 0
 187 441 209 452 219 452 c 0
 233 452 234 442 234 428 c 2
 234 417 l 2
 234 400 231 380 231 368 c 2
 231 31 l 2
 231 -67 198 -213 72 -213 c 0
 42 -213 25 -204 25 -179 c 0
 25 -165 23 -148 23 -134 c 0
116 591 m 0
 116 617 154 668 187 668 c 0
 222 668 259 621 259 591 c 0
 259 555 207 511 193 511 c 0
 149 511 116 567 116 591 c 0
EndSplineSet
EndChar
StartChar: o
Encoding: 111 111 79
Width: 625
Flags: MW
LayerCount: 2
Back
Fore
SplineSet
39 202 m 0
 39 319 131 438 314 438 c 0
 450 438 586 360 586 209 c 0
 586 54 446 -26 306 -26 c 0
 128 -26 39 87 39 202 c 0
158 236 m 0
 158 96 253 20 338 20 c 0
 409 20 473 72 473 180 c 0
 473 282 414 396 291 396 c 0
 233 396 158 355 158 236 c 0
EndSplineSet
EndChar
StartChar: p
Encoding: 112 112 80
Width: 621
Flags: MW
LayerCount: 2
Back
Fore
SplineSet
31 374 m 0
 31 392 65 385 150 435 c 0
 190 454 194 458 201 458 c 0
 210 458 217 454 217 440 c 0
 217 407 213 400 213 384 c 0
 213 377 215 373 216 373 c 0
 224 373 273 447 381 447 c 0
 518 447 582 345 582 236 c 0
 582 117 499 -17 347 -17 c 0
 232 -17 221 36 205 36 c 0
 203 36 202 33 202 28 c 2
 202 -90 l 1
 202 -103 l 2
 202 -126 214.29884822 -142.385389721 219 -154 c 0
 236 -196 306 -161 306 -195 c 0
 306 -198 302 -208 267 -208 c 0
 237 -208 239 -204 149 -204 c 0
 113 -204 92 -207 77 -207 c 0
 42 -207 38 -204 38 -197 c 0
 38 -166 98 -209 98 -92 c 2
 98 -72 l 2
 98 122 103 159 103 200 c 2
 103 221 l 2
 103 319 101 357 56 357 c 0
 31 357 31 364 31 374 c 0
202 190 m 0
 202 171 204 162 204 143 c 0
 204 51 295 29 350 29 c 0
 441 29 484 104 484 184 c 0
 484 275 429 371 327 371 c 0
 286 371 257 357 236 341 c 0
 211 322 202 310 202 190 c 0
EndSplineSet
EndChar
StartChar: q
Encoding: 113 113 81
Width: 630
Flags: MW
LayerCount: 2
Back
Fore
SplineSet
39 171 m 0
 39 361 198 439 327 439 c 0
 422 439 482 374 483 374 c 0
 496 374 513 452 540 452 c 0
 547 452 550 449 550 436 c 0
 550 405 541 391 541 234 c 0
 541 47 546 190 546 -85 c 0
 546 -202 617 -167 617 -195 c 0
 617 -203 611 -207 596 -207 c 0
 588 -207 563 -206 514 -206 c 0
 411 -206 412 -213 399 -213 c 0
 374 -213 371 -202 371 -190 c 0
 371 -164 407 -172 422 -157 c 0
 431 -151 434 -142 434 -71 c 0
 434 -29 437 -20 437 0 c 0
 437 41 432 40 428 40 c 0
 409 40 377 -38 252 -38 c 0
 194 -38 153 -23 119 4 c 0
 40 67 39 136 39 171 c 0
144 219 m 0
 144 89 249 42 305 42 c 0
 429 42 434 110 434 146 c 2
 434 300 l 2
 434 354 355 395 299 395 c 0
 250 395 144 362 144 219 c 0
EndSplineSet
EndChar
StartChar: s
Encoding: 115 115 83
Width: 448
Flags: MW
LayerCount: 2
Back
Fore
SplineSet
55 37 m 2
 55 131 l 2
 55 147 67 159 78 159 c 0
 110 159 103 140 117 118 c 0
 127 94 159 30 221 30 c 0
 252 30 308 44 308 101 c 0
 308 222 67 124 67 323 c 0
 67 400 151 447 240 447 c 0
 359 447 371 414 371 406 c 0
 371 403 376 351 376 339 c 0
 376 315 372 307 357 307 c 0
 339 307 324 395 231 395 c 0
 192 395 162 374 162 344 c 0
 162 285 226 286 278 268 c 0
 381 232 410 231 410 109 c 0
 410 71 381 31 347 5 c 0
 330 -7 301 -26 230 -26 c 0
 168 -26 116 -2 98 3 c 0
 70 12 55 10 55 37 c 2
EndSplineSet
EndChar
StartChar: t
Encoding: 116 116 84
Width: 379
Flags: MW
LayerCount: 2
Back
Fore
SplineSet
27 372 m 0
 27 391 50 393 94 435 c 0
 145 484 165 531 190 531 c 0
 200 531 204 525 204 508 c 0
 204 490 200 470 200 451 c 0
 200 432 200 431 241 431 c 2
 276 431 l 2
 341 431 342 445 353 445 c 0
 360 445 363 438 363 430 c 0
 363 416 339 353 331 353 c 0
 259 354 228 363 227 363 c 0
 201 363 197 358 197 332 c 0
 197 306 191 209 191 160 c 0
 191 85 202 53 277 53 c 0
 313 53 340 70 351 70 c 0
 358 70 361 68 361 54 c 0
 361 34 303 -23 235 -23 c 0
 89 -23 80 55 80 94 c 2
 80 109 l 2
 80 197 86 334 86 342 c 0
 86 355 82 358 64 358 c 0
 57 358 50 356 45 356 c 0
 33 356 27 358 27 372 c 0
EndSplineSet
EndChar
StartChar: v
Encoding: 118 118 86
Width: 648
Flags: MW
LayerCount: 2
Back
Fore
SplineSet
20 423 m 0
 20 433 37 435 45 435 c 0
 54 435 87 429 141 429 c 0
 180 429 180 428 219 428 c 0
 236 428 256 432 271 432 c 0
 284 432 295 426 295 415 c 0
 295 390 285 389 271 389 c 0
 253 389 229 388 229 364 c 0
 229 345 252.266391359 305.111635507 298 218 c 0
 319 178 350 109 359 109 c 0
 372 109 501 342 501 371 c 0
 501 423 427 387 427 420 c 0
 427 430 442 432 468 432 c 0
 490 432 495 430 531 430 c 0
 557 430 577 432 592 432 c 0
 622 432 629 428 629 416 c 0
 629 402 606 408 580 377 c 0
 502 284 357 -42 313 -42 c 0
 288 -42 312.270885106 -35.3967577874 145 259 c 0
 45 435 20 396 20 423 c 0
EndSplineSet
EndChar
StartChar: w
Encoding: 119 119 87
Width: 903
Flags: MW
LayerCount: 2
Back
Fore
SplineSet
20 423 m 0
 20 433 38 435 46 435 c 0
 56 435 89 429 144 429 c 0
 184 429 159 430 199 430 c 0
 250 430 264 430 264 420 c 0
 264 401 220 418 220 377 c 0
 220 348 244.794921875 285.41015625 281 213 c 0
 302 171 321 120 330 120 c 0
 335 120 358.353642031 161.800275306 378 197 c 0
 426 283 428 275 428 297 c 0
 428 304 416.859776527 352.895596463 402 373 c 0
 368 419 345 405 345 422 c 0
 345 430 355 430 362 430 c 0
 398 430 436 428 502 428 c 0
 531 428 523 429 538 429 c 0
 562 429 563 412 563 407 c 0
 563 393 559 394 548 392 c 0
 535 391 518 387 518 367 c 0
 518 350 541.450082021 287.714129483 577 220 c 0
 598 180 615 132 624 132 c 0
 637 132 751 321 751 366 c 0
 751 416 696 393 696 420 c 0
 696 427 709 428 724 428 c 2
 845 428 l 2
 877 428 884 426 884 413 c 0
 884 394 856 404 830 373 c 0
 798 334 804 316 655 36 c 0
 628 -15 614 -44 599 -44 c 0
 562 -44 473 229 451 229 c 0
 438 229 318 -39 278 -39 c 0
 259 -39 259 -18 133 259 c 0
 101 330 108 353 43 401 c 0
 27 413 20 410 20 423 c 0
EndSplineSet
EndChar
StartChar: x
Encoding: 120 120 88
Width: 721
Flags: MW
LayerCount: 2
Back
Fore
SplineSet
29 14 m 0
 29 26 42 19 91 42 c 0
 173 81 259 159 303 196 c 0
 306 199 308 201 308 207 c 0
 308 217 251 263 194 320 c 0
 148 365 102 393 90 394 c 0
 56 399 32 413 32 425 c 0
 32 433 42 437 51 437 c 0
 107 437 105 432 157 432 c 0
 199 432 228 436 267 436 c 0
 298 436 302 432 302 423 c 0
 302 409 269 414 269 394 c 0
 269 382 289 364 306 344 c 0
 355 286 371 265 379 265 c 0
 381 265 385 267 391 273 c 0
 477 365 482 366 482 385 c 0
 482 413 436 408 436 424 c 0
 436 429 436 436 472 436 c 0
 498 436 524 435 558 435 c 0
 584 435 613 437 653 437 c 0
 665 437 679 431 679 424 c 0
 679 405 643 422 566 364 c 0
 501 315 413 245 413 238 c 0
 413 231 421 233 532 129 c 0
 563 100 612 49 676 35 c 0
 688 32 692 31 692 17 c 0
 692 3 688 -1 647 -1 c 0
 628 -1 603 2 568 2 c 0
 537 2 514 -1 489 -1 c 2
 474 -1 l 2
 443 -1 429 0 429 10 c 0
 429 23 464 19 464 41 c 0
 464 73 398 125 359 177 c 0
 354 183 353 187 349 187 c 0
 345 187 338 178 336 176 c 0
 286 119 244 90 244 58 c 0
 244 10 291 39 291 9 c 0
 291 3 291 -1 234 -1 c 0
 209 -1 193 4 163 4 c 0
 135 4 112 -2 90 -2 c 0
 53 -2 29 1 29 14 c 0
EndSplineSet
EndChar
StartChar: braceleft
Encoding: 123 123 91
Width: 317
Flags: MW
LayerCount: 2
Back
Fore
SplineSet
42 266 m 0
 42 299 97 288 97 322 c 0
 97 455 91 598 91 748 c 0
 91 763 103 767 112 767 c 0
 135 767 156 759 185 759 c 0
 227 759 242 768 263 768 c 0
 271 768 284 765 284 753 c 0
 284 697 211 669 185 669 c 0
 181 669 178 664 178 660 c 0
 176 516 174 352 174 239 c 0
 174 146 178 -2 178 -121 c 0
 178 -131 219 -130 251 -147 c 0
 258 -151 285 -168 285 -188 c 0
 285 -192 284 -197 276 -197 c 0
 270 -197 238 -188 191 -188 c 0
 129 -188 129 -202 104 -202 c 0
 96 -202 90 -197 90 -190 c 0
 90 -56 94 81 94 199 c 0
 94 241 42 235 42 266 c 0
EndSplineSet
EndChar
StartChar: bar
Encoding: 124 124 92
Width: 235
Flags: MW
LayerCount: 2
Back
Fore
SplineSet
78 -87 m 2
 78 72 87 372 87 570 c 0
 87 671 86 721 86 738 c 0
 86 755 95 762 123 762 c 0
 151 762 156 754 156 737 c 0
 156 731 154 723 154 714 c 0
 154 698 158 652 158 559 c 0
 158 402 150 160 150 10 c 0
 150 -32 150 -87 152 -137 c 0
 152 -142 153 -152 153 -163 c 2
 153 -171 l 2
 153 -190 152 -209 128 -209 c 0
 83 -209 78 -203 78 -148 c 2
 78 -87 l 2
EndSplineSet
EndChar
StartChar: braceright
Encoding: 125 125 93
Width: 317
Flags: MW
LayerCount: 2
Back
Fore
SplineSet
32 -189 m 0
 32 -169 59 -152 66 -148 c 0
 98 -131 138 -132 138 -122 c 0
 138 -3 143 145 143 238 c 0
 143 351 140 515 138 659 c 0
 138 663 136 668 132 668 c 0
 106 668 33 695 33 751 c 0
 33 763 46 766 54 766 c 0
 75 766 90 757 132 757 c 0
 161 757 182 768 205 768 c 0
 214 768 226 765 226 749 c 0
 226 599 220 456 220 322 c 0
 220 288 275 299 275 266 c 0
 275 235 223 241 223 199 c 0
 223 81 228 -56 228 -191 c 0
 228 -198 221 -203 213 -203 c 0
 188 -203 188 -189 126 -189 c 0
 79 -189 47 -198 41 -198 c 0
 33 -198 32 -193 32 -189 c 0
EndSplineSet
EndChar
StartChar: asciitilde
Encoding: 126 126 94
Width: 541
Flags: MW
LayerCount: 2
Back
Fore
SplineSet
29 164 m 0
 29 168 102 301 186 301 c 0
 255 301 293 234 362 234 c 0
 434 234 466 305 482 305 c 0
 502 305 512 295 512 283 c 0
 512 276 434 149 336 149 c 0
 256 149 230 219 167 219 c 0
 98 219 73 141 59 141 c 0
 39 141 29 146 29 164 c 0
EndSplineSet
EndChar
StartChar: exclamdown
Encoding: 161 161 100
Width: 324
Flags: MW
LayerCount: 2
Back
Fore
SplineSet
59 614 m 0
 59 640 94 655 109 672 c 0
 125 690 139 725 158 725 c 0
 170 725 199 695 212 675 c 0
 224 657 256 638 256 611 c 0
 256 597 239 585 218 564 c 0
 201 546 184 507 159 507 c 0
 147 507 140 520 128 534 c 0
 83 588 59 588 59 614 c 0
83 -17 m 0
 83 -10 86 -2 90 22 c 0
 108 120 105 220 144 430 c 0
 146 437 149 441 164 441 c 0
 176 441 182 437 182 431 c 0
 220 133 206 193 212 133 c 0
 220 63 227 34 227 -12 c 0
 227 -36 197 -50 152 -50 c 0
 108 -50 83 -43 83 -17 c 0
EndSplineSet
EndChar
StartChar: cent
Encoding: 162 162 101
Width: 509
Flags: MW
LayerCount: 2
Back
Fore
SplineSet
39 191 m 0
 39 300 109 404 223 441 c 0
 269 455 270 442 270 473 c 2
 270 513 l 2
 270 520 282 524 294 524 c 0
 310 524 330 520 330 515 c 2
 330 469 l 2
 330 456 338 466 393 455 c 0
 406 453 419 449 432 442 c 0
 443 436 447 437 447 382 c 0
 447 368 446 338 436 338 c 0
 416 338 430 364 353 402 c 0
 341 408 337 409 334 409 c 0
 331 409 328 406 328 389 c 0
 326 136 326 110 326 78 c 0
 326 70 326 64 342 64 c 0
 422 64 461 116 474 116 c 0
 480 116 485 109 485 102 c 0
 485 88 439 -5 337 -23 c 0
 325 -24 324 -23 324 -42 c 2
 324 -121 l 2
 324 -133 308 -136 292 -136 c 0
 283 -136 267 -134 267 -126 c 2
 267 -55 l 2
 267 -35 261 -53 195 -32 c 0
 99 -2 39 75 39 191 c 0
152 257 m 0
 152 135 250 78 262 78 c 0
 265 78 267 81 267 93 c 0
 267 125 266 220 268 409 c 0
 268 423 267 423 251 423 c 0
 231 423 152 396 152 257 c 0
EndSplineSet
EndChar
StartChar: sterling
Encoding: 163 163 102
Width: 683
Flags: MW
LayerCount: 2
Back
Fore
SplineSet
20 40 m 0
 20 70 43 109 110 109 c 0
 160 109 208 77 216 77 c 0
 224 81 242 115 242 144 c 0
 242 200 190 282 179 300 c 0
 168 317 170 321 146 321 c 0
 129 321 101 320 40 320 c 0
 33 320 22 324 22 353 c 0
 22 382 30 386 40 386 c 2
 120 386 l 2
 141 386 144 386 144 387 c 0
 144 393 97 460 97 532 c 0
 97 672 233 728 358 728 c 0
 468 728 573 682 573 617 c 0
 573 592 533 563 513 563 c 0
 483 563 482 597 450 628 c 0
 428 656 380 673 332 673 c 0
 266 673 201 642 201 567 c 0
 201 503 237 444 258 406 c 0
 266 389 269 387 280 387 c 2
 463 387 l 2
 488 387 488 381 488 353 c 0
 488 330 486 321 461 321 c 2
 320 321 l 2
 310 321 294 320 294 317 c 0
 294 312 335 251 335 193 c 0
 335 120 279 65 275 59 c 1
 288 60 363 67 440 67 c 0
 604 67 628 155 648 155 c 0
 656 155 663 148 663 138 c 0
 663 99 617 -35 469 -35 c 0
 351 -35 231 26 221 31 c 0
 202 29 174 -26 96 -26 c 0
 45 -26 20 7 20 40 c 0
77 38 m 0
 77 28 95 16 123 16 c 0
 163 16 196 56 199 62 c 1
 193 59 149 53 116 53 c 0
 94 53 77 50 77 38 c 0
EndSplineSet
EndChar
StartChar: currency
Encoding: 164 164 106
Width: 585
Flags: MW
LayerCount: 2
Back
Fore
SplineSet
20 35 m 0
 20 50 31 60 42 71 c 2
 126 155 l 1
 88 185 67 221 67 262 c 0
 67 301 88 338 124 367 c 1
 42 450 l 2
 40 452 20 468 20 486 c 0
 20 505 36 518 52 518 c 0
 67 518 79 507 90 496 c 2
 175 411 l 1
 207 447 249 470 292 470 c 0
 339 470 379 446 410 411 c 1
 495 496 l 2
 497 498 514 517 532 517 c 0
 552 517 565 502 565 486 c 0
 565 472 554 461 543 450 c 2
 458 367 l 1
 494 337 519 300 519 260 c 0
 519 221 494 185 458 156 c 1
 543 71 l 2
 545 69 565 53 565 35 c 0
 565 16 548 2 532 2 c 0
 517 2 506 13 495 24 c 2
 410 110 l 1
 378 73 336 50 292 50 c 0
 249 50 207 71 175 108 c 1
 90 24 l 2
 88 22 70 3 52 3 c 0
 32 3 20 19 20 35 c 0
153 260 m 0
 153 189 216 134 292 134 c 0
 368 134 432 191 432 261 c 0
 432 330 369 390 292 390 c 0
 214 390 153 330 153 260 c 0
EndSplineSet
EndChar
StartChar: yen
Encoding: 165 165 95
Width: 830
Flags: MW
LayerCount: 2
Back
Fore
SplineSet
20 687 m 0
 20 710 32 713 82 713 c 0
 95 713 123 710 140 710 c 0
 163 710 222 712 250 712 c 0
 285 712 300 707 300 700 c 0
 300 679 258 684 258 665 c 0
 258 635 299 590 320 562 c 0
 368 497 422 423 430 423 c 2
 439 423 l 2
 455 423 470.074286718 446.30476302 522 504 c 0
 567 554 624 614 624 641 c 0
 624 700 550 667 550 701 c 0
 550 711 563 713 587 713 c 0
 602 713 621 712 642 712 c 0
 702 712 694 710 745 710 c 0
 782 710 810 709 810 695 c 0
 810 685 781 685 753 668 c 0
 695 633 632 563 574 495 c 2
 533 448 l 2
 517 430 506 423 506 419 c 0
 506 416 507 416 639 416 c 0
 646 416 656 407 656 381 c 0
 656 352 648 350 640 350 c 0
 499 350 515 349 484 349 c 0
 468 349 457 342 457 263 c 0
 457 254 458 252 467 252 c 0
 470 252 476 254 483 254 c 2
 624 254 l 2
 650 254 650 242 650 218 c 0
 650 198 649 185 621 185 c 0
 562 185 505 184 476 184 c 0
 459 184 457 182 457 172 c 0
 457 168 458 155 458 129 c 2
 458 108 l 2
 458 45 498 38 511 38 c 0
 514 38 528 32 531 32 c 0
 541 32 546 23 546 15 c 0
 546 -5 538 -7 525 -7 c 0
 482 -7 445 -6 412 -6 c 0
 355 -6 290 -13 273 -13 c 0
 247 -13 244 -5 244 6 c 0
 244 36 263 26 284 35 c 0
 304 40 325 56 325 90 c 0
 325 97 328 141 328 173 c 0
 328 184 326 185 311 185 c 2
 248 185 l 2
 213 185 183 186 173 186 c 0
 167 186 159 194 159 220 c 0
 159 249 165 252 172 252 c 2
 193 252 l 1
 292 252 l 1
 307 252 l 2
 325 252 330 254 330 266 c 0
 330 272 328 279 328 293 c 0
 328 319 319 346 301 348 c 0
 297 348 292 349 286 349 c 2
 186 349 l 2
 163 349 162 360 162 384 c 0
 162 404 163 416 188 416 c 0
 279 416 279 416 279 418 c 0
 279 420 274 427 265 440 c 2
 167 576 l 2
 104 664 74 667 45 667 c 0
 36 667 20 667 20 687 c 0
EndSplineSet
EndChar
StartChar: brokenbar
Encoding: 166 166 98
Width: 234
Flags: MW
LayerCount: 2
Back
Fore
SplineSet
78 -148 m 0
 78 -101 81 -124 81 176 c 0
 81 193 92 201 120 201 c 0
 148 201 152 193 152 176 c 0
 152 -151 153 -119 153 -171 c 0
 153 -190 152 -209 128 -209 c 0
 83 -209 78 -203 78 -148 c 0
86 414 m 2
 86 738 l 2
 86 755 95 762 123 762 c 0
 151 762 156 754 156 737 c 2
 156 391 l 2
 156 372 156 353 132 353 c 0
 87 353 86 359 86 414 c 2
EndSplineSet
EndChar
StartChar: section
Encoding: 167 167 105
Width: 602
Flags: MW
LayerCount: 2
Back
Fore
SplineSet
59 285 m 0
 59 401 182 407 182 416 c 0
 182 429 79 424 79 561 c 0
 79 659 171 729 291 729 c 0
 380 729 408 688 434 688 c 0
 438 688 450 699 459 699 c 0
 466 699 478 695 479 688 c 0
 487 641 501 564 501 550 c 0
 501 526 494 520 488 520 c 0
 454 520 475 607 376 655 c 0
 354 666 326 673 290 673 c 0
 203 673 194 611 194 575 c 0
 194 552 223.323413508 519.613456365 247 509 c 0
 349.95703125 462.84765625 543 475 543 276 c 0
 543 209 518.503968004 187.503968004 487 156 c 0
 458 127 450 136 450 129 c 0
 450 120 488.33466511 109.755154345 519 54 c 0
 530 34 537 13 537 -3 c 0
 537 -124 427 -193 288 -193 c 0
 228 -193 184 -189 111 -152 c 0
 85 -139 61 11 61 20 c 0
 61 36 69 46 84 46 c 0
 95 46 106 42 111 35 c 0
 115 26 162 -125 292 -125 c 0
 372 -125 402 -98 402 -21 c 0
 402 99 59 28 59 285 c 0
184 307 m 0
 184 272 201.578125 236.000976562 228 220 c 0
 259.833246874 200.721919352 391 157 396 157 c 0
 412 157 430 203 430 254 c 0
 430 296 416.38426528 326.324447334 349 350 c 2
 349 350 249 389 238 389 c 0
 226 389 184 369 184 307 c 0
EndSplineSet
EndChar
StartChar: dieresis
Encoding: 168 168 214
Width: 535
Flags: MW
LayerCount: 2
Back
Fore
SplineSet
103 591 m 0
 103 617 141 668 174 668 c 0
 209 668 246 621 246 591 c 0
 246 555 195 511 181 511 c 0
 137 511 103 567 103 591 c 0
311 591 m 0
 311 617 349 668 382 668 c 0
 417 668 454 621 454 591 c 0
 454 555 402 511 388 511 c 0
 344 511 311 567 311 591 c 0
EndSplineSet
EndChar
StartChar: copyright
Encoding: 169 169 142
Width: 871
Flags: MW
LayerCount: 2
Back
Fore
SplineSet
44 335 m 0
 44 534 216 703 438 703 c 0
 658 703 831 535 831 335 c 0
 831 138 661 -32 436 -32 c 0
 224 -32 44 128 44 335 c 0
107 334 m 0
 107 163 260 32 438 32 c 0
 614 32 768 161 768 335 c 0
 768 496 625 637 436 637 c 0
 251 637 107 499 107 334 c 0
185 321 m 0
 185 455 272 568 440 568 c 0
 533 568 605 506 613 506 c 0
 617 506 617 512 626 512 c 0
 645 512 638 495 649 433 c 0
 650 426 651 422 651 418 c 0
 651 411 648 404 638 404 c 0
 632 404 627 408 624 414 c 0
 589 475 534 516 455 516 c 0
 355 516 284 452 284 357 c 0
 284 279 324 155 485 155 c 0
 551 155 597 198 621 230 c 0
 638 253 632 266 651 266 c 0
 656 266 658 262 658 258 c 0
 658 240 650 194 645 168 c 0
 643 158 634 153 631 152 c 0
 578 128 536 99 455 99 c 0
 217 99 185 260 185 321 c 0
EndSplineSet
EndChar
StartChar: ordfeminine
Encoding: 170 170 130
Width: 359
Flags: MW
LayerCount: 2
Back
Fore
SplineSet
29 437 m 0
 29 502 111 511 208 525 c 0
 216 526 221 526 221 534 c 0
 221 546 222 553 222 563 c 0
 222 615 181 629 164 629 c 0
 126 629 121 610 121 596 c 0
 121 589 126 582 126 577 c 0
 126 568 116 566 104 566 c 0
 90 566 35 569 35 592 c 0
 35 627 103 666 177 666 c 0
 305 666 305 613 305 590 c 0
 305 511 299 521 299 476 c 0
 299 426 309 419 324 419 c 0
 330 419 329 420 337 420 c 0
 342 420 345 411 345 405 c 0
 345 388 337 383 324 383 c 2
 295 383 l 2
 249 383 233 437 229 437 c 0
 225 437 187 377 124 377 c 0
 74 377 29 389 29 437 c 0
118 465 m 0
 118 441 134 425 164 425 c 0
 221 425 221 461 221 480 c 2
 221 517 l 2
 221 521 219 522 217 522 c 0
 215 522 213 521 211 521 c 0
 172 515 118 510 118 465 c 0
EndSplineSet
EndChar
StartChar: guillemotleft
Encoding: 171 171 108
Width: 416
Flags: MW
LayerCount: 2
Back
Fore
SplineSet
20 215 m 0
 20 223 23 227 27 232 c 0
 202 415 200 415 206 415 c 0
 215 415 226 397 226 388 c 0
 226 370 133 232 133 217 c 0
 133 199 226 62 226 44 c 0
 226 33 214 17 205 17 c 0
 199 17 201 17 26 203 c 0
 22 206 20 209 20 215 c 0
179 215 m 0
 179 223 181 227 186 232 c 0
 360 415 358 415 365 415 c 0
 374 415 385 397 385 388 c 0
 385 371 290 234 290 217 c 0
 290 200 383 58 383 44 c 0
 383 33 374 17 365 17 c 0
 358 17 361 17 186 203 c 0
 182 206 179 209 179 215 c 0
EndSplineSet
EndChar
StartChar: logicalnot
Encoding: 172 172 143
Width: 550
Flags: MW
LayerCount: 2
Back
Fore
SplineSet
31 217 m 0
 31 243 42 243 51 243 c 2
 499 243 l 2
 517 243 520 241 520 222 c 2
 520 45 l 2
 520 34 516 28 496 28 c 0
 467 28 452 28 452 48 c 2
 452 159 l 2
 452 173 442 176 426 176 c 2
 50 176 l 2
 31 176 31 188 31 217 c 0
EndSplineSet
EndChar
StartChar: softhyphen
Encoding: 173 173 141
Width: 466
Flags: MW
LayerCount: 2
Back
Fore
SplineSet
44 119 m 2
 44 135 l 2
 44 198 62 200 130 220 c 0
 322 277 356 304 389 304 c 0
 416 304 422 280 422 253 c 2
 422 244 l 2
 422 185 406 195 276 153 c 0
 140 108 104 87 68 87 c 0
 46 87 44 101 44 119 c 2
EndSplineSet
EndChar
StartChar: registered
Encoding: 174 174 144
Width: 897
Flags: MW
LayerCount: 2
Back
Fore
SplineSet
44 335 m 0
 44 534 220 703 450 703 c 0
 677 703 857 535 857 335 c 0
 857 138 682 -32 449 -32 c 0
 230 -32 44 128 44 335 c 0
107 334 m 0
 107 163 268 32 456 32 c 0
 547 32 633 63 696 114 c 1
 683 115 660 118 640 126 c 0
 599 144 543 218 503 266 c 0
 471 305 455 311 446 311 c 2
 431 311 l 1
 383 311 l 2
 372 311 370 311 370 270 c 0
 370 188 372 196 372 188 c 0
 372 76 457 142 457 123 c 0
 457 117 453 114 442 114 c 0
 439 114 336 117 328 117 c 0
 290 117 250 115 241 115 c 0
 233 115 224 117 224 125 c 0
 224 147 283 86 283 188 c 0
 283 228 283 314 283 383 c 0
 283 448 283 470 283 487 c 0
 283 587 215 529 215 548 c 0
 215 556 221 558 238 558 c 2
 373 558 l 2
 408 558 427 561 455 561 c 0
 547 561 632 522 632 456 c 0
 632 363 514 347 514 337 c 0
 514 327 642 190 676 163 c 0
 678 161 696 146 722 138 c 1
 767 190 794 258 794 334 c 0
 794 496 646 637 449 637 c 0
 256 637 107 499 107 334 c 0
370 442 m 2
 370 367 370 356 376 353 c 0
 385 348 393 347 406 347 c 2
 413 347 l 1
 433 347 l 2
 518 347 543 386 543 427 c 0
 543 467 507 522 407 522 c 0
 371 522 370 511 370 459 c 2
 370 442 l 2
EndSplineSet
EndChar
StartChar: macron
Encoding: 175 175 126
Width: 545
Flags: MW
LayerCount: 2
Back
Fore
SplineSet
113 590 m 0
 113 613 127 619 137 619 c 0
 347 619 278 616 408 616 c 0
 426 616 431 613 431 572 c 0
 431 554 413 550 410 550 c 0
 383 550 182 552 128 552 c 0
 122 552 113 555 113 590 c 0
EndSplineSet
EndChar
StartChar: plusminus
Encoding: 177 177 146
Width: 549
Flags: MW
LayerCount: 2
Back
Fore
SplineSet
31 87 m 0
 31 114 31 128 50 128 c 2
 499 128 l 2
 515 128 518 121 518 98 c 0
 518 75 517 61 496 61 c 2
 49 61 l 2
 37 61 31 64 31 87 c 0
31 324 m 0
 31 342 34 357 49 357 c 2
 230 357 l 2
 239 357 241 361 241 367 c 2
 241 376 l 1
 241 506 l 2
 241 517 251 521 265 521 c 0
 301 521 307 518 307 504 c 2
 307 376 l 1
 307 368 l 2
 307 362 309 357 319 357 c 2
 502 357 l 2
 511 357 518 354 518 334 c 0
 518 304 518 289 497 289 c 2
 319 289 l 2
 309 289 307 283 307 274 c 2
 307 159 l 2
 307 148 298 146 283 146 c 0
 251 146 241 148 241 159 c 2
 241 274 l 2
 241 285 240 289 225 289 c 2
 48 289 l 2
 31 289 31 301 31 324 c 0
EndSplineSet
EndChar
StartChar: two.superior
Encoding: 178 178 147
Width: 369
Flags: MW
LayerCount: 2
Back
Fore
SplineSet
42 389 m 2
 42 391 l 2
 42 409 104 447 175 598 c 0
 191 632 202 674 202 709 c 0
 202 741 179 765 140 765 c 0
 81 765 64 732 52 732 c 0
 49 732 47 738 47 744 c 0
 47 753 88 843 183 843 c 0
 237 843 297 817 297 761 c 0
 297 656 137 485 137 474 c 0
 137 470 151 469 167 469 c 2
 184 469 l 2
 240 469 259.013088343 469.958709927 278 476 c 0
 300 483 316 505 327 505 c 0
 333 505 335 501 335 497 c 0
 335 491 278 397 278 397 c 2
 267 383 259 380 251 380 c 0
 169 380 165 383 132 383 c 0
 117 383 79 382 62 382 c 0
 43 382 42 385 42 389 c 2
EndSplineSet
EndChar
StartChar: three.superior
Encoding: 179 179 148
Width: 369
Flags: MW
LayerCount: 2
Back
Fore
SplineSet
40 432 m 0
 40 434 42 445 53 445 c 0
 62 445 74 419 127 419 c 0
 205 419 234 492 234 530 c 0
 234 570 213 611 141 611 c 0
 128 611 123 609 121 609 c 0
 114 609 113 614 113 617 c 0
 113 624 119 621 155 650 c 0
 176 667 189 693 189 715 c 0
 189 743 169 767 141 767 c 0
 106 767 81 735 71 735 c 0
 67 735 66 737 66 741 c 0
 66 770 132 835 178 835 c 0
 227 835 276 812 276 761 c 0
 276 716 248 694 204 668 c 0
 194 663 189 660 189 657 c 0
 189 653 219 655 261 635 c 0
 301 616 329 591 329 551 c 0
 329 449 244 375 150 375 c 0
 97 375 40 406 40 432 c 0
EndSplineSet
EndChar
StartChar: acute
Encoding: 180 180 215
Width: 513
Flags: MW
LayerCount: 2
Back
Fore
SplineSet
181 451 m 0
 181 472 216 491 294 679 c 0
 304 703 319 708 325 708 c 0
 331 708 403 701 403 669 c 0
 403 637 320 546 258 481 c 0
 236 457 211 434 199 434 c 0
 190 434 181 442 181 451 c 0
EndSplineSet
EndChar
StartChar: micro
Encoding: 181 181 149
Width: 624
Flags: MW
LayerCount: 2
Back
Fore
SplineSet
10 -159 m 0
 10 -54 54 41 85 170 c 0
 143 406 137 437 157 437 c 0
 159 437 208 433 208 412 c 0
 208 388 158 133 158 96 c 0
 158 81 162 60 180 60 c 0
 263 60 382 257 436 370 c 0
 478 437 461 437 487 437 c 0
 511 437 552 427 552 416 c 0
 552 402 459 142 459 94 c 0
 459 78 474 69 491 69 c 0
 542 69 554 138 580 138 c 0
 594 138 594 127 594 117 c 0
 594 66 511 -38 404 -38 c 0
 357 -38 349 0 349 44 c 0
 349 95 378 200 378 213 c 0
 378 218 376 220 375 220 c 0
 366 220 346 150 267 54 c 0
 229 7 176 -34 134 -34 c 0
 99 -34 95 31 91 31 c 0
 87 31 70 -50 70 -90 c 0
 70 -126 96 -169 96 -181 c 0
 96 -186 87 -215 49 -215 c 0
 22 -215 10 -197 10 -159 c 0
EndSplineSet
EndChar
StartChar: paragraph
Encoding: 182 182 216
Width: 621
Flags: MW
LayerCount: 2
Back
Fore
SplineSet
44 504 m 0
 44 640 186 721 299 721 c 0
 367 721 415 722 470 722 c 0
 493 722 519 726 547 726 c 2
 562 726 l 2
 567 726 574 718 574 715 c 0
 574 699 546 702 529 684 c 0
 521 675 516 658 516 617 c 0
 516 412 511 296 511 91 c 0
 511 -66 416 -193 267 -193 c 0
 234 -193 211 -191 182 -176 c 0
 177 -174 172 -157 172 -147 c 0
 172 -124 193 -73 210 -73 c 0
 236 -73 221 -147 310 -147 c 0
 391 -147 395 -16 395 56 c 0
 395 68 396 78 396 86 c 0
 396 150 392 211 392 299 c 0
 392 311 376 313 358 313 c 0
 227 313 44 330 44 504 c 0
319 504 m 0
 319 419 328 357 367 357 c 0
 378 357 394 363 394 375 c 2
 394 409 l 2
 394 449 390 483 390 518 c 0
 390 648 395 635 395 648 c 0
 395 675 388 687 367 687 c 0
 357 687 335 682 330 667 c 0
 319 633 319 624 319 504 c 0
430 504 m 0
 430 453 431 404 431 356 c 0
 431 193 436 63 436 30 c 0
 436 -36 431 -28 431 -43 c 0
 431 -50 432 -54 438 -54 c 0
 445 -54 475 17 475 123 c 0
 475 337 472 483 472 674 c 0
 472 685 461 692 450 692 c 0
 442 692 432 687 432 679 c 0
 430 616 430 557 430 504 c 0
EndSplineSet
EndChar
StartChar: periodcentered
Encoding: 183 183 116
Width: 300
Flags: MW
LayerCount: 2
Back
Fore
SplineSet
77 334 m 0
 77 354 117 415 150 415 c 0
 184 415 221 359 221 329 c 0
 221 293 164 246 150 246 c 0
 106 246 77 310 77 334 c 0
EndSplineSet
EndChar
StartChar: cedilla
Encoding: 184 184 128
Width: 464
Flags: MW
LayerCount: 2
Back
Fore
SplineSet
170 -58 m 0
 170 -52 181 -43 195 -31 c 0
 206 -22 216 -5 232 -5 c 0
 239 -5 297 -29 297 -97 c 0
 297 -198 210 -241 191 -241 c 0
 183 -241 180 -233 180 -230 c 0
 180 -215 222 -210 222 -148 c 0
 222 -82 170 -88 170 -58 c 0
EndSplineSet
EndChar
StartChar: one.superior
Encoding: 185 185 150
Width: 365
Flags: MW
LayerCount: 2
Back
Fore
SplineSet
82 769 m 0
 82 790 117 788 178 812 c 0
 206 823 219 838 231 838 c 0
 243 838 243 829 243 824 c 0
 243 819 240 801 240 794 c 0
 238 769 234 716 234 594 c 0
 234 533 231 496 231 475 c 0
 231 403 254 433 291 429 c 0
 298 427 303 424 303 409 c 0
 303 394 285 390 263 390 c 0
 241 390 220 392 192 392 c 0
 161 392 128 389 107 389 c 0
 93 389 85 393 85 407 c 0
 85 427 97 429 107 429 c 0
 128 429 139 430 142 453 c 0
 147 490 148 553 148 613 c 0
 148 732 150 721 150 733 c 0
 150 755 146 769 128 769 c 0
 112 769 106 757 90 757 c 0
 89 757 82 761 82 769 c 0
EndSplineSet
EndChar
StartChar: ordmasculine
Encoding: 186 186 134
Width: 422
Flags: MW
LayerCount: 2
Back
Fore
SplineSet
29 518 m 0
 29 590 91 663 213 663 c 0
 304 663 393 614 393 521 c 0
 393 425 300 377 207 377 c 0
 89 377 29 447 29 518 c 0
118 539 m 0
 118 457 175 413 226 413 c 0
 268 413 307 442 307 506 c 0
 307 566 272 632 198 632 c 0
 163 632 118 608 118 539 c 0
EndSplineSet
EndChar
StartChar: guillemotright
Encoding: 187 187 121
Width: 435
Flags: MW
LayerCount: 2
Back
Fore
SplineSet
39 44 m 0
 39 61 134 205 134 214 c 0
 134 231 41 374 41 388 c 0
 41 399 50 415 59 415 c 0
 66 415 63 415 238 229 c 0
 242 226 245 221 245 215 c 0
 245 207 241 205 236 200 c 0
 62 17 66 17 59 17 c 0
 50 17 39 35 39 44 c 0
190 44 m 0
 190 62 302 199 302 214 c 0
 302 232 191 379 191 388 c 0
 191 399 203 415 212 415 c 0
 219 415 216 415 407 229 c 0
 411 226 415 221 415 215 c 0
 415 207 410 205 406 200 c 0
 215 17 219 17 212 17 c 0
 203 17 190 35 190 44 c 0
EndSplineSet
EndChar
StartChar: onequarter
Encoding: 188 188 151
Width: 968
Flags: MW
LayerCount: 2
Back
Fore
SplineSet
82 592 m 0
 82 613 117 611 178 635 c 0
 206 646 219 661 231 661 c 0
 243 661 243 652 243 647 c 0
 243 642 240 624 240 617 c 0
 238 592 234 539 234 417 c 0
 234 356 231 319 231 298 c 0
 231 226 254 256 291 252 c 0
 298 250 303 247 303 232 c 0
 303 217 285 213 263 213 c 0
 241 213 220 215 192 215 c 0
 161 215 128 212 107 212 c 0
 93 212 85 216 85 230 c 0
 85 250 97 252 107 252 c 0
 128 252 139 253 142 276 c 0
 147 313 148 376 148 436 c 0
 148 555 150 544 150 556 c 0
 150 578 146 592 128 592 c 0
 112 592 106 580 90 580 c 0
 89 580 82 584 82 592 c 0
196 -72 m 0
 196 -56 587 523 653 622 c 0
 653 623 678 650 692 650 c 0
 702 650 719 642 719 637 c 0
 719 630 714.23046875 620.854492188 711 616 c 4
 301 0 237 -85 224 -89 c 0
 221 -90 217 -91 214 -91 c 0
 197 -91 196 -82 196 -72 c 0
595 130 m 0
 595 146 603 156 795 390 c 0
 818 417 838 451 854 451 c 0
 861 451 866 447 866 439 c 0
 866 435 859 244 859 216 c 0
 859 204 859 202 867 202 c 0
 909 202 906 219 919 219 c 0
 921 219 926 218 926 207 c 0
 926 195 922 181 919 164 c 0
 918 156 917 120 904 120 c 0
 894 120 876 122 868 122 c 0
 860 122 856 119 856 111 c 0
 856 90 859 69 859 31 c 2
 859 -22 l 2
 859 -52 858 -48 818 -54 c 0
 802 -56 785 -57 781 -57 c 0
 763 -57 757 -47 757 -42 c 0
 757 -36 776 -16 776 118 c 0
 776 121 772 122 768 122 c 0
 760 122 768 120 685 120 c 0
 658 120 633 119 613 119 c 0
 600 119 595 120 595 130 c 0
678 204 m 4
 678 200 686 198 696 198 c 6
 759 198 l 2
 775 198 776 200 776 205 c 2
 776 211 l 2
 776 214 780 278 780 313 c 0
 780 324 779 329 777 329 c 0
 773 329 678 218 678 204 c 4
EndSplineSet
EndChar
StartChar: onehalf
Encoding: 189 189 152
Width: 953
Flags: MW
LayerCount: 2
Back
Fore
SplineSet
82 592 m 0
 82 613 117 611 178 635 c 0
 206 646 219 661 231 661 c 0
 243 661 243 652 243 647 c 0
 243 642 240 624 240 617 c 0
 238 592 234 539 234 417 c 0
 234 356 231 319 231 298 c 0
 231 226 254 256 291 252 c 0
 298 250 303 247 303 232 c 0
 303 217 285 213 263 213 c 0
 241 213 220 215 192 215 c 0
 161 215 128 212 107 212 c 0
 93 212 85 216 85 230 c 0
 85 250 97 252 107 252 c 0
 128 252 139 253 142 276 c 0
 147 313 148 376 148 436 c 0
 148 555 150 544 150 556 c 0
 150 578 146 592 128 592 c 0
 112 592 106 580 90 580 c 0
 89 580 82 584 82 592 c 0
196 -72 m 0
 196 -56 587 523 653 622 c 0
 653 623 678 650 692 650 c 0
 702 650 719 642 719 637 c 0
 719 630 714.23046875 620.854492188 711 616 c 4
 301 0 237 -85 224 -89 c 0
 221 -90 217 -91 214 -91 c 0
 197 -91 196 -82 196 -72 c 0
618 3 m 2
 618 5 l 2
 618 23 680 61 751 212 c 0
 767 246 778 288 778 323 c 0
 778 355 755 379 716 379 c 0
 657 379 640 346 628 346 c 0
 625 346 623 352 623 358 c 0
 623 367 664 457 759 457 c 0
 813 457 873 431 873 375 c 0
 873 270 713 99 713 88 c 0
 713 84 727 83 743 83 c 2
 760 83 l 6
 816 83 835.012695312 83.958984375 854 90 c 0
 876 97 892 119 903 119 c 0
 909 119 911 115 911 111 c 0
 911 105 854 11 854 11 c 2
 843 -3 835 -6 827 -6 c 0
 745 -6 741 -3 708 -3 c 0
 693 -3 655 -4 638 -4 c 0
 619 -4 618 -1 618 3 c 2
EndSplineSet
EndChar
StartChar: threequarters
Encoding: 190 190 153
Width: 968
Flags: MW
LayerCount: 2
Back
Fore
SplineSet
40 255 m 0
 40 257 42 268 53 268 c 0
 62 268 74 242 127 242 c 0
 205 242 234 315 234 353 c 0
 234 393 213 434 141 434 c 0
 128 434 123 432 121 432 c 0
 114 432 113 437 113 440 c 0
 113 447 119 444 155 473 c 0
 176 490 189 516 189 538 c 0
 189 566 169 590 141 590 c 0
 106 590 81 558 71 558 c 0
 67 558 66 560 66 564 c 0
 66 593 132 658 178 658 c 0
 227 658 276 635 276 584 c 0
 276 539 248 517 204 491 c 4
 194 486 189 483 189 480 c 4
 189 476 219 478 261 458 c 0
 301 439 329 414 329 374 c 0
 329 272 244 198 150 198 c 0
 97 198 40 229 40 255 c 0
196 -72 m 0
 196 -56 587 523 653 622 c 0
 653 623 678 650 692 650 c 0
 702 650 719 642 719 637 c 0
 719 630 714.23046875 620.854492188 711 616 c 4
 301 0 237 -85 224 -89 c 0
 221 -90 217 -91 214 -91 c 0
 197 -91 196 -82 196 -72 c 0
595 130 m 0
 595 146 603 156 795 390 c 0
 818 417 838 451 854 451 c 0
 861 451 866 447 866 439 c 0
 866 435 859 244 859 216 c 0
 859 204 859 202 867 202 c 0
 909 202 906 219 919 219 c 0
 921 219 926 218 926 207 c 0
 926 195 922 181 919 164 c 0
 918 156 917 120 904 120 c 0
 894 120 876 122 868 122 c 0
 860 122 856 119 856 111 c 0
 856 90 859 69 859 31 c 2
 859 -22 l 2
 859 -52 858 -48 818 -54 c 0
 802 -56 785 -57 781 -57 c 0
 763 -57 757 -47 757 -42 c 0
 757 -36 776 -16 776 118 c 0
 776 121 772 122 768 122 c 0
 760 122 768 120 685 120 c 0
 658 120 633 119 613 119 c 0
 600 119 595 120 595 130 c 0
678 204 m 4
 678 200 686 198 696 198 c 6
 759 198 l 2
 775 198 776 200 776 205 c 2
 776 211 l 2
 776 214 780 278 780 313 c 0
 780 324 779 329 777 329 c 0
 773 329 678 218 678 204 c 4
EndSplineSet
EndChar
StartChar: questiondown
Encoding: 191 191 124
Width: 409
Flags: MW
LayerCount: 2
Back
Fore
SplineSet
36 89 m 0
 36 183 219 283 219 385 c 0
 219 403 210 419 210 429 c 0
 210 435 213 439 222 439 c 0
 255 439 270 387 270 367 c 0
 270 303 162 176 162 119 c 0
 162 66 235 47 263 47 c 0
 296 47 315 71 324 71 c 0
 331 71 333 62 333 58 c 0
 333 34 278 -21 204 -21 c 0
 122 -21 36 16 36 89 c 0
144 603 m 0
 144 629 172 638 185 655 c 0
 199 673 211 708 226 708 c 0
 236 708 262 678 274 658 c 0
 284 640 311 627 311 606 c 0
 311 592 287 564 270 544 c 0
 255 526 240 496 224 496 c 0
 212 496 190 543 185 549 c 0
 180 555 144 588 144 603 c 0
EndSplineSet
EndChar
StartChar: Acircumflex
Encoding: 194 194 156
Width: 987
Flags: MW
LayerCount: 2
Back
Fore
SplineSet
20 13 m 0
 20 28 27 37 38 41 c 0
 109 63 101 82 465 701 c 0
 476 721 482 724 502 724 c 0
 528 724 511 722 590 563 c 0
 648 447 823.506835938 121.31640625 831 104 c 0
 876 0 967 49 967 13 c 0
 967 8 964 -2 929 -2 c 0
 897 -2 842 4 803 4 c 0
 752 4 713 0 672 0 c 0
 613 0 605 2 605 13 c 0
 605 33 655 22 655 56 c 0
 655 85 609 194 588 228 c 0
 584 235 580 243 547 243 c 0
 526 243 491 240 426 240 c 2
 373 240 l 2
 311 240 280.377929688 235.806640625 269 214 c 0
 233 145 205 98 205 73 c 0
 205 0 279 40 279 12 c 0
 279 5 277 -1 256 -1 c 0
 235 -1 206 0 159 0 c 0
 107 0 88 -5 59 -5 c 0
 35 -5 20 -2 20 13 c 0
334 333 m 0
 334 321 351 320 393 320 c 2
 424 320 l 2
 468 320 519 322 519 322 c 2
 544.98828125 322.546875 546 324 546 332 c 0
 546 340 460 516 441 516 c 0
 428 516 334 341 334 333 c 0
323 745 m 0
 323 747 326 752 329 757 c 0
 459 914 444 930 470 930 c 2
 508 930 l 2
 517 930 524 930 533 916 c 0
 590 832 662 759 662 747 c 0
 662 737 650 737 646 737 c 0
 626 737 501 822 491 822 c 0
 471 822 359 738 338 738 c 0
 334 738 323 739 323 745 c 0
EndSplineSet
EndChar
StartChar: Atilde
Encoding: 195 195 157
Width: 987
Flags: MW
LayerCount: 2
Back
Fore
SplineSet
20 13 m 0
 20 28 27 37 38 41 c 0
 109 63 101 82 465 701 c 0
 476 721 482 724 502 724 c 0
 528 724 511 722 590 563 c 0
 648 447 823.506835938 121.31640625 831 104 c 0
 876 0 967 49 967 13 c 0
 967 8 964 -2 929 -2 c 0
 897 -2 842 4 803 4 c 0
 752 4 713 0 672 0 c 0
 613 0 605 2 605 13 c 0
 605 33 655 22 655 56 c 0
 655 85 609 194 588 228 c 0
 584 235 580 243 547 243 c 0
 526 243 491 240 426 240 c 2
 373 240 l 2
 311 240 280.377929688 235.806640625 269 214 c 0
 233 145 205 98 205 73 c 0
 205 0 279 40 279 12 c 0
 279 5 277 -1 256 -1 c 0
 235 -1 206 0 159 0 c 0
 107 0 88 -5 59 -5 c 0
 35 -5 20 -2 20 13 c 0
258 783 m 0
 258 807 336 939 404 939 c 0
 478 939 517 867 591 867 c 0
 641 867 670 947 684 947 c 0
 690 947 699 944 699 929 c 0
 699 902 623 779 555 779 c 0
 480 779 432 852 366 852 c 0
 314 852 287 771 273 771 c 0
 267 771 258 773 258 783 c 0
334 333 m 0
 334 321 351 320 393 320 c 2
 424 320 l 2
 468 320 519 322 519 322 c 2
 544.98828125 322.546875 546 324 546 332 c 0
 546 340 460 516 441 516 c 0
 428 516 334 341 334 333 c 0
EndSplineSet
EndChar
StartChar: Aring
Encoding: 197 197 159
Width: 987
Flags: MW
LayerCount: 2
Back
Fore
SplineSet
20 13 m 0
 20 28 27 37 38 41 c 0
 109 63 101 82 465 701 c 0
 476 721 482 724 502 724 c 0
 528 724 511 722 590 563 c 0
 648 447 823.506835938 121.31640625 831 104 c 0
 876 0 967 49 967 13 c 0
 967 8 964 -2 929 -2 c 0
 897 -2 842 4 803 4 c 0
 752 4 713 0 672 0 c 0
 613 0 605 2 605 13 c 0
 605 33 655 22 655 56 c 0
 655 85 609 194 588 228 c 0
 584 235 580 243 547 243 c 0
 526 243 491 240 426 240 c 2
 373 240 l 2
 311 240 280.377929688 235.806640625 269 214 c 0
 233 145 205 98 205 73 c 0
 205 0 279 40 279 12 c 0
 279 5 277 -1 256 -1 c 0
 235 -1 206 0 159 0 c 0
 107 0 88 -5 59 -5 c 0
 35 -5 20 -2 20 13 c 0
334 333 m 0
 334 321 351 320 393 320 c 2
 424 320 l 2
 468 320 519 322 519 322 c 2
 544.98828125 322.546875 546 324 546 332 c 0
 546 340 460 516 441 516 c 0
 428 516 334 341 334 333 c 0
401 855 m 0
 401 891 440 942 498 942 c 0
 567 942 591 882 591 850 c 0
 591 787 515 763 497 763 c 0
 412 763 401 829 401 855 c 0
458 853 m 0
 458 835 474 823 497 823 c 0
 504 823 534 828 534 852 c 0
 534 863 529 882 497 882 c 0
 479 882 458 869 458 853 c 0
EndSplineSet
EndChar
StartChar: AE
Encoding: 198 198 129
Width: 1123
Flags: MW
LayerCount: 2
Back
Fore
SplineSet
20 -2 m 0
 20 16 31 23 39 26 c 0
 107 47 101 68 461 640 c 0
 467 650 467 657 467 659 c 0
 467 672 436 676 415 678 c 0
 399 680 392 690 392 706 c 0
 392 727 414 729 425 729 c 0
 473 729 636 718 818 718 c 0
 862 718 1003 723 1036 723 c 0
 1044 723 1056 720 1056 697 c 0
 1056 675 1045 639 1045 584 c 0
 1045 571 1033 560 1021 560 c 0
 1009 560 998 566 998 579 c 0
 998 611 972 643 938 645 c 0
 874 650 857 651 802 651 c 2
 776 651 l 2
 706 651 707 650 704 595 c 0
 701 562 700 485 700 443 c 0
 700 427 700 397 718 396 c 2
 743 396 l 1
 786 396 l 1
 817 396 l 2
 903 396 913 401 932 413 c 0
 965 433 948 463 970 463 c 0
 982 463 983 458 983 445 c 0
 983 425 974 369 974 331 c 0
 974 294 978 286 978 265 c 0
 978 239 974 238 971 238 c 0
 944 238 951 293 924 311 c 0
 903 325 831 324 827 324 c 0
 740 324 751 326 740 326 c 0
 719 326 698 324 698 309 c 0
 698 257 696 228 696 176 c 2
 696 139 l 2
 696 109 702 71 720 66 c 0
 743 60 748 59 764 59 c 0
 1123 59 1060 143 1090 143 c 0
 1096 143 1103 137 1103 124 c 0
 1103 57 1016 -22 972 -22 c 0
 831 -22 736 -7 669 -7 c 0
 608 -7 572 -20 518 -20 c 0
 507 -20 496 -21 496 -5 c 0
 496 35 497 11 539 41 c 0
 570 55 578 78 578 218 c 2
 578 243 l 2
 578 247 577 248 572 248 c 0
 555 248 522 251 488 251 c 2
 457 251 l 2
 424 251 400 252 381 252 c 0
 326 252 299 245 288 223 c 0
 246 143 210 93 210 62 c 0
 210 0 287 28 287 0 c 0
 287 -13 279 -16 264 -16 c 0
 243 -16 221 -14 174 -14 c 0
 122 -14 88 -20 59 -20 c 0
 35 -20 20 -17 20 -2 c 0
363 348 m 0
 363 333 372 333 413 333 c 2
 504 333 l 2
 573 333 577 334 577 360 c 2
 577 576 l 2
 577 607 576 639 545 639 c 0
 535 639 528 634 518 619 c 0
 475 551 363 361 363 348 c 0
EndSplineSet
EndChar
StartChar: Ccedilla
Encoding: 199 199 160
Width: 854
Flags: MW
LayerCount: 2
Back
Fore
SplineSet
44 322 m 0
 44 541 184 724 449 724 c 0
 596 724 716 631 726 631 c 0
 733 631 739 641 748 641 c 0
 754 641 764 636 764 625 c 0
 766 561 779 502 779 490 c 0
 779 475 771 473 767 473 c 0
 761 473 754 479 750 486 c 0
 692 591 600 662 470 662 c 0
 305 662 185 550 185 383 c 0
 185 208 274 38 517 38 c 0
 641 38 719 124 759 183 c 0
 763 190 767 189 774 189 c 0
 780 189 783 182 783 174 c 0
 783 148 768 90 764 67 c 0
 762 57 756 52 747 48 c 0
 654 2 582 -32 471 -32 c 0
 148 -32 44 160 44 322 c 0
398 -58 m 0
 398 -52 409 -43 423 -31 c 0
 434 -22 444 -5 460 -5 c 0
 467 -5 525 -29 525 -97 c 0
 525 -198 438 -241 419 -241 c 0
 411 -241 408 -233 408 -230 c 0
 408 -215 450 -210 450 -148 c 0
 450 -82 398 -88 398 -58 c 0
EndSplineSet
EndChar
StartChar: Icircumflex
Encoding: 206 206 167
Width: 366
Flags: MW
LayerCount: 2
Back
Fore
SplineSet
20 688 m 0
 20 698 24 710 52 710 c 0
 84 710 118 704 182 704 c 0
 231 704 211 707 283 707 c 0
 291 707 314 705 314 686 c 0
 314 673 297 664 269 646 c 0
 242 636 238 574 238 537 c 0
 238 315 233 275 233 188 c 0
 233 130 239 100 258 74 c 0
 279 47 296 45 306 45 c 0
 309 45 323 44 326 44 c 0
 336 44 347 35 347 27 c 0
 347 3 338 0 319 0 c 0
 258 0 248 6 210 6 c 0
 151 6 126 -2 85 -2 c 0
 38 -2 34 5 34 13 c 0
 34 39 85 -2 108 76 c 0
 110.33203125 83.9091796875 119 270 119 337 c 2
 119 393 l 2
 119 421 120 459 120 499 c 2
 120 544 l 2
 120 569 119 593 116 615 c 0
 111 650 69 664 41 665 c 0
 21 667 20 680 20 688 c 0
37 745 m 0
 37 747 40 752 43 757 c 0
 173 914 158 930 184 930 c 2
 222 930 l 2
 231 930 238 930 247 916 c 0
 304 832 376 759 376 747 c 0
 376 737 364 737 360 737 c 0
 340 737 215 822 205 822 c 0
 185 822 73 738 52 738 c 0
 48 738 37 739 37 745 c 0
EndSplineSet
EndChar
StartChar: Idieresis
Encoding: 207 207 168
Width: 366
Flags: MW
LayerCount: 2
Back
Fore
SplineSet
20 688 m 0
 20 698 24 710 52 710 c 0
 84 710 118 704 182 704 c 0
 231 704 211 707 283 707 c 0
 291 707 314 705 314 686 c 0
 314 673 297 664 269 646 c 0
 242 636 238 574 238 537 c 0
 238 315 233 275 233 188 c 0
 233 130 239 100 258 74 c 0
 279 47 296 45 306 45 c 0
 309 45 323 44 326 44 c 0
 336 44 347 35 347 27 c 0
 347 3 338 0 319 0 c 0
 258 0 248 6 210 6 c 0
 151 6 126 -2 85 -2 c 0
 38 -2 34 5 34 13 c 0
 34 39 85 -2 108 76 c 0
 110.33203125 83.9091796875 119 270 119 337 c 2
 119 393 l 2
 119 421 120 459 120 499 c 2
 120 544 l 2
 120 569 119 593 116 615 c 0
 111 650 69 664 41 665 c 0
 21 667 20 680 20 688 c 0
33 855 m 0
 33 881 71 932 104 932 c 0
 139 932 176 885 176 855 c 0
 176 819 125 775 111 775 c 0
 67 775 33 831 33 855 c 0
241 855 m 0
 241 881 279 932 312 932 c 0
 347 932 384 885 384 855 c 0
 384 819 332 775 318 775 c 0
 274 775 241 831 241 855 c 0
EndSplineSet
EndChar
StartChar: Eth
Encoding: 208 208 169
Width: 878
Flags: MW
LayerCount: 2
Back
Fore
SplineSet
20 702 m 0
 20 720 30 721 77 721 c 2
 174 721 l 2
 233 721 316 727 392 727 c 0
 593 727 834 613 834 391 c 0
 834 191 769 129 672 55 c 0
 635 27 542 -13 443 -13 c 0
 416 -13 255 -6 174 -6 c 0
 107 -6 84 -13 62 -13 c 0
 38 -13 35 -5 35 7 c 0
 35 34 50 30 70 42 c 0
 91 50 112 78 112 102 c 0
 112 184 114 248 114 313 c 0
 114 324 112 328 100 328 c 2
 35 328 l 2
 30 328 23 337 23 363 c 0
 23 392 29 394 35 394 c 0
 55 394 49 395 100 395 c 0
 114 395 114 399 114 411 c 0
 114 470 112 520 112 616 c 0
 112 636 87 664 60 666 c 0
 39 668 20 668 20 702 c 0
239 142 m 0
 239 62 250 74 330 52 c 0
 351 46 377 43 403 43 c 2
 423 43 l 2
 516 43 575 68 632 121 c 0
 688 173 706 269 706 344 c 0
 706 561 518 661 363 661 c 0
 244 661 244 660 244 544 c 0
 244 521 242 459 242 415 c 0
 242 399 242 395 263 395 c 2
 414 395 l 2
 434 395 435 384 435 360 c 0
 435 340 434 328 412 328 c 0
 370 328 308 326 262 326 c 2
 252 326 l 2
 242 326 240 325 240 315 c 2
 240 311 l 2
 240 244 239 175 239 142 c 0
EndSplineSet
EndChar
StartChar: Ograve
Encoding: 210 210 171
Width: 938
Flags: MW
LayerCount: 2
Back
Fore
SplineSet
44 338 m 0
 44 559 191 732 474 732 c 0
 810 732 894 497 894 392 c 0
 894 103 701 -28 458 -28 c 0
 182 -28 44 153 44 338 c 0
176 389 m 0
 176 266 267 39 493 39 c 0
 604 39 771 124 771 302 c 0
 771 546 617 671 441 671 c 0
 307 671 176 586 176 389 c 0
308 933 m 0
 308 965 382 972 388 972 c 0
 394 972 407 967 418 943 c 0
 496 755 532 736 532 715 c 0
 532 706 523 698 514 698 c 0
 502 698 478 721 455 745 c 0
 393 810 308 901 308 933 c 0
EndSplineSet
EndChar
StartChar: Oacute
Encoding: 211 211 172
Width: 938
Flags: MW
LayerCount: 2
Back
Fore
SplineSet
44 338 m 0
 44 559 191 732 474 732 c 0
 810 732 894 497 894 392 c 0
 894 103 701 -28 458 -28 c 0
 182 -28 44 153 44 338 c 0
176 389 m 0
 176 266 267 39 493 39 c 0
 604 39 771 124 771 302 c 0
 771 546 617 671 441 671 c 0
 307 671 176 586 176 389 c 0
380 715 m 0
 380 736 415 755 493 943 c 0
 503 967 518 972 524 972 c 0
 530 972 602 965 602 933 c 0
 602 901 519 810 457 745 c 0
 435 721 410 698 398 698 c 0
 389 698 380 706 380 715 c 0
EndSplineSet
EndChar
StartChar: Ocircumflex
Encoding: 212 212 173
Width: 938
Flags: MW
LayerCount: 2
Back
Fore
SplineSet
44 338 m 0
 44 559 191 732 474 732 c 0
 810 732 894 497 894 392 c 0
 894 103 701 -28 458 -28 c 0
 182 -28 44 153 44 338 c 0
176 389 m 0
 176 266 267 39 493 39 c 0
 604 39 771 124 771 302 c 0
 771 546 617 671 441 671 c 0
 307 671 176 586 176 389 c 0
306 745 m 0
 306 747 309 752 312 757 c 0
 442 914 427 930 453 930 c 2
 491 930 l 2
 500 930 507 930 516 916 c 0
 573 832 645 759 645 747 c 0
 645 737 633 737 629 737 c 0
 609 737 484 822 474 822 c 0
 454 822 342 738 321 738 c 0
 317 738 306 739 306 745 c 0
EndSplineSet
EndChar
StartChar: Otilde
Encoding: 213 213 174
Width: 938
Flags: MW
LayerCount: 2
Back
Fore
SplineSet
44 338 m 0
 44 559 191 732 474 732 c 0
 810 732 894 497 894 392 c 0
 894 103 701 -28 458 -28 c 0
 182 -28 44 153 44 338 c 0
176 389 m 0
 176 266 267 39 493 39 c 0
 604 39 771 124 771 302 c 0
 771 546 617 671 441 671 c 0
 307 671 176 586 176 389 c 0
271 783 m 0
 271 807 349 939 417 939 c 0
 491 939 530 867 604 867 c 0
 654 867 683 947 697 947 c 0
 703 947 712 944 712 929 c 0
 712 902 636 779 568 779 c 0
 493 779 445 852 379 852 c 0
 327 852 300 771 286 771 c 0
 280 771 271 773 271 783 c 0
EndSplineSet
EndChar
StartChar: Odieresis
Encoding: 214 214 175
Width: 938
Flags: MW
LayerCount: 2
Back
Fore
SplineSet
44 338 m 0
 44 559 191 732 474 732 c 0
 810 732 894 497 894 392 c 0
 894 103 701 -28 458 -28 c 0
 182 -28 44 153 44 338 c 0
176 389 m 0
 176 266 267 39 493 39 c 0
 604 39 771 124 771 302 c 0
 771 546 617 671 441 671 c 0
 307 671 176 586 176 389 c 0
302 855 m 0
 302 881 340 932 373 932 c 0
 408 932 445 885 445 855 c 0
 445 819 394 775 380 775 c 0
 336 775 302 831 302 855 c 0
510 855 m 0
 510 881 548 932 581 932 c 0
 616 932 653 885 653 855 c 0
 653 819 601 775 587 775 c 0
 543 775 510 831 510 855 c 0
EndSplineSet
EndChar
StartChar: multiply
Encoding: 215 215 176
Width: 564
Flags: MW
LayerCount: 2
Back
Fore
SplineSet
88 374 m 0
 88 382 109 403 119 403 c 0
 123 403 128 400 134 395 c 2
 263 280 l 2
 270 274 276 268 284 268 c 0
 287 268 292 269 296 273 c 2
 434 398 l 2
 438 402 444 404 447 404 c 0
 455 404 475 384 475 375 c 0
 475 371 472 365 466 358 c 2
 345 224 l 2
 340 218 337 213 337 210 c 0
 337 206 341 200 345 196 c 2
 469 58 l 2
 474 52 475 48 475 45 c 0
 475 36 454 15 446 15 c 0
 443 15 438 17 432 22 c 2
 296 146 l 2
 290 151 285 153 281 153 c 0
 275 153 272 149 264 142 c 2
 131 22 l 2
 125 17 121 15 118 15 c 0
 110 15 89 35 89 44 c 0
 89 48 92 52 97 58 c 2
 217 193 l 2
 223 200 226 206 226 210 c 0
 226 216 223 220 219 224 c 2
 95 362 l 2
 91 366 88 371 88 374 c 0
EndSplineSet
EndChar
StartChar: Oslash
Encoding: 216 216 132
Width: 960
Flags: MW
LayerCount: 2
Back
Fore
SplineSet
44 339 m 0
 44 560 190 732 473 732 c 0
 557 732 592 711 608 711 c 0
 617 711 622 716 629 729 c 2
 661 795 l 2
 665 804 670 818 684 818 c 0
 687 818 696 814 698 814 c 0
 709 811 712 809 712 800 c 0
 712 798 712 794 711 790 c 2
 680 723 l 2
 677 716 673 709 673 704 c 0
 673 700 674 696 686 691 c 0
 864 620 916 469 916 391 c 0
 916 102 731 -28 496 -28 c 0
 416 -28 376 -4 362 -4 c 0
 353 -4 348 -8 343 -20 c 2
 296 -119 l 2
 288 -129 287 -132 273 -132 c 0
 256 -132 231 -127 231 -115 c 0
 231 -113 231 -107 235 -102 c 2
 301 -2 l 2
 302 1 304 4 304 6 c 0
 304 18 288 14 234 44 c 0
 108 113 44 225 44 339 c 0
176 389 m 0
 176 231 303 103 323 103 c 0
 327 103 330 105 333 112 c 2
 587 610 l 2
 592 620 598 627 598 634 c 0
 598 655 505 671 456 671 c 0
 315 671 176 586 176 389 c 0
380 78 m 0
 380 63 453 39 515 39 c 0
 626 39 793 124 793 302 c 0
 793 534 648 617 645 617 c 0
 636 617 634 603 387 94 c 0
 383 87 380 82 380 78 c 0
EndSplineSet
EndChar
StartChar: Uacute
Encoding: 218 218 178
Width: 881
Flags: MW
LayerCount: 2
Back
Fore
SplineSet
20 702 m 0
 20 712 20 721 47 721 c 0
 80 721 113 715 179 715 c 0
 234 715 201 718 289 718 c 0
 300 718 314 717 314 704 c 0
 314 670 244 717 244 590 c 2
 244 562 l 2
 244 475 243 406 243 347 c 0
 243 210 243 40 475 40 c 0
 587 40 734 41 734 326 c 0
 734 490 732 490 732 531 c 0
 732 583 732 637 697 660 c 0
 673 686 635 670 635 694 c 0
 635 706 639 718 657 718 c 0
 670 718 731 715 743 715 c 0
 790 715 817 720 838 720 c 0
 861 720 861 711 861 706 c 0
 861 689 824 684 813 662 c 0
 804 644 802 632 802 594 c 0
 802 576 803 555 803 524 c 0
 803 130 760 45 624 -9 c 0
 584 -24 504 -32 466 -32 c 0
 331 -32 257 -12 204 33 c 0
 116 107 114 199 114 406 c 2
 114 423 l 2
 114 493 117 538 117 569 c 0
 117 639 111 663 42 673 c 0
 21 677 20 694 20 702 c 0
398 715 m 0
 398 736 433 755 511 943 c 0
 521 967 536 972 542 972 c 0
 548 972 620 965 620 933 c 0
 620 901 537 810 475 745 c 0
 453 721 428 698 416 698 c 0
 407 698 398 706 398 715 c 0
EndSplineSet
EndChar
StartChar: Ucircumflex
Encoding: 219 219 179
Width: 881
Flags: MW
LayerCount: 2
Back
Fore
SplineSet
20 702 m 0
 20 712 20 721 47 721 c 0
 80 721 113 715 179 715 c 0
 234 715 201 718 289 718 c 0
 300 718 314 717 314 704 c 0
 314 670 244 717 244 590 c 2
 244 562 l 2
 244 475 243 406 243 347 c 0
 243 210 243 40 475 40 c 0
 587 40 734 41 734 326 c 0
 734 490 732 490 732 531 c 0
 732 583 732 637 697 660 c 0
 673 686 635 670 635 694 c 0
 635 706 639 718 657 718 c 0
 670 718 731 715 743 715 c 0
 790 715 817 720 838 720 c 0
 861 720 861 711 861 706 c 0
 861 689 824 684 813 662 c 0
 804 644 802 632 802 594 c 0
 802 576 803 555 803 524 c 0
 803 130 760 45 624 -9 c 0
 584 -24 504 -32 466 -32 c 0
 331 -32 257 -12 204 33 c 0
 116 107 114 199 114 406 c 2
 114 423 l 2
 114 493 117 538 117 569 c 0
 117 639 111 663 42 673 c 0
 21 677 20 694 20 702 c 0
297 745 m 0
 297 747 300 752 303 757 c 0
 433 914 418 930 444 930 c 2
 482 930 l 2
 491 930 498 930 507 916 c 0
 564 832 636 759 636 747 c 0
 636 737 624 737 620 737 c 0
 600 737 475 822 465 822 c 0
 445 822 333 738 312 738 c 0
 308 738 297 739 297 745 c 0
EndSplineSet
EndChar
StartChar: Udieresis
Encoding: 220 220 180
Width: 881
Flags: MW
LayerCount: 2
Back
Fore
SplineSet
20 702 m 0
 20 712 20 721 47 721 c 0
 80 721 113 715 179 715 c 0
 234 715 201 718 289 718 c 0
 300 718 314 717 314 704 c 0
 314 670 244 717 244 590 c 2
 244 562 l 2
 244 475 243 406 243 347 c 0
 243 210 243 40 475 40 c 0
 587 40 734 41 734 326 c 0
 734 490 732 490 732 531 c 0
 732 583 732 637 697 660 c 0
 673 686 635 670 635 694 c 0
 635 706 639 718 657 718 c 0
 670 718 731 715 743 715 c 0
 790 715 817 720 838 720 c 0
 861 720 861 711 861 706 c 0
 861 689 824 684 813 662 c 0
 804 644 802 632 802 594 c 0
 802 576 803 555 803 524 c 0
 803 130 760 45 624 -9 c 0
 584 -24 504 -32 466 -32 c 0
 331 -32 257 -12 204 33 c 0
 116 107 114 199 114 406 c 2
 114 423 l 2
 114 493 117 538 117 569 c 0
 117 639 111 663 42 673 c 0
 21 677 20 694 20 702 c 0
281 855 m 0
 281 881 319 932 352 932 c 0
 387 932 424 885 424 855 c 0
 424 819 373 775 359 775 c 0
 315 775 281 831 281 855 c 0
489 855 m 0
 489 881 527 932 560 932 c 0
 595 932 632 885 632 855 c 0
 632 819 580 775 566 775 c 0
 522 775 489 831 489 855 c 0
EndSplineSet
EndChar
StartChar: Thorn
Encoding: 222 222 182
Width: 650
Flags: MW
LayerCount: 2
Back
Fore
SplineSet
20 695 m 0
 20 706 24 718 52 718 c 0
 84 718 117 712 182 712 c 0
 232 712 211 715 284 715 c 0
 292 715 315 713 315 694 c 0
 315 681 298 672 269 654 c 0
 245 646 238 604 238 579 c 0
 238 572 238 570 250 570 c 0
 272 570 317 576 362 576 c 0
 490 576 621 514 621 382 c 0
 621 200 432 163 372 163 c 0
 324 163 261 181 261 197 c 0
 261 213 267 219 274 219 c 0
 288 219 299 211 325 211 c 0
 379 211 493 237 493 343 c 0
 493 417 426 515 289 515 c 0
 247 515 236 499 236 408 c 2
 236 237 l 2
 234 237 233 237 233 167 c 2
 233 146 l 2
 233 -136 358 57 358 2 c 0
 358 -12 345 -14 333 -14 c 0
 288 -14 188 -8 171 -8 c 0
 143 -8 114 -14 64 -14 c 0
 52 -14 29 -13 29 4 c 0
 29 39 44 35 67 44 c 0
 80 47 116 -103 116 287 c 0
 116 507 120 463 120 507 c 2
 120 551 l 2
 120 576 119 601 116 622 c 0
 111 657 69 671 41 672 c 0
 21 674 20 687 20 695 c 0
EndSplineSet
EndChar
StartChar: germandbls
Encoding: 223 223 140
Width: 640
Flags: MW
LayerCount: 2
Back
Fore
SplineSet
20 7 m 0
 20 30 75 -31 75 74 c 2
 75 369 l 2
 75 373 42 392 42 402 c 0
 42 422 75 411 75 426 c 0
 75 595 176 728 327 728 c 0
 391 728 493 710 493 604 c 0
 493 482 350 434 350 367 c 0
 350 275 603 247 603 114 c 0
 603 77 579 -21 439 -21 c 0
 371 -21 326 1 307 6 c 0
 276 15 260 14 260 41 c 2
 260 135 l 2
 260 151 272 163 283 163 c 0
 315 163 308 143 322 120 c 0
 334 95 361 17 434 17 c 0
 471 17 522 38 522 94 c 0
 522 185 269 211 269 333 c 0
 269 421 400 464 400 591 c 0
 400 659 359 691 314 691 c 0
 261 691 182 654 182 433 c 0
 182 423 184 386 184 373 c 0
 184 353 177 274 177 175 c 2
 177 107 l 2
 177 54 187 39 215 32 c 0
 231 26 237 16 237 6 c 0
 237 0 226 -7 214 -7 c 0
 210 -7 166 -1 139 -1 c 0
 103 -1 50 -6 39 -6 c 0
 25 -6 20 -1 20 7 c 0
EndSplineSet
EndChar
StartChar: agrave
Encoding: 224 224 183
Width: 535
Flags: MW
LayerCount: 2
Back
Fore
SplineSet
48 74 m 0
 48 183 169 193 314 215 c 0
 327 217 334 218 334 231 c 0
 334 251 337 267 337 283 c 0
 337 370 268 392 240 392 c 0
 177 392 168 359 168 335 c 0
 168 321 174 310 174 301 c 0
 174 285 163 282 147 282 c 0
 129 282 54 287 54 324 c 0
 54 379 155 442 261 442 c 0
 446 442 446 351 446 312 c 0
 446 177 438.41796875 196.998046875 439 119 c 0
 440 -15 515 43 515 6 c 0
 515 -10 490 -15 440 -15 c 0
 371 -15 351 56 345 56 c 0
 340 56 274 -26 188 -26 c 0
 137 -26 105 -20 78 4 c 0
 57 22 48 47 48 74 c 0
112 669 m 0
 112 701 186 708 192 708 c 0
 198 708 211 703 222 679 c 0
 300 491 336 472 336 451 c 0
 336 442 327 434 318 434 c 0
 306 434 282 457 259 481 c 0
 197 546 112 637 112 669 c 0
165 106 m 0
 165 63 192 35 242 35 c 0
 334 35 334 101 334 132 c 2
 334 186 l 2
 334 192 331 195 327 195 c 0
 324 195 320 193 317 193 c 0
 253 183 165 185 165 106 c 0
EndSplineSet
EndChar
StartChar: acircumflex
Encoding: 226 226 185
Width: 535
Flags: MW
LayerCount: 2
Back
Fore
SplineSet
48 74 m 0
 48 183 169 193 314 215 c 0
 327 217 334 218 334 231 c 0
 334 251 337 267 337 283 c 0
 337 370 268 392 240 392 c 0
 177 392 168 359 168 335 c 0
 168 321 174 310 174 301 c 0
 174 285 163 282 147 282 c 0
 129 282 54 287 54 324 c 0
 54 379 155 442 261 442 c 0
 446 442 446 351 446 312 c 0
 446 177 438.41796875 196.998046875 439 119 c 0
 440 -15 515 43 515 6 c 0
 515 -10 490 -15 440 -15 c 0
 371 -15 351 56 345 56 c 0
 340 56 274 -26 188 -26 c 0
 137 -26 105 -20 78 4 c 0
 57 22 48 47 48 74 c 0
110 481 m 0
 110 483 113 488 116 493 c 0
 246 650 231 666 257 666 c 2
 295 666 l 2
 304 666 311 666 320 652 c 0
 377 568 449 495 449 483 c 0
 449 473 437 473 433 473 c 0
 413 473 288 558 278 558 c 0
 258 558 146 474 125 474 c 0
 121 474 110 475 110 481 c 0
165 106 m 0
 165 63 192 35 242 35 c 0
 334 35 334 101 334 132 c 2
 334 186 l 2
 334 192 331 195 327 195 c 0
 324 195 320 193 317 193 c 0
 253 183 165 185 165 106 c 0
EndSplineSet
EndChar
StartChar: adieresis
Encoding: 228 228 187
Width: 535
Flags: MW
LayerCount: 2
Back
Fore
SplineSet
48 74 m 0
 48 183 169 193 314 215 c 0
 327 217 334 218 334 231 c 0
 334 251 337 267 337 283 c 0
 337 370 268 392 240 392 c 0
 177 392 168 359 168 335 c 0
 168 321 174 310 174 301 c 0
 174 285 163 282 147 282 c 0
 129 282 54 287 54 324 c 0
 54 379 155 442 261 442 c 0
 446 442 446 351 446 312 c 0
 446 177 438.41796875 196.998046875 439 119 c 0
 440 -15 515 43 515 6 c 0
 515 -10 490 -15 440 -15 c 0
 371 -15 351 56 345 56 c 0
 340 56 274 -26 188 -26 c 0
 137 -26 105 -20 78 4 c 0
 57 22 48 47 48 74 c 0
106 591 m 0
 106 617 144 668 177 668 c 0
 212 668 249 621 249 591 c 0
 249 555 198 511 184 511 c 0
 140 511 106 567 106 591 c 0
165 106 m 0
 165 63 192 35 242 35 c 0
 334 35 334 101 334 132 c 2
 334 186 l 2
 334 192 331 195 327 195 c 0
 324 195 320 193 317 193 c 0
 253 183 165 185 165 106 c 0
314 591 m 0
 314 617 352 668 385 668 c 0
 420 668 457 621 457 591 c 0
 457 555 405 511 391 511 c 0
 347 511 314 567 314 591 c 0
EndSplineSet
EndChar
StartChar: aring
Encoding: 229 229 188
Width: 535
Flags: MW
LayerCount: 2
Back
Fore
SplineSet
48 74 m 0
 48 183 169 193 314 215 c 0
 327 217 334 218 334 231 c 0
 334 251 337 267 337 283 c 0
 337 370 268 392 240 392 c 0
 177 392 168 359 168 335 c 0
 168 321 174 310 174 301 c 0
 174 285 163 282 147 282 c 0
 129 282 54 287 54 324 c 0
 54 379 155 442 261 442 c 0
 446 442 446 351 446 312 c 0
 446 177 438.41796875 196.998046875 439 119 c 0
 440 -15 515 43 515 6 c 0
 515 -10 490 -15 440 -15 c 0
 371 -15 351 56 345 56 c 0
 340 56 274 -26 188 -26 c 0
 137 -26 105 -20 78 4 c 0
 57 22 48 47 48 74 c 0
165 106 m 0
 165 63 192 35 242 35 c 0
 334 35 334 101 334 132 c 2
 334 186 l 2
 334 192 331 195 327 195 c 0
 324 195 320 193 317 193 c 0
 253 183 165 185 165 106 c 0
146 591 m 0
 146 627 185 678 243 678 c 0
 312 678 336 618 336 586 c 0
 336 523 260 499 242 499 c 0
 157 499 146 565 146 591 c 0
203 589 m 0
 203 571 219 559 242 559 c 0
 249 559 279 564 279 588 c 0
 279 599 274 618 242 618 c 0
 224 618 203 605 203 589 c 0
EndSplineSet
EndChar
StartChar: ae
Encoding: 230 230 135
Width: 851
Flags: MW
LayerCount: 2
Back
Fore
SplineSet
48 72 m 0
 48 182 171 198 317 221 c 0
 333 224 336 215 336 283 c 0
 336 370 269 392 240 392 c 0
 177 392 168 361 168 339 c 0
 168 326 174 316 174 308 c 0
 174 293 163 290 147 290 c 0
 129 290 54 295 54 330 c 0
 54 382 153 442 256 442 c 0
 405 442 413 369 424 369 c 0
 431 369 482 439 590 439 c 0
 770 439 811 283 811 267 c 0
 811 252 796 248 763 248 c 2
 500 248 l 1
 465 248 l 2
 452 248 452 247 452 238 c 0
 452 119 551 57 647 57 c 0
 729 57 780 97 800 97 c 0
 806 97 812 91 812 86 c 0
 812 72 740 -35 599 -35 c 0
 442 -35 389 81 383 81 c 0
 376 81 331 -29 190 -29 c 0
 138 -29 106 -23 78 1 c 0
 56 19 48 45 48 72 c 0
165 103 m 0
 165 60 192 31 242 31 c 0
 333 31 333 96 333 128 c 2
 333 190 l 2
 333 196 333 199 329 199 c 2
 329 199 265.870180196 198.338403409 229 184 c 0
 193 170 165 147 165 103 c 0
461 298 m 0
 461 290 463 285 474 285 c 0
 520 285 633 294 650 294 c 0
 669 294 671 297 671 305 c 0
 671 328 642 401 563 401 c 0
 491 401 461 330 461 298 c 0
EndSplineSet
EndChar
StartChar: egrave
Encoding: 232 232 190
Width: 552
Flags: MW
LayerCount: 2
Back
Fore
SplineSet
39 188 m 0
 39 324 138 438 287 438 c 0
 470 438 512 283 512 267 c 0
 512 252 497 248 465 248 c 2
 203 248 l 1
 169 248 l 2
 156 248 156 247 156 238 c 0
 156 119 255 57 351 57 c 0
 433 57 481 97 501 97 c 0
 507 97 513 91 513 86 c 0
 513 72 440 -35 297 -35 c 0
 166 -35 39 32 39 188 c 0
122 669 m 0
 122 701 196 708 202 708 c 0
 208 708 221 703 232 679 c 0
 310 491 346 472 346 451 c 0
 346 442 337 434 328 434 c 0
 316 434 292 457 269 481 c 0
 207 546 122 637 122 669 c 0
165 298 m 0
 165 290 167 285 178 285 c 0
 223 285 334 294 351 294 c 0
 370 294 372 296 372 304 c 0
 372 327 344 400 266 400 c 0
 195 400 165 329 165 298 c 0
EndSplineSet
EndChar
StartChar: eacute
Encoding: 233 233 191
Width: 552
Flags: MW
LayerCount: 2
Back
Fore
SplineSet
39 188 m 0
 39 324 138 438 287 438 c 0
 470 438 512 283 512 267 c 0
 512 252 497 248 465 248 c 2
 203 248 l 1
 169 248 l 2
 156 248 156 247 156 238 c 0
 156 119 255 57 351 57 c 0
 433 57 481 97 501 97 c 0
 507 97 513 91 513 86 c 0
 513 72 440 -35 297 -35 c 0
 166 -35 39 32 39 188 c 0
165 298 m 0
 165 290 167 285 178 285 c 0
 223 285 334 294 351 294 c 0
 370 294 372 296 372 304 c 0
 372 327 344 400 266 400 c 0
 195 400 165 329 165 298 c 0
194 451 m 0
 194 472 229 491 307 679 c 0
 317 703 332 708 338 708 c 0
 344 708 416 701 416 669 c 0
 416 637 333 546 271 481 c 0
 249 457 224 434 212 434 c 0
 203 434 194 442 194 451 c 0
EndSplineSet
EndChar
StartChar: ecircumflex
Encoding: 234 234 192
Width: 552
Flags: MW
LayerCount: 2
Back
Fore
SplineSet
39 188 m 0
 39 324 138 438 287 438 c 0
 470 438 512 283 512 267 c 0
 512 252 497 248 465 248 c 2
 203 248 l 1
 169 248 l 2
 156 248 156 247 156 238 c 0
 156 119 255 57 351 57 c 0
 433 57 481 97 501 97 c 0
 507 97 513 91 513 86 c 0
 513 72 440 -35 297 -35 c 0
 166 -35 39 32 39 188 c 0
120 481 m 0
 120 483 123 488 126 493 c 0
 256 650 241 666 267 666 c 2
 305 666 l 2
 314 666 321 666 330 652 c 0
 387 568 459 495 459 483 c 0
 459 473 447 473 443 473 c 0
 423 473 298 558 288 558 c 0
 268 558 156 474 135 474 c 0
 131 474 120 475 120 481 c 0
165 298 m 0
 165 290 167 285 178 285 c 0
 223 285 334 294 351 294 c 0
 370 294 372 296 372 304 c 0
 372 327 344 400 266 400 c 0
 195 400 165 329 165 298 c 0
EndSplineSet
EndChar
StartChar: igrave
Encoding: 236 236 194
Width: 284
Flags: MW
LayerCount: 2
Back
Fore
SplineSet
14 669 m 0
 14 701 88 708 94 708 c 0
 100 708 113 703 124 679 c 0
 202 491 238 472 238 451 c 0
 238 442 229 434 220 434 c 0
 208 434 184 457 161 481 c 0
 99 546 14 637 14 669 c 0
36 381 m 0
 36 397 68 398 139 421 c 0
 185 436 182 439 202 439 c 0
 210 439 221 434 221 420 c 0
 221 408 212 389 212 372 c 2
 212 98 l 6
 212 0 298 45 298 10 c 0
 298 4 297 -7 278 -7 c 0
 273 -7 267 -6 261 -6 c 0
 212 -6 222 -4 178 -4 c 0
 129 -4 115 -6 95 -6 c 0
 66 -6 48 -3 48 7 c 0
 48 14 54 23 63 26 c 0
 102 39 104 33 104 206 c 2
 104 294 l 6
 104 376 68 363 46 371 c 0
 41 373 36 377 36 381 c 0
EndSplineSet
EndChar
StartChar: iacute
Encoding: 237 237 195
Width: 284
Flags: MW
LayerCount: 2
Back
Fore
SplineSet
36 381 m 0
 36 397 68 398 139 421 c 0
 185 436 182 439 202 439 c 0
 210 439 221 434 221 420 c 0
 221 408 212 389 212 372 c 2
 212 98 l 6
 212 0 298 45 298 10 c 0
 298 4 297 -7 278 -7 c 0
 273 -7 267 -6 261 -6 c 0
 212 -6 222 -4 178 -4 c 0
 129 -4 115 -6 95 -6 c 0
 66 -6 48 -3 48 7 c 0
 48 14 54 23 63 26 c 0
 102 39 104 33 104 206 c 2
 104 294 l 6
 104 376 68 363 46 371 c 0
 41 373 36 377 36 381 c 0
86 451 m 0
 86 472 121 491 199 679 c 0
 209 703 224 708 230 708 c 0
 236 708 308 701 308 669 c 0
 308 637 225 546 163 481 c 0
 141 457 116 434 104 434 c 0
 95 434 86 442 86 451 c 0
EndSplineSet
EndChar
StartChar: icircumflex
Encoding: 238 238 196
Width: 284
Flags: MW
LayerCount: 2
Back
Fore
SplineSet
12 481 m 0
 12 483 15 488 18 493 c 0
 148 650 133 666 159 666 c 2
 197 666 l 2
 206 666 213 666 222 652 c 0
 279 568 351 495 351 483 c 0
 351 473 339 473 335 473 c 0
 315 473 190 558 180 558 c 0
 160 558 48 474 27 474 c 0
 23 474 12 475 12 481 c 0
36 381 m 0
 36 397 68 398 139 421 c 0
 185 436 182 439 202 439 c 0
 210 439 221 434 221 420 c 0
 221 408 212 389 212 372 c 2
 212 98 l 6
 212 0 298 45 298 10 c 0
 298 4 297 -7 278 -7 c 0
 273 -7 267 -6 261 -6 c 0
 212 -6 222 -4 178 -4 c 0
 129 -4 115 -6 95 -6 c 0
 66 -6 48 -3 48 7 c 0
 48 14 54 23 63 26 c 0
 102 39 104 33 104 206 c 2
 104 294 l 6
 104 376 68 363 46 371 c 0
 41 373 36 377 36 381 c 0
EndSplineSet
EndChar
StartChar: idieresis
Encoding: 239 239 197
Width: 284
Flags: MW
LayerCount: 2
Back
Fore
SplineSet
8 591 m 0
 8 617 46 668 79 668 c 0
 114 668 151 621 151 591 c 0
 151 555 100 511 86 511 c 0
 42 511 8 567 8 591 c 0
36 381 m 0
 36 397 68 398 139 421 c 0
 185 436 182 439 202 439 c 0
 210 439 221 434 221 420 c 0
 221 408 212 389 212 372 c 2
 212 98 l 6
 212 0 298 45 298 10 c 0
 298 4 297 -7 278 -7 c 0
 273 -7 267 -6 261 -6 c 0
 212 -6 222 -4 178 -4 c 0
 129 -4 115 -6 95 -6 c 0
 66 -6 48 -3 48 7 c 0
 48 14 54 23 63 26 c 0
 102 39 104 33 104 206 c 2
 104 294 l 6
 104 376 68 363 46 371 c 0
 41 373 36 377 36 381 c 0
216 591 m 0
 216 617 254 668 287 668 c 0
 322 668 359 621 359 591 c 0
 359 555 307 511 293 511 c 0
 249 511 216 567 216 591 c 0
EndSplineSet
EndChar
StartChar: eth
Encoding: 240 240 198
Width: 624
Flags: MW
LayerCount: 2
Back
Fore
SplineSet
39 199 m 0
 39 310 126 422 300 422 c 0
 334 422 366 408 390 394 c 0
 415 379 441 347 449 347 c 0
 452 347 453 348 453 350 c 0
 453 364 430 413 401 458 c 0
 373 503 340 545 332 545 c 0
 329 545 325 544 319 542 c 2
 175 494 l 2
 174 494 171 493 170 493 c 0
 157 493 149 515 149 527 c 0
 149 535 154 538 158 540 c 2
 294 604 l 2
 300 606 303 610 303 612 c 0
 303 616 297 620 293 625 c 0
 194 731 128 727 128 743 c 0
 128 753 142 755 155 755 c 2
 181 755 l 2
 222 755 295 721 368 658 c 0
 379 648 383 643 390 643 c 0
 393 643 399 645 406 647 c 2
 542 696 l 2
 550 699 556 701 560 701 c 0
 576 701 580 674 580 672 c 0
 580 666 575 660 555 654 c 2
 424 612 l 2
 413 609 406 607 406 604 c 0
 406 598 585 462 585 229 c 0
 585 78 463 -18 306 -18 c 0
 128 -18 39 90 39 199 c 0
158 230 m 0
 158 98 253 27 338 27 c 0
 409 27 475 76 475 178 c 0
 475 218 471 259 452 294 c 0
 441 314 400 346 383 356 c 0
 358 371 327 381 291 381 c 0
 233 381 158 342 158 230 c 0
EndSplineSet
EndChar
StartChar: ograve
Encoding: 242 242 200
Width: 625
Flags: MW
LayerCount: 2
Back
Fore
SplineSet
39 202 m 0
 39 319 131 438 314 438 c 0
 450 438 586 360 586 209 c 0
 586 54 446 -26 306 -26 c 0
 128 -26 39 87 39 202 c 0
158 236 m 0
 158 96 253 20 338 20 c 0
 409 20 473 72 473 180 c 0
 473 282 414 396 291 396 c 0
 233 396 158 355 158 236 c 0
156 669 m 0
 156 701 230 708 236 708 c 0
 242 708 255 703 266 679 c 0
 344 491 380 472 380 451 c 0
 380 442 371 434 362 434 c 0
 350 434 326 457 303 481 c 0
 241 546 156 637 156 669 c 0
EndSplineSet
EndChar
StartChar: oacute
Encoding: 243 243 201
Width: 625
Flags: MW
LayerCount: 2
Back
Fore
SplineSet
39 202 m 0
 39 319 131 438 314 438 c 0
 450 438 586 360 586 209 c 0
 586 54 446 -26 306 -26 c 0
 128 -26 39 87 39 202 c 0
158 236 m 0
 158 96 253 20 338 20 c 0
 409 20 473 72 473 180 c 0
 473 282 414 396 291 396 c 0
 233 396 158 355 158 236 c 0
228 451 m 0
 228 472 263 491 341 679 c 0
 351 703 366 708 372 708 c 0
 378 708 450 701 450 669 c 0
 450 637 367 546 305 481 c 0
 283 457 258 434 246 434 c 0
 237 434 228 442 228 451 c 0
EndSplineSet
EndChar
StartChar: ocircumflex
Encoding: 244 244 202
Width: 625
Flags: MW
LayerCount: 2
Back
Fore
SplineSet
39 202 m 0
 39 319 131 438 314 438 c 0
 450 438 586 360 586 209 c 0
 586 54 446 -26 306 -26 c 0
 128 -26 39 87 39 202 c 0
158 236 m 0
 158 96 253 20 338 20 c 0
 409 20 473 72 473 180 c 0
 473 282 414 396 291 396 c 0
 233 396 158 355 158 236 c 0
154 481 m 0
 154 483 157 488 160 493 c 0
 290 650 275 666 301 666 c 2
 339 666 l 2
 348 666 355 666 364 652 c 0
 421 568 493 495 493 483 c 0
 493 473 481 473 477 473 c 0
 457 473 332 558 322 558 c 0
 302 558 190 474 169 474 c 0
 165 474 154 475 154 481 c 0
EndSplineSet
EndChar
StartChar: otilde
Encoding: 245 245 203
Width: 625
Flags: MW
LayerCount: 2
Back
Fore
SplineSet
39 202 m 0
 39 319 131 438 314 438 c 0
 450 438 586 360 586 209 c 0
 586 54 446 -26 306 -26 c 0
 128 -26 39 87 39 202 c 0
158 236 m 0
 158 96 253 20 338 20 c 0
 409 20 473 72 473 180 c 0
 473 282 414 396 291 396 c 0
 233 396 158 355 158 236 c 0
119 519 m 0
 119 543 197 675 265 675 c 0
 339 675 378 603 452 603 c 0
 502 603 531 683 545 683 c 0
 551 683 560 680 560 665 c 0
 560 638 484 515 416 515 c 0
 341 515 293 588 227 588 c 0
 175 588 148 507 134 507 c 0
 128 507 119 509 119 519 c 0
EndSplineSet
EndChar
StartChar: odieresis
Encoding: 246 246 204
Width: 625
Flags: MW
LayerCount: 2
Back
Fore
SplineSet
39 202 m 0
 39 319 131 438 314 438 c 0
 450 438 586 360 586 209 c 0
 586 54 446 -26 306 -26 c 0
 128 -26 39 87 39 202 c 0
158 236 m 0
 158 96 253 20 338 20 c 0
 409 20 473 72 473 180 c 0
 473 282 414 396 291 396 c 0
 233 396 158 355 158 236 c 0
150 591 m 0
 150 617 188 668 221 668 c 0
 256 668 293 621 293 591 c 0
 293 555 242 511 228 511 c 0
 184 511 150 567 150 591 c 0
358 591 m 0
 358 617 396 668 429 668 c 0
 464 668 501 621 501 591 c 0
 501 555 449 511 435 511 c 0
 391 511 358 567 358 591 c 0
EndSplineSet
EndChar
StartChar: divide
Encoding: 247 247 205
Width: 569
Flags: MW
LayerCount: 2
Back
Fore
SplineSet
32 213 m 0
 32 233 32 243 52 243 c 2
 521 243 l 2
 538 243 538 232 538 211 c 0
 538 185 538 176 515 176 c 2
 51 176 l 2
 24 176 32 187 32 213 c 0
211 344 m 0
 211 377 241 406 274 406 c 0
 307 406 334 379 334 346 c 0
 334 313 305 284 272 284 c 0
 239 284 211 311 211 344 c 0
218 76 m 0
 218 109 247 136 280 136 c 0
 313 136 341 107 341 74 c 0
 341 41 314 14 281 14 c 0
 248 14 218 41 218 76 c 0
EndSplineSet
EndChar
StartChar: oslash
Encoding: 248 248 138
Width: 659
Flags: MW
LayerCount: 2
Back
Fore
SplineSet
39 204 m 0
 39 320 128 438 305 438 c 0
 351 438 373 424 383 424 c 0
 390 424 392 428 397 438 c 0
 442 507 442 507 454 507 c 0
 462 507 499 500 499 488 c 0
 499 486 499 486 463 431 c 0
 459 424 451 418 451 413 c 0
 451 409 454 405 466 401 c 0
 556 365 620 301 620 208 c 0
 620 54 487 -26 354 -26 c 0
 310 -26 288 -15 281 -15 c 0
 277 -15 274 -18 272 -23 c 0
 209 -113 210 -113 201 -113 c 0
 189 -113 153 -105 153 -93 c 0
 153 -87 212 -8 212 -3 c 0
 212 1 207 4 198 7 c 0
 91 48 39 126 39 204 c 0
158 236 m 0
 158 124 217 71 218 71 c 0
 220 71 222 73 224 79 c 2
 352 360 l 2
 354 366 358 369 358 372 c 0
 358 382 320 396 283 396 c 0
 229 396 158 355 158 236 c 0
289 44 m 0
 289 35 332 20 368 20 c 0
 441 20 507 72 507 180 c 0
 507 286 445 347 442 347 c 0
 441 347 439 345 437 341 c 0
 297 55 289 46 289 44 c 0
EndSplineSet
EndChar
StartChar: ugrave
Encoding: 249 249 206
Width: 652
Flags: MW
LayerCount: 2
Back
Fore
SplineSet
29 391 m 0
 29 411 41 425 115 425 c 0
 132 425 180 432 188 432 c 0
 217 432 218 430 218 383 c 0
 218 330 210 312 210 207 c 0
 210 76 277 47 321 47 c 0
 404 47 443 74 443 161 c 2
 440 291 l 2
 440 349 437 369 395 373 c 0
 384 375 373 381 373 393 c 0
 373 414 398 428 483 428 c 0
 502 428 517 432 528 432 c 0
 554 432 558 427 558 404 c 0
 558 398 553 287 553 153 c 0
 553 74 559 49 581 49 c 0
 590 49 599 50 607 50 c 0
 621 50 631 46 631 31 c 0
 631 7 621 6 588 6 c 0
 553 6 482 -11 470 -11 c 0
 455 -11 456 52 449 52 c 0
 440 52 387 -32 282 -32 c 0
 166 -32 94 21 94 144 c 0
 94 308 96 290 96 326 c 0
 96 356 75 370 65 370 c 2
 47 370 l 2
 36 370 29 374 29 391 c 0
170 669 m 0
 170 701 244 708 250 708 c 0
 256 708 269 703 280 679 c 0
 358 491 394 472 394 451 c 0
 394 442 385 434 376 434 c 0
 364 434 340 457 317 481 c 0
 255 546 170 637 170 669 c 0
EndSplineSet
EndChar
StartChar: uacute
Encoding: 250 250 207
Width: 652
Flags: MW
LayerCount: 2
Back
Fore
SplineSet
29 391 m 0
 29 411 41 425 115 425 c 0
 132 425 180 432 188 432 c 0
 217 432 218 430 218 383 c 0
 218 330 210 312 210 207 c 0
 210 76 277 47 321 47 c 0
 404 47 443 74 443 161 c 2
 440 291 l 2
 440 349 437 369 395 373 c 0
 384 375 373 381 373 393 c 0
 373 414 398 428 483 428 c 0
 502 428 517 432 528 432 c 0
 554 432 558 427 558 404 c 0
 558 398 553 287 553 153 c 0
 553 74 559 49 581 49 c 0
 590 49 599 50 607 50 c 0
 621 50 631 46 631 31 c 0
 631 7 621 6 588 6 c 0
 553 6 482 -11 470 -11 c 0
 455 -11 456 52 449 52 c 0
 440 52 387 -32 282 -32 c 0
 166 -32 94 21 94 144 c 0
 94 308 96 290 96 326 c 0
 96 356 75 370 65 370 c 2
 47 370 l 2
 36 370 29 374 29 391 c 0
242 451 m 0
 242 472 277 491 355 679 c 0
 365 703 380 708 386 708 c 0
 392 708 464 701 464 669 c 0
 464 637 381 546 319 481 c 0
 297 457 272 434 260 434 c 0
 251 434 242 442 242 451 c 0
EndSplineSet
EndChar
StartChar: ucircumflex
Encoding: 251 251 208
Width: 652
Flags: MW
LayerCount: 2
Back
Fore
SplineSet
29 391 m 0
 29 411 41 425 115 425 c 0
 132 425 180 432 188 432 c 0
 217 432 218 430 218 383 c 0
 218 330 210 312 210 207 c 0
 210 76 277 47 321 47 c 0
 404 47 443 74 443 161 c 2
 440 291 l 2
 440 349 437 369 395 373 c 0
 384 375 373 381 373 393 c 0
 373 414 398 428 483 428 c 0
 502 428 517 432 528 432 c 0
 554 432 558 427 558 404 c 0
 558 398 553 287 553 153 c 0
 553 74 559 49 581 49 c 0
 590 49 599 50 607 50 c 0
 621 50 631 46 631 31 c 0
 631 7 621 6 588 6 c 0
 553 6 482 -11 470 -11 c 0
 455 -11 456 52 449 52 c 0
 440 52 387 -32 282 -32 c 0
 166 -32 94 21 94 144 c 0
 94 308 96 290 96 326 c 0
 96 356 75 370 65 370 c 2
 47 370 l 2
 36 370 29 374 29 391 c 0
168 481 m 0
 168 483 171 488 174 493 c 0
 304 650 289 666 315 666 c 2
 353 666 l 2
 362 666 369 666 378 652 c 0
 435 568 507 495 507 483 c 0
 507 473 495 473 491 473 c 0
 471 473 346 558 336 558 c 0
 316 558 204 474 183 474 c 0
 179 474 168 475 168 481 c 0
EndSplineSet
EndChar
StartChar: yacute
Encoding: 253 253 210
Width: 572
Flags: MW
LayerCount: 2
Back
Fore
SplineSet
20 419 m 0
 20 428 39 431 47 431 c 0
 121 431 125 428 184 428 c 0
 218 428 224 431 261 431 c 0
 275 431 286 422 286 414 c 0
 286 390 277 387 262 387 c 2
 247 387 l 2
 232 387 231 370 231 359 c 0
 231 344 257 309 306 215 c 0
 328.954101562 170.96484375 343 144 352 144 c 0
 360 144 434 326 434 362 c 0
 434 428 372 385 372 420 c 0
 372 424 373 432 391 432 c 0
 418 432 452 431 470 431 c 0
 487 431 524 432 532 432 c 0
 546 432 553 427 553 419 c 0
 553 401 522 408 510 391 c 0
 499 375 475 317 454 262 c 2
 362 19 l 2
 303 -137 287 -198 271 -198 c 0
 266 -198 270 -199 223 -199 c 0
 217 -199 203 -197 203 -186 c 0
 203 -175 299 -71 299 8 c 0
 299 53 144.067382812 286.686523438 97 358 c 0
 64 408 20 392 20 419 c 0
221 451 m 0
 221 472 256 491 334 679 c 0
 344 703 359 708 365 708 c 0
 371 708 443 701 443 669 c 0
 443 637 360 546 298 481 c 0
 276 457 251 434 239 434 c 0
 230 434 221 442 221 451 c 0
EndSplineSet
EndChar
StartChar: thorn
Encoding: 254 254 211
Width: 610
Flags: MW
LayerCount: 2
Back
Fore
SplineSet
20 705 m 0
 20 724 34 718 104 740 c 0
 136 750 174 769 199 769 c 0
 211 769 214 760 214 749 c 0
 214 733 206 684 206 587 c 2
 206 528 l 2
 206 480 205 428 205 402 c 0
 205 378 206 372 207 372 c 0
 217 372 264 447 372 447 c 0
 507 447 571 345 571 236 c 0
 571 117 488 -17 336 -17 c 0
 221 -17 210 37 194 37 c 0
 192 37 191 33 191 28 c 2
 191 -89 l 1
 191 -103 l 2
 191 -126 202 -143 208 -154 c 0
 236 -217 298 -161 298 -195 c 0
 298 -198 295 -208 259 -208 c 0
 229 -208 230 -204 139 -204 c 0
 102 -204 81 -207 66 -207 c 0
 30 -207 26 -204 26 -197 c 0
 26 -165 88 -267 88 -87 c 2
 88 -67 l 2
 88 134 92 172 92 215 c 2
 92 238 l 2
 92 277 96 549 96 627 c 0
 96 659 84 687 72 692 c 0
 65 695 51 696 31 696 c 0
 25 696 20 698 20 705 c 0
191 190 m 0
 191 171 192 162 192 143 c 0
 192 51 284 29 339 29 c 0
 430 29 472 104 472 184 c 0
 472 275 418 371 316 371 c 0
 275 371 245 357 224 341 c 0
 199 322 191 310 191 190 c 0
EndSplineSet
EndChar
StartChar: ydieresis
Encoding: 255 255 212
Width: 572
Flags: MW
LayerCount: 2
Back
Fore
SplineSet
20 419 m 0
 20 428 39 431 47 431 c 0
 121 431 125 428 184 428 c 0
 218 428 224 431 261 431 c 0
 275 431 286 422 286 414 c 0
 286 390 277 387 262 387 c 2
 247 387 l 2
 232 387 231 370 231 359 c 0
 231 344 257 309 306 215 c 0
 328.954101562 170.96484375 343 144 352 144 c 0
 360 144 434 326 434 362 c 0
 434 428 372 385 372 420 c 0
 372 424 373 432 391 432 c 0
 418 432 452 431 470 431 c 0
 487 431 524 432 532 432 c 0
 546 432 553 427 553 419 c 0
 553 401 522 408 510 391 c 0
 499 375 475 317 454 262 c 2
 362 19 l 2
 303 -137 287 -198 271 -198 c 0
 266 -198 270 -199 223 -199 c 0
 217 -199 203 -197 203 -186 c 0
 203 -175 299 -71 299 8 c 0
 299 53 144.067382812 286.686523438 97 358 c 0
 64 408 20 392 20 419 c 0
143 591 m 0
 143 617 181 668 214 668 c 0
 249 668 286 621 286 591 c 0
 286 555 235 511 221 511 c 0
 177 511 143 567 143 591 c 0
351 591 m 0
 351 617 389 668 422 668 c 0
 457 668 494 621 494 591 c 0
 494 555 442 511 428 511 c 0
 384 511 351 567 351 591 c 0
EndSplineSet
EndChar
StartChar: amacron
Encoding: 257 257 343
Width: 535
Flags: MW
LayerCount: 2
Back
Fore
SplineSet
48 74 m 0
 48 183 169 193 314 215 c 0
 327 217 334 218 334 231 c 0
 334 251 337 267 337 283 c 0
 337 370 268 392 240 392 c 0
 177 392 168 359 168 335 c 0
 168 321 174 310 174 301 c 0
 174 285 163 282 147 282 c 0
 129 282 54 287 54 324 c 0
 54 379 155 442 261 442 c 0
 446 442 446 351 446 312 c 0
 446 177 438.41796875 196.998046875 439 119 c 0
 440 -15 515 43 515 6 c 0
 515 -10 490 -15 440 -15 c 0
 371 -15 351 56 345 56 c 0
 340 56 274 -26 188 -26 c 0
 137 -26 105 -20 78 4 c 0
 57 22 48 47 48 74 c 0
116 590 m 0
 116 613 130 619 140 619 c 0
 350 619 281 616 411 616 c 0
 429 616 434 613 434 572 c 0
 434 554 416 550 413 550 c 0
 386 550 185 552 131 552 c 0
 125 552 116 555 116 590 c 0
165 106 m 0
 165 63 192 35 242 35 c 0
 334 35 334 101 334 132 c 2
 334 186 l 2
 334 192 331 195 327 195 c 0
 324 195 320 193 317 193 c 0
 253 183 165 185 165 106 c 0
EndSplineSet
EndChar
StartChar: Abreve
Encoding: 258 258 477
Width: 987
Flags: MW
LayerCount: 2
Back
Fore
SplineSet
20 13 m 0
 20 28 27 37 38 41 c 0
 109 63 101 82 465 701 c 0
 476 721 482 724 502 724 c 0
 528 724 511 722 590 563 c 0
 648 447 823.506835938 121.31640625 831 104 c 0
 876 0 967 49 967 13 c 0
 967 8 964 -2 929 -2 c 0
 897 -2 842 4 803 4 c 0
 752 4 713 0 672 0 c 0
 613 0 605 2 605 13 c 0
 605 33 655 22 655 56 c 0
 655 85 609 194 588 228 c 0
 584 235 580 243 547 243 c 0
 526 243 491 240 426 240 c 2
 373 240 l 2
 311 240 280.377929688 235.806640625 269 214 c 0
 233 145 205 98 205 73 c 0
 205 0 279 40 279 12 c 0
 279 5 277 -1 256 -1 c 0
 235 -1 206 0 159 0 c 0
 107 0 88 -5 59 -5 c 0
 35 -5 20 -2 20 13 c 0
334 333 m 0
 334 321 351 320 393 320 c 2
 424 320 l 2
 468 320 519 322 519 322 c 2
 544.98828125 322.546875 546 324 546 332 c 0
 546 340 460 516 441 516 c 0
 428 516 334 341 334 333 c 0
292 906 m 0
 292 908 301 909 309 909 c 2
 316 909 l 2
 336 909 352 839 478 839 c 0
 600 839 605 909 625 909 c 2
 631 909 l 2
 639 909 648 908 648 906 c 0
 648 854 594 749 469 749 c 0
 344 749 292 847 292 906 c 0
EndSplineSet
EndChar
StartChar: abreve
Encoding: 259 259 490
Width: 535
Flags: MW
LayerCount: 2
Back
Fore
SplineSet
48 74 m 0
 48 183 169 193 314 215 c 0
 327 217 334 218 334 231 c 0
 334 251 337 267 337 283 c 0
 337 370 268 392 240 392 c 0
 177 392 168 359 168 335 c 0
 168 321 174 310 174 301 c 0
 174 285 163 282 147 282 c 0
 129 282 54 287 54 324 c 0
 54 379 155 442 261 442 c 0
 446 442 446 351 446 312 c 0
 446 177 438.41796875 196.998046875 439 119 c 0
 440 -15 515 43 515 6 c 0
 515 -10 490 -15 440 -15 c 0
 371 -15 351 56 345 56 c 0
 340 56 274 -26 188 -26 c 0
 137 -26 105 -20 78 4 c 0
 57 22 48 47 48 74 c 0
109 642 m 0
 109 644 118 645 126 645 c 2
 133 645 l 2
 153 645 169 575 295 575 c 0
 417 575 422 645 442 645 c 2
 448 645 l 2
 456 645 465 644 465 642 c 0
 465 590 411 485 286 485 c 0
 161 485 109 583 109 642 c 0
165 106 m 0
 165 63 192 35 242 35 c 0
 334 35 334 101 334 132 c 2
 334 186 l 2
 334 192 331 195 327 195 c 0
 324 195 320 193 317 193 c 0
 253 183 165 185 165 106 c 0
EndSplineSet
EndChar
StartChar: Aogonek
Encoding: 260 260 458
Width: 987
Flags: MW
LayerCount: 2
Back
Fore
SplineSet
20 13 m 0
 20 28 28 37 39 41 c 0
 113 63 100 83 480 701 c 0
 491 721 498 724 518 724 c 0
 545 724 529 722 610 563 c 0
 670 447 848 120 858 104 c 0
 921 -48 999 49 999 13 c 0
 999 8 996 -2 961 -2 c 0
 929 -2 873 4 834 4 c 0
 731 4 641 -5 641 -91 c 0
 641 -104 662 -144 715 -144 c 0
 749 -144 765 -122 779 -122 c 0
 783 -122 789 -126 789 -132 c 0
 789 -150 728 -204 665 -204 c 0
 570 -204 546 -143 546 -125 c 0
 546 -27 687 -19 687 47 c 0
 687 77 636 193 614 227 c 0
 608 236 606 243 581 243 c 0
 561 243 520 240 479 240 c 0
 316 238 317 262 301 214 c 0
 262 145 232 98 232 73 c 0
 232 -31 306 40 306 12 c 0
 306 5 304 -1 283 -1 c 0
 262 -1 220 0 173 0 c 0
 121 0 88 -5 59 -5 c 0
 35 -5 20 -2 20 13 c 0
342 333 m 0
 342 321 351 320 394 320 c 2
 426 320 l 2
 471 320 524 322 524 322 c 2
 551 322 564 324 564 332 c 0
 564 340 470 493 450 493 c 0
 437 493 342 341 342 333 c 0
EndSplineSet
EndChar
StartChar: aogonek
Encoding: 261 261 466
Width: 573
Flags: MW
LayerCount: 2
Back
Fore
SplineSet
48 74 m 0
 48 183 169 193 314 215 c 0
 327 217 334 218 334 231 c 0
 334 251 337 267 337 283 c 0
 337 370 268 392 240 392 c 0
 177 392 168 359 168 335 c 0
 168 321 174 310 174 301 c 0
 174 285 163 282 147 282 c 0
 129 282 54 287 54 324 c 0
 54 379 155 442 261 442 c 0
 446 442 446 354 446 316 c 0
 446 186 439 206 439 131 c 0
 439 -6 553 58 553 22 c 0
 553 3 508 6 457 -7 c 0
 399 -22 342 -49 342 -92 c 0
 342 -130 378 -156 417 -156 c 0
 456 -156 477 -134 493 -134 c 0
 497 -134 499 -136 499 -142 c 0
 499 -160 436 -214 367 -214 c 0
 288 -214 252 -169 252 -123 c 0
 252 -36 427 -8 427 -2 c 0
 427 -1 424 1 417 3 c 0
 374 18 360 56 355 56 c 0
 350 56 281 -26 193 -26 c 0
 140 -26 107 -20 79 4 c 0
 57 22 48 47 48 74 c 0
165 106 m 0
 165 63 192 35 242 35 c 0
 334 35 334 101 334 132 c 2
 334 191 l 2
 334 197 331 200 327 200 c 0
 324 200 320 198 317 198 c 0
 253 188 165 185 165 106 c 0
EndSplineSet
EndChar
StartChar: cacute
Encoding: 263 263 492
Width: 490
Flags: MW
LayerCount: 2
Back
Fore
SplineSet
39 189 m 0
 39 318 139 439 296 439 c 0
 341 439 424 423 426 402 c 0
 427 389 428 368 428 349 c 0
 428 323 425 300 417 300 c 0
 403 300 401 317 384 330 c 0
 361 349 304 379 251 379 c 0
 231 379 152 354 152 224 c 0
 152 129 226 44 323 44 c 0
 403 44 442 93 455 93 c 0
 461 93 466 86 466 80 c 0
 466 69 408 -35 266 -35 c 0
 130 -35 39 48 39 189 c 0
213 451 m 0
 213 472 248 491 326 679 c 0
 336 703 351 708 357 708 c 0
 363 708 435 701 435 669 c 0
 435 637 352 546 290 481 c 0
 268 457 243 434 231 434 c 0
 222 434 213 442 213 451 c 0
EndSplineSet
EndChar
StartChar: Ccircumflex
Encoding: 264 264 504
Width: 854
Flags: MW
LayerCount: 2
Back
Fore
SplineSet
44 322 m 0
 44 541 184 724 449 724 c 0
 596 724 716 631 726 631 c 0
 733 631 739 641 748 641 c 0
 754 641 764 636 764 625 c 0
 766 561 779 502 779 490 c 0
 779 475 771 473 767 473 c 0
 761 473 754 479 750 486 c 0
 692 591 600 662 470 662 c 0
 305 662 185 550 185 383 c 0
 185 208 274 38 517 38 c 0
 641 38 719 124 759 183 c 0
 763 190 767 189 774 189 c 0
 780 189 783 182 783 174 c 0
 783 148 768 90 764 67 c 0
 762 57 756 52 747 48 c 0
 654 2 582 -32 471 -32 c 0
 148 -32 44 160 44 322 c 0
307 745 m 0
 307 747 310 752 313 757 c 0
 443 914 428 930 454 930 c 2
 492 930 l 2
 501 930 508 930 517 916 c 0
 574 832 646 759 646 747 c 0
 646 737 634 737 630 737 c 0
 610 737 485 822 475 822 c 0
 455 822 343 738 322 738 c 0
 318 738 307 739 307 745 c 0
EndSplineSet
EndChar
StartChar: ccircumflex
Encoding: 265 265 510
Width: 490
Flags: MW
LayerCount: 2
Back
Fore
SplineSet
39 189 m 0
 39 318 139 439 296 439 c 0
 341 439 424 423 426 402 c 0
 427 389 428 368 428 349 c 0
 428 323 425 300 417 300 c 0
 403 300 401 317 384 330 c 0
 361 349 304 379 251 379 c 0
 231 379 152 354 152 224 c 0
 152 129 226 44 323 44 c 0
 403 44 442 93 455 93 c 0
 461 93 466 86 466 80 c 0
 466 69 408 -35 266 -35 c 0
 130 -35 39 48 39 189 c 0
139 481 m 0
 139 483 142 488 145 493 c 0
 275 650 260 666 286 666 c 2
 324 666 l 2
 333 666 340 666 349 652 c 0
 406 568 478 495 478 483 c 0
 478 473 466 473 462 473 c 0
 442 473 317 558 307 558 c 0
 287 558 175 474 154 474 c 0
 150 474 139 475 139 481 c 0
EndSplineSet
EndChar
StartChar: Ccaron
Encoding: 268 268 480
Width: 854
Flags: MW
LayerCount: 2
Back
Fore
SplineSet
44 322 m 0
 44 541 184 724 449 724 c 0
 596 724 716 631 726 631 c 0
 733 631 739 641 748 641 c 0
 754 641 764 636 764 625 c 0
 766 561 779 502 779 490 c 0
 779 475 771 473 767 473 c 0
 761 473 754 479 750 486 c 0
 692 591 600 662 470 662 c 0
 305 662 185 550 185 383 c 0
 185 208 274 38 517 38 c 0
 641 38 719 124 759 183 c 0
 763 190 767 189 774 189 c 0
 780 189 783 182 783 174 c 0
 783 148 768 90 764 67 c 0
 762 57 756 52 747 48 c 0
 654 2 582 -32 471 -32 c 0
 148 -32 44 160 44 322 c 0
307 920 m 0
 307 930 320 930 324 930 c 0
 344 930 466 845 476 845 c 0
 496 845 610 929 631 929 c 0
 635 929 646 928 646 922 c 0
 646 920 643 915 640 910 c 0
 510 753 525 737 499 737 c 2
 462 737 l 2
 453 737 443 737 434 751 c 0
 377 835 307 908 307 920 c 0
EndSplineSet
EndChar
StartChar: ccaron
Encoding: 269 269 493
Width: 490
Flags: MW
LayerCount: 2
Back
Fore
SplineSet
39 189 m 0
 39 318 139 439 296 439 c 0
 341 439 424 423 426 402 c 0
 427 389 428 368 428 349 c 0
 428 323 425 300 417 300 c 0
 403 300 401 317 384 330 c 0
 361 349 304 379 251 379 c 0
 231 379 152 354 152 224 c 0
 152 129 226 44 323 44 c 0
 403 44 442 93 455 93 c 0
 461 93 466 86 466 80 c 0
 466 69 408 -35 266 -35 c 0
 130 -35 39 48 39 189 c 0
139 656 m 0
 139 666 152 666 156 666 c 0
 176 666 298 581 308 581 c 0
 328 581 442 665 463 665 c 0
 467 665 478 664 478 658 c 0
 478 656 475 651 472 646 c 0
 342 489 357 473 331 473 c 2
 294 473 l 2
 285 473 275 473 266 487 c 0
 209 571 139 644 139 656 c 0
EndSplineSet
EndChar
StartChar: Dcaron
Encoding: 270 270 482
Width: 877
Flags: MW
LayerCount: 2
Back
Fore
SplineSet
20 702 m 0
 20 720 30 721 77 721 c 2
 174 721 l 2
 233 721 316 727 392 727 c 0
 593 727 833 613 833 391 c 0
 833 191 768 129 671 55 c 0
 634 27 540 -13 442 -13 c 0
 415 -13 255 -6 174 -6 c 0
 107 -6 84 -13 62 -13 c 0
 38 -13 35 -5 35 7 c 0
 35 34 50 30 70 42 c 0
 91 51 113 80 113 105 c 0
 113 208 114 285 114 368 c 0
 114 447 113 498 113 614 c 0
 113 635 87 664 60 666 c 0
 39 668 20 668 20 702 c 0
239 146 m 0
 239 63 250 75 330 53 c 0
 351 47 377 43 403 43 c 2
 423 43 l 2
 516 43 574 68 631 121 c 0
 687 173 705 269 705 344 c 0
 705 561 517 661 363 661 c 0
 244 661 244 660 244 538 c 0
 244 500 240 370 240 352 c 0
 240 251 239 187 239 146 c 0
262 920 m 0
 262 930 275 930 279 930 c 0
 299 930 421 845 431 845 c 0
 451 845 565 929 586 929 c 0
 590 929 601 928 601 922 c 0
 601 920 598 915 595 910 c 0
 465 753 480 737 454 737 c 2
 417 737 l 2
 408 737 398 737 389 751 c 0
 332 835 262 908 262 920 c 0
EndSplineSet
EndChar
StartChar: dcroat
Encoding: 273 273 496
Width: 638
Flags: MW
LayerCount: 2
Back
Fore
SplineSet
39 191 m 0
 39 316 129 445 308 445 c 0
 358 445 418 416 433 416 c 0
 436 416 439 422 439 447 c 2
 439 508 l 2
 439 518 439 523 427 523 c 2
 286 523 l 2
 266 523 265 532 265 556 c 0
 265 576 265 590 287 590 c 0
 325 590 377 591 420 591 c 2
 428 591 l 2
 438 591 442 583 442 599 c 0
 442 643 437 671 386 671 c 2
 375 671 l 2
 354 671 354 672 354 683 c 2
 354 685 l 2
 354 708 392 703 482 757 c 0
 499 762 521 772 538 772 c 0
 548 772 555 767 555 752 c 0
 555 737 544 613 544 595 c 0
 544 589 546 588 573 588 c 2
 605 588 l 2
 610 588 617 581 617 555 c 0
 617 526 611 523 605 523 c 2
 559 523 l 2
 543 523 541 522 541 510 c 0
 541 339 538 231 538 162 c 0
 538 75 544 56 574 47 c 0
 590 40 618 41 618 16 c 0
 618 9 613 -2 521 -11 c 0
 485 -14 457 -28 442 -28 c 0
 433 -28 428 -24 428 -13 c 0
 428 0 424 14 424 39 c 0
 424 49 423 63 414 63 c 0
 402 63 358 -28 254 -28 c 0
 111 -28 39 79 39 191 c 0
147 243 m 0
 147 156 209 51 313 51 c 0
 371 51 432 83 432 126 c 0
 434 287 433 271 433 287 c 0
 433 339 419 351 405 359 c 0
 373 377 322 401 286 401 c 0
 197 401 147 331 147 243 c 0
EndSplineSet
EndChar
StartChar: Emacron
Encoding: 274 274 351
Width: 676
Flags: MW
LayerCount: 2
Back
Fore
SplineSet
20 707 m 0
 20 725 43 728 52 728 c 0
 61 728 72 725 83 725 c 0
 110 725 248 717 361 717 c 0
 407 717 554 724 588 724 c 0
 596 724 610 721 610 698 c 0
 610 676 598 640 598 584 c 0
 598 571 586 560 574 560 c 0
 562 560 551 566 551 579 c 0
 551 611 525 643 489 645 c 0
 422 650 402 651 345 651 c 2
 318 651 l 2
 245 651 247 650 244 595 c 0
 241 562 238 485 238 443 c 0
 238 427 239 397 257 396 c 2
 283 396 l 1
 325 396 l 1
 357 396 l 2
 444 396 456 401 475 413 c 0
 492 424 496 437 498 447 c 0
 501 456 504 463 519 463 c 0
 537 463 539 459 539 446 c 0
 539 427 526 372 526 335 c 0
 526 299 531 291 531 271 c 0
 531 246 525 245 520 245 c 0
 502 245 493 254 487 267 c 0
 481 283 477 303 462 312 c 0
 441 325 370 324 366 324 c 0
 279 324 289 326 278 326 c 0
 257 326 236 324 236 309 c 0
 236 257 233 228 233 176 c 2
 233 139 l 2
 233 109 241 71 259 66 c 0
 283 60 290 59 306 59 c 0
 676 59 612 146 643 146 c 0
 650 146 656 141 656 127 c 0
 656 59 568 -21 523 -21 c 0
 378 -21 281 -7 212 -7 c 0
 150 -7 113 -20 58 -20 c 0
 47 -20 34 -21 34 -5 c 0
 34 35 35 11 77 41 c 0
 108 56 116 81 116 233 c 2
 116 357 l 2
 116 412 120 466 120 528 c 0
 120 557 120 586 118 618 c 0
 116 660 75 679 36 680 c 0
 20 680 20 693 20 707 c 0
202 854 m 0
 202 877 216 883 226 883 c 0
 436 883 367 880 497 880 c 0
 515 880 520 877 520 836 c 0
 520 818 502 814 499 814 c 0
 472 814 271 816 217 816 c 0
 211 816 202 819 202 854 c 0
EndSplineSet
EndChar
StartChar: emacron
Encoding: 275 275 346
Width: 552
Flags: MW
LayerCount: 2
Back
Fore
SplineSet
39 188 m 0
 39 324 138 438 287 438 c 0
 470 438 512 283 512 267 c 0
 512 252 497 248 465 248 c 2
 203 248 l 1
 169 248 l 2
 156 248 156 247 156 238 c 0
 156 119 255 57 351 57 c 0
 433 57 481 97 501 97 c 0
 507 97 513 91 513 86 c 0
 513 72 440 -35 297 -35 c 0
 166 -35 39 32 39 188 c 0
165 298 m 0
 165 290 167 285 178 285 c 0
 223 285 334 294 351 294 c 0
 370 294 372 296 372 304 c 0
 372 327 344 400 266 400 c 0
 195 400 165 329 165 298 c 0
126 590 m 0
 126 613 140 619 150 619 c 0
 360 619 291 616 421 616 c 0
 439 616 444 613 444 572 c 0
 444 554 426 550 423 550 c 0
 396 550 195 552 141 552 c 0
 135 552 126 555 126 590 c 0
EndSplineSet
EndChar
StartChar: edotaccent
Encoding: 279 279 551
Width: 552
Flags: MW
LayerCount: 2
Back
Fore
SplineSet
39 188 m 0
 39 324 138 438 287 438 c 0
 470 438 512 283 512 267 c 0
 512 252 497 248 465 248 c 2
 203 248 l 1
 169 248 l 2
 156 248 156 247 156 238 c 0
 156 119 255 57 351 57 c 0
 433 57 481 97 501 97 c 0
 507 97 513 91 513 86 c 0
 513 72 440 -35 297 -35 c 0
 166 -35 39 32 39 188 c 0
165 298 m 0
 165 290 167 285 178 285 c 0
 223 285 334 294 351 294 c 0
 370 294 372 296 372 304 c 0
 372 327 344 400 266 400 c 0
 195 400 165 329 165 298 c 0
186 562 m 0
 186 582 228 645 261 645 c 0
 296 645 332 590 332 560 c 0
 332 524 274 477 260 477 c 0
 216 477 186 538 186 562 c 0
EndSplineSet
EndChar
StartChar: Eogonek
Encoding: 280 280 481
Width: 693
Flags: MW
LayerCount: 2
Back
Fore
SplineSet
20 707 m 0
 20 725 44 728 53 728 c 0
 62 728 72 725 84 725 c 0
 112 725 254 717 370 717 c 0
 417 717 570 724 605 724 c 0
 613 724 627 721 627 698 c 0
 627 676 615 640 615 584 c 0
 615 571 603 560 591 560 c 0
 579 560 568 566 568 579 c 0
 568 611 540 642 503 645 c 0
 432 650 412 651 351 651 c 2
 322 651 l 2
 245 651 247 650 244 595 c 0
 241 562 238 485 238 443 c 0
 238 427 239 397 259 396 c 2
 287 396 l 1
 334 396 l 1
 368 396 l 2
 464 396 476 401 497 413 c 0
 534 433 515 463 539 463 c 0
 552 463 553 459 553 446 c 0
 553 427 545 372 545 335 c 0
 545 299 548 291 548 271 c 0
 548 246 543 245 540 245 c 0
 510 245 518 296 488 312 c 0
 465 325 385 324 381 324 c 0
 284 324 294 326 282 326 c 0
 259 326 236 324 236 309 c 0
 236 257 233 228 233 176 c 2
 233 139 l 2
 233 109 241 71 260 66 c 0
 285 60 292 59 309 59 c 0
 787 59 626 146 659 146 c 0
 666 146 673 142 673 130 c 0
 673 120 670 110 666 100 c 0
 645 49 602 26 570 7 c 0
 569 6 509 -22 509 -79 c 0
 509 -131 544 -153 576 -153 c 0
 609 -153 624 -136 633 -136 c 0
 635 -136 641 -136 641 -144 c 0
 641 -169 599 -215 531 -215 c 0
 451 -215 414 -167 414 -125 c 0
 414 -64 511 -21 511 -19 c 0
 511 -18 505 -17 497 -17 c 0
 372 -15 283 -7 219 -7 c 0
 154 -7 117 -20 59 -20 c 0
 47 -20 34 -21 34 -5 c 0
 34 35 35 11 77 41 c 0
 108 56 116 81 116 233 c 2
 116 357 l 2
 116 412 120 466 120 528 c 0
 120 557 120 586 118 618 c 0
 116 660 75 679 36 680 c 0
 20 682 20 693 20 707 c 0
EndSplineSet
EndChar
StartChar: eogonek
Encoding: 281 281 494
Width: 552
Flags: MW
LayerCount: 2
Back
Fore
SplineSet
39 188 m 0
 39 325 138 438 287 438 c 0
 470 438 512 283 512 267 c 0
 512 252 497 248 465 248 c 2
 203 248 l 1
 169 248 l 2
 156 248 156 247 156 238 c 0
 156 118 255 56 351 56 c 0
 433 56 481 97 501 97 c 0
 507 97 513 92 513 88 c 0
 513 65 403 19 372 -16 c 0
 359 -31 346 -49 346 -75 c 0
 346 -112 366 -132 384 -142 c 0
 401 -151 414 -153 427 -153 c 0
 467 -153 482 -136 493 -136 c 0
 496 -136 503 -136 503 -144 c 0
 503 -168 465 -215 397 -215 c 0
 374 -215 360 -211 344 -204 c 0
 309 -188 287 -157 287 -125 c 0
 287 -68 338 -35 338 -31 c 0
 338 -30 336 -29 335 -29 c 0
 334 -29 314 -36 282 -36 c 0
 159 -36 39 31 39 188 c 0
165 298 m 0
 165 290 167 285 178 285 c 0
 223 285 334 294 351 294 c 0
 370 294 372 296 372 304 c 0
 372 327 344 400 266 400 c 0
 195 400 165 329 165 298 c 0
EndSplineSet
EndChar
StartChar: gcircumflex
Encoding: 285 285 511
Width: 596
Flags: MW
LayerCount: 2
Back
Fore
SplineSet
39 -103 m 0
 39 -41 147 -26 147 -16 c 0
 147 -10 97 0 97 45 c 0
 97 114 175 136 175 146 c 0
 175 162 73 176 73 283 c 0
 73 336 110 439 288 439 c 0
 397 439 428 388 445 388 c 0
 464 388 484 400 508 409 c 0
 540 422 532 465 553 465 c 0
 557 465 569 465 569 456 c 0
 569 419 551 375 538 360 c 0
 523 342 501 333 481 327 c 1
 481 327 497 296 497 276 c 0
 497 189 412 120 305 120 c 0
 253 120 232 134 215 134 c 0
 213 134 163 133 163 95 c 0
 163 56 225 53 325 53 c 2
 380 53 l 2
 437 53 555 50 555 -44 c 0
 555 -63 554 -81 546 -97 c 0
 513 -169 404 -215 274 -215 c 0
 175 -215 39 -192 39 -103 c 0
126 -95 m 0
 126 -150 198 -173 275 -173 c 0
 365 -173 463 -145 463 -99 c 0
 463 -57 400 -57 334 -57 c 2
 323 -57 l 2
 261 -57 193 -36 180 -36 c 0
 170 -36 126 -58 126 -95 c 0
124 481 m 0
 124 483 127 488 130 493 c 0
 260 650 245 666 271 666 c 2
 309 666 l 2
 318 666 325 666 334 652 c 0
 391 568 463 495 463 483 c 0
 463 473 451 473 447 473 c 0
 427 473 302 558 292 558 c 0
 272 558 160 474 139 474 c 0
 135 474 124 475 124 481 c 0
187 290 m 0
 187 214 229 156 287 156 c 0
 350 156 380 211 380 270 c 0
 380 336 344 405 276 405 c 0
 230 405 187 367 187 290 c 0
EndSplineSet
EndChar
StartChar: Gdotaccent
Encoding: 288 288 535
Width: 912
Flags: MW
LayerCount: 2
Back
Fore
SplineSet
44 328 m 0
 44 547 196 729 485 729 c 0
 677 729 756 639 766 639 c 0
 774 639 788 653 797 653 c 0
 808 653 814 644 814 634 c 0
 817 572 835 515 835 504 c 0
 835 489 823 488 817 488 c 0
 808 488 796 492 791 499 c 0
 742 594 611 669 489 669 c 0
 320 669 185 567 185 382 c 0
 185 207 294 34 481 34 c 0
 585 34 681 86 690 142 c 0
 692 150 694 221 694 260 c 0
 694 287 687 304 677 313 c 0
 665 324 648 326 633 328 c 0
 613 331 596 331 596 361 c 0
 596 370 601 378 618 378 c 0
 648 378 720 370 750 370 c 0
 805 370 860 372 864 372 c 0
 869 372 883 371 883 363 c 0
 883 346 829 346 823 315 c 0
 817 283 816 243 816 198 c 0
 816 105 823 92 823 81 c 0
 823 68 792 72 752 52 c 0
 738 45 621 -28 496 -28 c 0
 155 -28 44 152 44 328 c 0
375 826 m 0
 375 846 417 909 450 909 c 0
 485 909 521 854 521 824 c 0
 521 788 463 741 449 741 c 0
 405 741 375 802 375 826 c 0
EndSplineSet
EndChar
StartChar: gdotaccent
Encoding: 289 289 554
Width: 596
Flags: MW
LayerCount: 2
Back
Fore
SplineSet
39 -103 m 0
 39 -41 147 -26 147 -16 c 0
 147 -10 97 0 97 45 c 0
 97 114 175 136 175 146 c 0
 175 162 73 176 73 283 c 0
 73 336 110 439 288 439 c 0
 397 439 428 388 445 388 c 0
 464 388 484 400 508 409 c 0
 540 422 532 465 553 465 c 0
 557 465 569 465 569 456 c 0
 569 419 551 375 538 360 c 0
 523 342 501 333 481 327 c 1
 481 327 497 296 497 276 c 0
 497 189 412 120 305 120 c 0
 253 120 232 134 215 134 c 0
 213 134 163 133 163 95 c 0
 163 56 225 53 325 53 c 2
 380 53 l 2
 437 53 555 50 555 -44 c 0
 555 -63 554 -81 546 -97 c 0
 513 -169 404 -215 274 -215 c 0
 175 -215 39 -192 39 -103 c 0
126 -95 m 0
 126 -150 198 -173 275 -173 c 0
 365 -173 463 -145 463 -99 c 0
 463 -57 400 -57 334 -57 c 2
 323 -57 l 2
 261 -57 193 -36 180 -36 c 0
 170 -36 126 -58 126 -95 c 0
187 290 m 0
 187 214 229 156 287 156 c 0
 350 156 380 211 380 270 c 0
 380 336 344 405 276 405 c 0
 230 405 187 367 187 290 c 0
190 562 m 0
 190 582 232 645 265 645 c 0
 300 645 336 590 336 560 c 0
 336 524 278 477 264 477 c 0
 220 477 190 538 190 562 c 0
EndSplineSet
EndChar
StartChar: Hbar
Encoding: 294 294 521
Width: 870
Flags: MW
LayerCount: 2
Back
Fore
SplineSet
20 696 m 0
 20 712 37 712 52 712 c 0
 84 712 118 706 182 706 c 0
 232 706 211 709 284 709 c 0
 292 709 309 708 309 688 c 0
 309 674 306 662 274 662 c 0
 243 662 236 594 236 556 c 0
 236 551 236 551 244 551 c 0
 282 551 394 552 615 552 c 0
 630 552 632 554 632 580 c 0
 632 790 548 658 548 696 c 0
 548 704 566 706 594 706 c 0
 622 706 662 703 708 703 c 0
 736 703 757 706 799 706 c 0
 810 706 826 701 826 686 c 0
 826 666 816 667 812 667 c 0
 756 667 754 624 754 581 c 2
 754 564 l 2
 754 554 757 552 771 552 c 2
 814 552 l 2
 834 552 835 542 835 518 c 0
 835 498 834 485 812 485 c 2
 771 485 l 2
 756 485 752 484 752 468 c 0
 752 432 751 400 751 365 c 0
 751 320 748 275 748 224 c 2
 748 189 l 2
 748 138 754 129 754 103 c 0
 754 48 811 36 838 33 c 0
 841 33 850 31 850 16 c 0
 850 1 835 0 793 0 c 0
 766 0 738 8 704 8 c 0
 660 8 650 0 595 0 c 0
 565 0 553 0 553 12 c 0
 553 30 614 26 621 62 c 0
 626 87 628 111 628 132 c 0
 628 151 629 169 629 184 c 0
 629 219 632 259 632 302 c 0
 632 319 628 328 599 328 c 0
 573 328 452 325 446 325 c 0
 363 325 326 328 262 328 c 0
 244 328 238 326 238 294 c 0
 238 250 232 218 232 183 c 2
 232 144 l 2
 232 98 234 74 279 49 c 0
 284 46 302 44 323 44 c 0
 333 44 342 35 342 27 c 0
 342 3 324 0 305 0 c 0
 243 0 249 6 211 6 c 0
 152 6 129 -2 88 -2 c 0
 41 -2 34 5 34 13 c 0
 34 39 93 -23 108 75 c 0
 111 90 120 219 120 333 c 2
 120 388 l 2
 120 412 122 444 122 479 c 0
 122 486 118 486 111 486 c 2
 52 486 l 2
 47 486 40 494 40 520 c 0
 40 548 45 551 51 551 c 2
 111 551 l 2
 120 551 122 553 122 562 c 0
 121 583 119 604 116 623 c 0
 111 655 70 670 41 670 c 0
 25 670 20 692 20 696 c 0
233 422 m 0
 233 395 238 392 267 392 c 2
 431 392 l 2
 453 392 486 392 616 390 c 0
 632 390 631 403 632 433 c 2
 632 471 l 2
 632 484 630 485 615 485 c 0
 536 485 487 484 452 484 c 0
 353 484 299 485 270 485 c 0
 236 485 236 485 236 480 c 0
 236 454 233 435 233 422 c 0
EndSplineSet
EndChar
StartChar: hbar
Encoding: 295 295 585
Width: 657
Flags: MW
LayerCount: 2
Back
Fore
SplineSet
20 550 m 0
 20 570 20 584 43 584 c 2
 87 584 l 2
 97 584 98 588 98 595 c 0
 98 684 81 690 55 690 c 0
 40 690 40 691 37 691 c 0
 26 691 20 695 20 701 c 0
 20 720 73 722 106 734 c 0
 139 746 180 762 195 762 c 0
 210 762 211 746 211 739 c 0
 211 715 203 811 203 598 c 0
 203 584 206 582 216 582 c 2
 358 582 l 2
 363 582 370 575 370 549 c 0
 370 520 364 517 358 517 c 2
 216 517 l 2
 204 517 202.327151082 514.995539678 202 503 c 0
 199 393 194 392 194 378 c 0
 194 367 195 358 203 358 c 0
 214 358 268 441 360 441 c 0
 475 441 550 385 550 249 c 2
 550 108 l 2
 550 93 555 54 583 51 c 0
 613 47 637 38 637 20 c 0
 637 0 620 -4 601 -4 c 0
 587 -4 527 3 503 3 c 0
 484 3 422 -2 413 -2 c 0
 398 -2 387 0 387 8 c 0
 387 40 439 0 439 69 c 4
 439 85 442 69 442 228 c 0
 442 307 384 372 318 372 c 0
 280 372 244 352 221 336 c 0
 197 319 193 300 193 167 c 2
 193 146 l 2
 193 102 196 60 234 45 c 0
 255 31 286 45 286 18 c 0
 286 9 280 0 273 0 c 0
 272 0 154 8 148 8 c 0
 132 8 82 0 65 0 c 0
 23 0 34 6 34 15 c 0
 34 23 35 30 46 35 c 0
 87 46 92 69 92 107 c 2
 98 429 l 1
 98 504 l 2
 98 515 96 517 84 517 c 2
 42 517 l 2
 21 517 20 526 20 550 c 0
EndSplineSet
EndChar
StartChar: Itilde
Encoding: 296 296 359
Width: 366
Flags: MW
LayerCount: 2
Back
Fore
SplineSet
2 783 m 0
 2 807 80 939 148 939 c 0
 222 939 261 867 335 867 c 0
 385 867 414 947 428 947 c 0
 434 947 443 944 443 929 c 0
 443 902 367 779 299 779 c 0
 224 779 176 852 110 852 c 0
 58 852 31 771 17 771 c 0
 11 771 2 773 2 783 c 0
20 688 m 0
 20 698 24 710 52 710 c 0
 84 710 118 704 182 704 c 0
 231 704 211 707 283 707 c 0
 291 707 314 705 314 686 c 0
 314 673 297 664 269 646 c 0
 242 636 238 574 238 537 c 0
 238 315 233 275 233 188 c 0
 233 130 239 100 258 74 c 0
 279 47 296 45 306 45 c 0
 309 45 323 44 326 44 c 0
 336 44 347 35 347 27 c 0
 347 3 338 0 319 0 c 0
 258 0 248 6 210 6 c 0
 151 6 126 -2 85 -2 c 0
 38 -2 34 5 34 13 c 0
 34 39 85 -2 108 76 c 0
 110.33203125 83.9091796875 119 270 119 337 c 2
 119 393 l 2
 119 421 120 459 120 499 c 2
 120 544 l 2
 120 569 119 593 116 615 c 0
 111 650 69 664 41 665 c 0
 21 667 20 680 20 688 c 0
EndSplineSet
EndChar
StartChar: Iogonek
Encoding: 302 302 537
Width: 366
Flags: MW
LayerCount: 2
Back
Fore
SplineSet
20 688 m 0
 20 698 24 710 52 710 c 0
 84 710 118 704 182 704 c 0
 231 704 211 707 283 707 c 0
 291 707 314 705 314 686 c 0
 314 673 297 664 269 646 c 0
 242 636 238 574 238 537 c 0
 238 315 233 275 233 188 c 0
 233 130 239 100 258 74 c 0
 279 47 296 45 306 45 c 0
 309 45 323 44 326 44 c 0
 336 44 347 35 347 27 c 0
 347 3 338 0 319 0 c 0
 272 0 255 4 247 4 c 0
 198 4 180 -54 180 -82 c 0
 180 -116 208 -147 239 -147 c 0
 268 -147 277 -137 286 -137 c 0
 290 -137 293 -139 293 -147 c 0
 293 -166 252 -204 192 -204 c 0
 123 -204 82 -158 82 -115 c 0
 82 -37 168 -13 168 -1 c 0
 168 2 165 3 157 3 c 0
 150 3 117 -2 84 -2 c 0
 36 -2 32 5 32 13 c 0
 32 39 93 -22 108 76 c 0
 110 84 119 270 119 337 c 2
 119 393 l 2
 119 421 120 459 120 499 c 2
 120 544 l 2
 120 569 119 593 116 615 c 0
 111 650 69 664 41 665 c 0
 21 667 20 680 20 688 c 0
EndSplineSet
EndChar
StartChar: iogonek
Encoding: 303 303 555
Width: 327
Flags: MW
LayerCount: 2
Back
Fore
SplineSet
36 341 m 0
 36 355 68 356 139 377 c 0
 185 390 182 393 202 393 c 0
 210 393 221 388 221 376 c 0
 221 365 212 348 212 333 c 2
 212 89 l 2
 212 -73 305 41 305 10 c 0
 305 5 304 -5 284 -5 c 0
 230 -5 222 -3 216 -3 c 0
 201 -3 145 -13 145 -83 c 0
 145 -117 180 -147 214 -147 c 0
 246 -147 254 -137 264 -137 c 0
 268 -137 273 -139 273 -147 c 0
 273 -166 230 -204 167 -204 c 0
 94 -204 55 -153 55 -110 c 0
 55 -36 149 -12 149 -5 c 0
 149 -4 147 -2 140 -2 c 0
 139 -2 138 -3 137 -3 c 0
 117 -3 106 -4 92 -4 c 0
 61 -4 43 -2 43 7 c 0
 43 13 49 21 59 24 c 0
 102 36 104 31 104 185 c 2
 104 264 l 2
 104 388 68 325 46 332 c 0
 41 334 36 337 36 341 c 0
88 562 m 0
 88 582 130 645 163 645 c 0
 197 645 232 590 232 560 c 0
 232 524 176 477 162 477 c 0
 118 477 88 538 88 562 c 0
EndSplineSet
EndChar
StartChar: Idotaccent
Encoding: 304 304 536
Width: 366
Flags: MW
LayerCount: 2
Back
Fore
SplineSet
20 688 m 0
 20 698 24 710 52 710 c 0
 84 710 118 704 182 704 c 0
 231 704 211 707 283 707 c 0
 291 707 314 705 314 686 c 0
 314 673 297 664 269 646 c 0
 242 636 238 574 238 537 c 0
 238 315 233 275 233 188 c 0
 233 130 239 100 258 74 c 0
 279 47 296 45 306 45 c 0
 309 45 323 44 326 44 c 0
 336 44 347 35 347 27 c 0
 347 3 338 0 319 0 c 0
 258 0 248 6 210 6 c 0
 151 6 126 -2 85 -2 c 0
 38 -2 34 5 34 13 c 0
 34 39 85 -2 108 76 c 0
 110.33203125 83.9091796875 119 270 119 337 c 2
 119 393 l 2
 119 421 120 459 120 499 c 2
 120 544 l 2
 120 569 119 593 116 615 c 0
 111 650 69 664 41 665 c 0
 21 667 20 680 20 688 c 0
103 826 m 0
 103 846 145 909 178 909 c 0
 213 909 249 854 249 824 c 0
 249 788 191 741 177 741 c 0
 133 741 103 802 103 826 c 0
EndSplineSet
EndChar
StartChar: IJ
Encoding: 306 306 522
Width: 658
Flags: MW
LayerCount: 2
Back
Fore
SplineSet
20 688 m 0
 20 698 24 710 52 710 c 0
 84 710 118 704 182 704 c 0
 231 704 211 707 283 707 c 0
 291 707 314 705 314 686 c 0
 314 673 297 664 269 646 c 0
 242 636 238 574 238 537 c 0
 238 315 233 275 233 188 c 0
 233 130 239 100 258 74 c 0
 279 47 296 45 306 45 c 0
 309 45 323 44 326 44 c 0
 336 44 347 35 347 27 c 0
 347 3 338 0 319 0 c 0
 258 0 248 6 210 6 c 0
 151 6 126 -2 85 -2 c 0
 38 -2 34 5 34 13 c 0
 34 39 85 -2 108 76 c 0
 110.33203125 83.9091796875 119 270 119 337 c 2
 119 393 l 2
 119 421 120 459 120 499 c 2
 120 544 l 2
 120 569 119 593 116 615 c 0
 111 650 69 664 41 665 c 0
 21 667 20 680 20 688 c 0
283 -158 m 0
 283 -132 303 -85 314 -85 c 0
 331 -85 335 -118 372 -118 c 0
 412 -118 433 -86 441 -42 c 0
 450 4 454 43 454 75 c 0
 454 98 453 192 453 194 c 0
 453 260 448 12 448 525 c 0
 448 561 448 596 445 621 c 0
 441 655 398 667 370 668 c 0
 350 670 348 688 348 696 c 0
 348 710 354 722 382 722 c 0
 414 722 448 714 513 714 c 0
 563 714 534 715 607 715 c 0
 615 715 639 715 639 696 c 0
 639 683 622 672 593 654 c 0
 574 647 572 617 572 586 c 2
 572 540 l 2
 572 54 569 102 569 54 c 0
 569 -103 454 -208 329 -208 c 0
 312 -208 283 -206 283 -158 c 0
EndSplineSet
EndChar
StartChar: ij
Encoding: 307 307 526
Width: 608
Flags: MW
LayerCount: 2
Back
Fore
SplineSet
36 344 m 0
 36 358 68 359 139 380 c 0
 185 394 182 396 202 396 c 0
 210 396 221 392 221 380 c 0
 221 370 212 354 212 339 c 2
 212 104 l 2
 212 48 246 43 273 41 c 0
 291 39 305 39 305 18 c 0
 305 9 304 -7 285 -7 c 0
 280 -7 272 -6 266 -6 c 0
 215 -6 227 -2 181 -2 c 0
 130 -2 115 -6 95 -6 c 0
 65 -6 47 -3 47 6 c 0
 47 12 53 20 62 23 c 0
 102 35 104 30 104 186 c 2
 104 265 l 2
 104 351 68 328 46 335 c 0
 41 337 36 340 36 344 c 0
88 562 m 0
 88 582 130 645 163 645 c 0
 197 645 232 590 232 560 c 0
 232 524 176 477 162 477 c 0
 118 477 88 538 88 562 c 0
302 -134 m 0
 302 -113 307 -98 324 -98 c 0
 345 -98 366 -139 382 -139 c 0
 399 -139 405 -106 405 15 c 2
 405 305 l 2
 405 326 404 361 346 361 c 0
 337 361 330 362 330 376 c 0
 330 396 367 388 440 431 c 0
 466 441 488 452 498 452 c 0
 512 452 513 442 513 428 c 2
 513 417 l 2
 513 400 510 380 510 368 c 2
 510 31 l 2
 510 -67 477 -213 351 -213 c 0
 321 -213 304 -204 304 -179 c 0
 304 -165 302 -148 302 -134 c 0
395 591 m 0
 395 617 433 668 466 668 c 0
 501 668 538 621 538 591 c 0
 538 555 486 511 472 511 c 0
 428 511 395 567 395 591 c 0
EndSplineSet
EndChar
StartChar: jcircumflex
Encoding: 309 309 513
Width: 281
Flags: MW
LayerCount: 2
Back
Fore
SplineSet
23 -134 m 0
 23 -113 28 -98 45 -98 c 0
 66 -98 87 -139 103 -139 c 0
 120 -139 126 -106 126 15 c 2
 126 305 l 2
 126 326 125 361 67 361 c 0
 58 361 51 362 51 376 c 0
 51 396 88 388 161 431 c 0
 187 441 209 452 219 452 c 0
 233 452 234 442 234 428 c 2
 234 417 l 2
 234 400 231 380 231 368 c 2
 231 31 l 2
 231 -67 198 -213 72 -213 c 0
 42 -213 25 -204 25 -179 c 0
 25 -165 23 -148 23 -134 c 0
27 481 m 0
 27 483 30 488 33 493 c 0
 163 650 148 666 174 666 c 2
 212 666 l 2
 221 666 228 666 237 652 c 0
 294 568 366 495 366 483 c 0
 366 473 354 473 350 473 c 0
 330 473 205 558 195 558 c 0
 175 558 63 474 42 474 c 0
 38 474 27 475 27 481 c 0
EndSplineSet
EndChar
StartChar: kcommaaccent
Encoding: 311 311 556
Width: 581
Flags: MW
LayerCount: 2
Back
Fore
SplineSet
0 685 m 0
 0 697 13 706 59 724 c 0
 122 740 102 733 148 756 c 0
 158 761 175 769 188 769 c 0
 201 769 205 759 205 750 c 0
 205 740 198 685 198 495 c 0
 198 426 193 357 193 288 c 2
 193 267 l 2
 193 246 194 225 197 225 c 0
 211 225 216 236 229 247 c 0
 362 350 369 364 369 370 c 0
 369 393 324 391 324 408 c 0
 324 414 327 417 336 417 c 0
 341 417 346 417 354 417 c 0
 435 419 478 421 501 421 c 0
 523 421 527 418 527 412 c 0
 527 392 497 408 437 369 c 0
 427 363 427.399414062 361.797851562 390 333 c 0
 290 256 309 256 309 244 c 0
 309 237 314 228 320 220 c 0
 392 131 427.528320312 82.650390625 457 52 c 0
 507 -0 563 28 563 4 c 0
 563 -13 550 -13 522 -13 c 0
 509 -13 412 -12 402 -12 c 4
 372 -12 264.268554688 146.641601562 234 187 c 0
 231 191 227 193 223 193 c 0
 211 193 192 172 192 146 c 0
 192 141 193 136 193 129 c 0
 197 34 194 57 211 33 c 0
 226 11 286 19 286 0 c 0
 286 -14 255 -16 250 -16 c 0
 238 -16 175 -7 138 -7 c 0
 104 -7 103 -13 53 -13 c 0
 38 -13 25 -12 25 5 c 0
 25 25 43 28 50 31 c 0
 82 43 84 61 84 121 c 0
 84 140 86 156 86 164 c 2
 88 596 l 2
 88 661 59 670 40 670 c 0
 33 670 28 668 20 668 c 0
 9 668 0 671 0 685 c 0
215 -58 m 0
 215 -52 226 -43 240 -31 c 0
 251 -22 261 -5 277 -5 c 0
 284 -5 342 -29 342 -97 c 0
 342 -198 255 -241 236 -241 c 0
 228 -241 225 -233 225 -230 c 0
 225 -215 267 -210 267 -148 c 0
 267 -82 215 -88 215 -58 c 0
EndSplineSet
EndChar
StartChar: kra
Encoding: 312 312 527
Width: 580
Flags: MW
LayerCount: 2
Back
Fore
SplineSet
0 364 m 0
 0 376 13 385 59 403 c 0
 122 419 101 412 147 435 c 0
 157 440 174 448 187 448 c 0
 200 448 204 438 204 429 c 0
 204 419 196 406 196 390 c 0
 196 378 192 316 192 289 c 2
 192 268 l 2
 192 247 193 225 196 225 c 0
 210 225 215 237 228 248 c 0
 361 356 368 372 368 378 c 0
 368 402 323 400 323 418 c 0
 323 424 326 428 335 428 c 0
 340 428 345 427 353 427 c 0
 434 429 477 432 500 432 c 0
 522 432 526 429 526 423 c 0
 526 402 496 418 436 378 c 0
 426 372 425.080652489 373.35580514 389 342 c 0
 305 269 301 266 301 254 c 0
 301 247 306 238 312 230 c 0
 384 139 426.044635816 85.107493576 456 54 c 0
 508 2.13162820728e-14 562 30 562 5 c 0
 562 -13 549 -13 521 -13 c 0
 508 -13 411 -12 401 -12 c 0
 371 -12 263.268795814 146.641605582 233 187 c 0
 230 191 226 193 222 193 c 0
 210 193 190 172 190 146 c 0
 190 141 192 136 192 129 c 0
 196 34 193 57 210 33 c 0
 225 11 285 19 285 0 c 0
 285 -14 254 -16 249 -16 c 0
 237 -16 174 -7 137 -7 c 0
 103 -7 103 -13 53 -13 c 0
 38 -13 25 -12 25 5 c 0
 25 25 43 28 50 31 c 0
 81 42 84 59 84 118 c 0
 84 136 86 152 86 160 c 2
 87 277 l 2
 87 341 59 349 40 349 c 0
 33 349 28 347 20 347 c 0
 9 347 0 350 0 364 c 0
EndSplineSet
EndChar
StartChar: Lacute
Encoding: 313 313 478
Width: 649
Flags: MW
LayerCount: 2
Back
Fore
SplineSet
20 693 m 0
 20 716 43 721 52 721 c 0
 61 721 71 718 83 718 c 0
 111 718 138 712 185 712 c 0
 248 712 286 718 307 718 c 0
 322 718 327 716 327 708 c 0
 327 665 250 728 245 601 c 0
 242.552734375 538.846679688 232 196 232 185 c 2
 232 145 l 2
 232 112 239 72 256 67 c 0
 278 60 285 59 300 59 c 0
 649 59 586 151 615 151 c 0
 621 151 627 145 627 131 c 0
 627 61 543 -21 500 -21 c 0
 362 -21 268 -7 202 -7 c 0
 143 -7 120 -19 67 -19 c 0
 45 -19 36 -11 36 -1 c 0
 36 15 47 23 52 23 c 0
 56 23 67 23 81 33 c 0
 103 50 115 76 115 227 c 2
 115 349 l 2
 115 403 120 460 120 521 c 0
 120 550 118 579 116 611 c 0
 114 653 74 671 35 672 c 0
 21 672 20 681 20 693 c 0
123 715 m 0
 123 736 158 755 236 943 c 0
 246 967 261 972 267 972 c 0
 273 972 345 965 345 933 c 0
 345 901 262 810 200 745 c 0
 178 721 153 698 141 698 c 0
 132 698 123 706 123 715 c 0
EndSplineSet
EndChar
StartChar: lacute
Encoding: 314 314 491
Width: 316
Flags: MW
LayerCount: 2
Back
Fore
SplineSet
20 700 m 0
 20 719 35 713 104 735 c 0
 136 745 173 763 198 763 c 0
 210 763 213 754 213 744 c 0
 213 729 206 683 206 592 c 2
 206 536 l 2
 206 451 203 453 203 403 c 2
 203 105 l 2
 203 73 208 32 284 32 c 0
 291 32 297 20 297 9 c 0
 297 -8 283 -12 261 -12 c 0
 237 -12 180 -1 144 -1 c 0
 91 -1 76 -14 50 -14 c 0
 37 -14 31 -3 31 2 c 0
 31 29 50 24 65 35 c 0
 89 46 92 65 92 100 c 0
 92 108 90 116 90 126 c 2
 90 200 l 2
 90 285 96 497 96 624 c 0
 96 655 84 683 72 688 c 0
 65 691 51 692 31 692 c 0
 25 692 20 693 20 700 c 0
91 749 m 0
 91 770 126 789 204 977 c 0
 214 1001 229 1006 235 1006 c 0
 241 1006 313 999 313 967 c 0
 313 935 230 844 168 779 c 0
 146 755 121 732 109 732 c 0
 100 732 91 740 91 749 c 0
EndSplineSet
EndChar
StartChar: lcommaaccent
Encoding: 316 316 558
Width: 316
Flags: MW
LayerCount: 2
Back
Fore
SplineSet
20 700 m 0
 20 719 35 713 104 735 c 0
 136 745 173 763 198 763 c 0
 210 763 213 754 213 744 c 0
 213 729 206 683 206 592 c 2
 206 536 l 2
 206 451 203 453 203 403 c 2
 203 105 l 2
 203 73 208 32 284 32 c 0
 291 32 297 20 297 9 c 0
 297 -8 283 -12 261 -12 c 0
 237 -12 180 -1 144 -1 c 0
 91 -1 76 -14 50 -14 c 0
 37 -14 31 -3 31 2 c 0
 31 29 50 24 65 35 c 0
 89 46 92 65 92 100 c 0
 92 108 90 116 90 126 c 2
 90 200 l 2
 90 285 96 497 96 624 c 0
 96 655 84 683 72 688 c 0
 65 691 51 692 31 692 c 0
 25 692 20 693 20 700 c 0
84 -58 m 0
 84 -52 95 -43 109 -31 c 0
 120 -22 130 -5 146 -5 c 0
 153 -5 211 -29 211 -97 c 0
 211 -198 124 -241 105 -241 c 0
 97 -241 94 -233 94 -230 c 0
 94 -215 136 -210 136 -148 c 0
 136 -82 84 -88 84 -58 c 0
EndSplineSet
EndChar
StartChar: Lcaron
Encoding: 317 317 460
Width: 649
Flags: MW
LayerCount: 2
Back
Fore
SplineSet
20 693 m 0
 20 716 43 721 52 721 c 0
 61 721 71 718 83 718 c 0
 111 718 138 712 185 712 c 0
 248 712 286 718 307 718 c 0
 322 718 327 716 327 708 c 0
 327 665 250 728 245 601 c 0
 242.552734375 538.846679688 232 196 232 185 c 2
 232 145 l 2
 232 112 239 72 256 67 c 0
 278 60 285 59 300 59 c 0
 649 59 586 151 615 151 c 0
 621 151 627 145 627 131 c 0
 627 61 543 -21 500 -21 c 0
 362 -21 268 -7 202 -7 c 0
 143 -7 120 -19 67 -19 c 0
 45 -19 36 -11 36 -1 c 0
 36 15 47 23 52 23 c 0
 56 23 67 23 81 33 c 0
 103 50 115 76 115 227 c 2
 115 349 l 2
 115 403 120 460 120 521 c 0
 120 550 118 579 116 611 c 0
 114 653 74 671 35 672 c 0
 21 672 20 681 20 693 c 0
355 739 m 0
 355 745 366 754 380 766 c 0
 391 775 401 792 417 792 c 0
 424 792 482 768 482 700 c 0
 482 599 395 556 376 556 c 0
 368 556 365 564 365 567 c 0
 365 582 407 587 407 649 c 0
 407 715 355 709 355 739 c 0
EndSplineSet
EndChar
StartChar: Ldot
Encoding: 319 319 523
Width: 649
Flags: MW
LayerCount: 2
Back
Fore
SplineSet
20 693 m 0
 20 716 43 721 52 721 c 0
 61 721 71 718 83 718 c 0
 111 718 138 712 185 712 c 0
 248 712 286 718 307 718 c 0
 322 718 327 716 327 708 c 0
 327 665 250 728 245 601 c 0
 242.552734375 538.846679688 232 196 232 185 c 2
 232 145 l 2
 232 112 239 72 256 67 c 0
 278 60 285 59 300 59 c 0
 649 59 586 151 615 151 c 0
 621 151 627 145 627 131 c 0
 627 61 543 -21 500 -21 c 0
 362 -21 268 -7 202 -7 c 0
 143 -7 120 -19 67 -19 c 0
 45 -19 36 -11 36 -1 c 0
 36 15 47 23 52 23 c 0
 56 23 67 23 81 33 c 0
 103 50 115 76 115 227 c 2
 115 349 l 2
 115 403 120 460 120 521 c 0
 120 550 118 579 116 611 c 0
 114 653 74 671 35 672 c 0
 21 672 20 681 20 693 c 0
391 334 m 0
 391 354 431 415 464 415 c 0
 498 415 535 359 535 329 c 0
 535 293 478 246 464 246 c 0
 420 246 391 310 391 334 c 0
EndSplineSet
EndChar
StartChar: Lslash
Encoding: 321 321 131
Width: 646
Flags: MW
LayerCount: 2
Back
Fore
SplineSet
20 693 m 0
 20 716 42 721 51 721 c 0
 60 721 71 718 82 718 c 0
 110 718 136 712 182 712 c 0
 244 712 281 718 302 718 c 0
 317 718 322 716 322 708 c 0
 322 664 249 778 242 596 c 0
 240 554 238 449 238 386 c 0
 238 381 239 378 242 378 c 0
 245 378 250 382 259 385 c 2
 475 485 l 2
 485 490 491 492 496 492 c 0
 511 492 515 454 515 452 c 0
 515 441 510 431 489 419 c 2
 250 329 l 2
 239 325 235 322 235 306 c 0
 232 182 232 201 232 178 c 2
 232 141 l 2
 232 110 239 71 256 66 c 0
 278 59 284 59 299 59 c 0
 777 59 581 145 610 145 c 0
 616 145 622 139 622 126 c 0
 622 59 539 -21 496 -21 c 0
 359 -21 266 -7 201 -7 c 0
 142 -7 119 -19 67 -19 c 0
 46 -19 36 -11 36 -1 c 0
 36 15 47 23 52 23 c 0
 56 23 67 23 81 33 c 0
 103 50 115 76 115 230 c 2
 115 285 l 2
 115 292 115 296 112 296 c 0
 111 296 109 294 107 294 c 2
 61 267 l 2
 59 265 57 264 55 264 c 0
 37 264 33 300 33 306 c 0
 33 318 38 323 44 326 c 2
 104 350 l 2
 111 352 115 354 115 363 c 0
 115 415 120 468 120 527 c 0
 120 554 118 583 116 613 c 0
 114 653 74 671 35 672 c 0
 21 672 20 681 20 693 c 0
EndSplineSet
EndChar
StartChar: lslash
Encoding: 322 322 137
Width: 316
Flags: MW
LayerCount: 2
Back
Fore
SplineSet
20 343 m 0
 20 350 22 348 82 383 c 0
 94 390 95 396 95 417 c 0
 97 490 96 566 96 624 c 0
 96 655 84 683 72 688 c 0
 65 691 51 692 31 692 c 0
 25 692 20 693 20 700 c 0
 20 719 35 713 104 735 c 0
 136 745 173 763 198 763 c 0
 210 763 213 754 213 744 c 0
 213 729 206 683 206 592 c 2
 206 536 l 2
 206 484 204 459 204 447 c 0
 204 438 205 437 208 437 c 0
 213 437 251 464 262 464 c 0
 275 464 282 445 282 436 c 0
 282 427 278 426 220 391 c 0
 209 384 203 381 203 361 c 2
 203 105 l 2
 203 73 208 32 284 32 c 0
 291 32 297 20 297 9 c 0
 297 -8 283 -12 261 -12 c 0
 237 -12 180 -1 144 -1 c 0
 91 -1 76 -14 50 -14 c 0
 37 -14 31 -3 31 2 c 0
 31 29 50 24 65 35 c 0
 89 46 92 65 92 100 c 0
 92 108 90 116 90 126 c 2
 90 199 l 2
 90 227 94 269 94 316 c 0
 94 329 92 336 90 336 c 0
 84 336 46 311 42 311 c 0
 33 311 20 323 20 343 c 0
EndSplineSet
EndChar
StartChar: nacute
Encoding: 324 324 497
Width: 660
Flags: MW
LayerCount: 2
Back
Fore
SplineSet
31 370 m 0
 31 389 64 388 91 397 c 0
 145 413 188 442 200 442 c 2
 202 442 l 2
 211 442 213 435 213 426 c 0
 213 417 211 407 211 386 c 0
 211 363 214 356 218 356 c 0
 226 356 229.298828125 371.591796875 269 401 c 0
 296 421 330 430 366 430 c 0
 524 430 558 318 558 267 c 0
 558 251 559 267 559 128 c 2
 559 107 l 2
 559 62 563 45 620 36 c 0
 638 32 640 26 640 14 c 0
 640 2 628 -2 616 -2 c 0
 568 -2 546 6 520 6 c 0
 490 6 443 0 429 0 c 0
 414 0 405 8 405 20 c 0
 405 41 428 40 430 42 c 0
 450 47 452 78 452 102 c 2
 452 224 l 2
 452 324 386 364 323 364 c 0
 257 364 215 320 211 309 c 0
 206 296 202 197 202 167 c 2
 202 133 l 2
 202 81 207 46 259 42 c 0
 265 42 300 38 300 20 c 0
 300 4 288 0 278 0 c 0
 235 0 247 6 194 6 c 0
 145 6 75 0 65 0 c 0
 51 0 48 3 48 9 c 0
 48 38 97 0 100 99 c 0
 101.578125 151.0625 103 142 103 169 c 2
 103 304 l 2
 103 348 83 354 60 354 c 2
 50 354 l 2
 36 354 31 360 31 370 c 0
265 451 m 0
 265 472 300 491 378 679 c 0
 388 703 403 708 409 708 c 0
 415 708 487 701 487 669 c 0
 487 637 404 546 342 481 c 0
 320 457 295 434 283 434 c 0
 274 434 265 442 265 451 c 0
EndSplineSet
EndChar
StartChar: ncommaaccent
Encoding: 326 326 559
Width: 660
Flags: MW
LayerCount: 2
Back
Fore
SplineSet
31 370 m 0
 31 389 64 388 91 397 c 0
 145 413 188 442 200 442 c 2
 202 442 l 2
 211 442 213 435 213 426 c 0
 213 417 211 407 211 386 c 0
 211 363 214 356 218 356 c 0
 226 356 229.298828125 371.591796875 269 401 c 0
 296 421 330 430 366 430 c 0
 524 430 558 318 558 267 c 0
 558 251 559 267 559 128 c 2
 559 107 l 2
 559 62 563 45 620 36 c 0
 638 32 640 26 640 14 c 0
 640 2 628 -2 616 -2 c 0
 568 -2 546 6 520 6 c 0
 490 6 443 0 429 0 c 0
 414 0 405 8 405 20 c 0
 405 41 428 40 430 42 c 0
 450 47 452 78 452 102 c 2
 452 224 l 2
 452 324 386 364 323 364 c 0
 257 364 215 320 211 309 c 0
 206 296 202 197 202 167 c 2
 202 133 l 2
 202 81 207 46 259 42 c 0
 265 42 300 38 300 20 c 0
 300 4 288 0 278 0 c 0
 235 0 247 6 194 6 c 0
 145 6 75 0 65 0 c 0
 51 0 48 3 48 9 c 0
 48 38 97 0 100 99 c 0
 101.578125 151.0625 103 142 103 169 c 2
 103 304 l 2
 103 348 83 354 60 354 c 2
 50 354 l 2
 36 354 31 360 31 370 c 0
266 -58 m 0
 266 -52 277 -43 291 -31 c 0
 302 -22 312 -5 328 -5 c 0
 335 -5 393 -29 393 -97 c 0
 393 -198 306 -241 287 -241 c 0
 279 -241 276 -233 276 -230 c 0
 276 -215 318 -210 318 -148 c 0
 318 -82 266 -88 266 -58 c 0
EndSplineSet
EndChar
StartChar: napostrophe
Encoding: 329 329 529
Width: 894
Flags: MW
LayerCount: 2
Back
Fore
SplineSet
56 689 m 0
 56 701 73 717 90 738 c 0
 105 756 118 785 140 785 c 0
 150 785 223 740 223 617 c 0
 223 434 111 355 86 355 c 0
 76 355 69 368 69 373 c 0
 69 402 125 413 125 526 c 0
 125 646 56 635 56 689 c 0
265 370 m 0
 265 389 298 388 325 397 c 0
 379 413 422 442 434 442 c 2
 436 442 l 2
 445 442 447 435 447 426 c 0
 447 417 445 407 445 386 c 0
 445 363 448 356 452 356 c 0
 460 356 463.298828125 371.591796875 503 401 c 0
 530 421 564 430 600 430 c 0
 758 430 792 318 792 267 c 0
 792 251 793 267 793 128 c 2
 793 107 l 2
 793 62 797 45 854 36 c 0
 872 32 874 26 874 14 c 0
 874 2 862 -2 850 -2 c 0
 802 -2 780 6 754 6 c 0
 724 6 677 0 663 0 c 0
 648 0 639 8 639 20 c 0
 639 41 662 40 664 42 c 0
 684 47 686 78 686 102 c 2
 686 224 l 2
 686 324 620 364 557 364 c 0
 491 364 449 320 445 309 c 0
 440 296 436 197 436 167 c 2
 436 133 l 2
 436 81 441 46 493 42 c 0
 499 42 534 38 534 20 c 0
 534 4 522 0 512 0 c 0
 469 0 481 6 428 6 c 0
 379 6 309 0 299 0 c 0
 285 0 282 3 282 9 c 0
 282 38 331 0 334 99 c 0
 335.578125 151.0625 337 142 337 169 c 2
 337 304 l 2
 337 348 317 354 294 354 c 2
 284 354 l 2
 270 354 265 360 265 370 c 0
EndSplineSet
EndChar
StartChar: Eng
Encoding: 330 330 524
Width: 843
Flags: MW
LayerCount: 2
Back
Fore
SplineSet
20 690 m 0
 20 701 30 716 46 716 c 0
 57 716 76 714 85 714 c 0
 113 714 116 718 136 718 c 0
 148 718 174.373734164 706.430018098 180 700 c 0
 187 692 206.967773438 680.974609375 236 644 c 0
 342 509 548 298 612 229 c 0
 641 198 652 184 659 184 c 0
 668 184 669 214 669 245 c 2
 669 324 l 2
 669 474 666 503 666 524 c 2
 666 531 l 2
 666 669 605 654 558 667 c 0
 542 673 536 684 536 693 c 0
 536 705 539 716 558 716 c 0
 572 716 656 714 669 714 c 0
 718 714 752 718 774 718 c 0
 800 718 809 713 809 692 c 0
 809 675 776 663 774 661 c 0
 765 656 741 633 741 551 c 2
 741 514 l 2
 741 377 725 128 725 32 c 1
 723 -97 626 -218 476 -218 c 0
 432 -218 352 -202 350 -180 c 0
 349 -166 348 -146 348 -126 c 0
 348 -99 351 -75 359 -75 c 0
 372 -75 374 -92 390 -106 c 0
 412 -126 466 -158 517 -158 c 0
 536 -158 612 -132 612 4 c 2
 612 16 l 1
 231 468 218 460 208 460 c 0
 201 460 198 433 198 393 c 0
 198 296 186 178 186 131 c 0
 186 0 284 51 284 19 c 0
 284 3 279 2 267 2 c 0
 236 2 247 4 152 4 c 0
 129 4 100 2 61 2 c 0
 47 2 37 3 37 18 c 0
 37 43 97 0 111 92 c 0
 116.000923702 124.8632129 135 423 135 494 c 0
 135 605 105 659 33 667 c 0
 20 669 20 682 20 690 c 0
EndSplineSet
EndChar
StartChar: eng
Encoding: 331 331 395
Width: 623
Flags: MW
LayerCount: 2
Back
Fore
SplineSet
31 370 m 0
 31 389 64 388 91 397 c 0
 145 413 188 442 200 442 c 2
 202 442 l 2
 211 442 213 435 213 426 c 0
 213 417 211 392 211 371 c 0
 211 348 213 338 217 338 c 0
 225 338 229 364 269 393 c 0
 296 413 330 430 366 430 c 0
 524 430 557 315 557 262 c 0
 557 245 557 164 557 30 c 0
 557 -92 454 -207 292 -207 c 0
 245 -207 160 -192 158 -171 c 0
 157 -158 156 -139 156 -121 c 0
 156 -96 159 -73 167 -73 c 0
 182 -73 184 -89 202 -101 c 0
 226 -119 286 -148 342 -148 c 0
 363 -148 452 -123 452 5 c 0
 452 99 452 220 452 220 c 2
 452 323 386 364 323 364 c 0
 257 364 215 320 211 309 c 0
 206 296 202 197 202 167 c 2
 202 133 l 2
 202 81 207 46 259 42 c 0
 265 42 300 38 300 20 c 0
 300 4 288 0 278 0 c 0
 235 0 247 6 194 6 c 0
 145 6 75 0 65 0 c 0
 51 0 48 3 48 9 c 0
 48 38 96 -79 100 99 c 0
 103 151 103 142 103 169 c 2
 103 304 l 2
 103 348 83 354 60 354 c 2
 50 354 l 2
 36 354 31 360 31 370 c 0
EndSplineSet
EndChar
StartChar: Omacron
Encoding: 332 332 352
Width: 938
Flags: MW
LayerCount: 2
Back
Fore
SplineSet
44 338 m 0
 44 559 191 732 474 732 c 0
 810 732 894 497 894 392 c 0
 894 103 701 -28 458 -28 c 0
 182 -28 44 153 44 338 c 0
176 389 m 0
 176 266 267 39 493 39 c 0
 604 39 771 124 771 302 c 0
 771 546 617 671 441 671 c 0
 307 671 176 586 176 389 c 0
312 854 m 0
 312 877 326 883 336 883 c 0
 546 883 477 880 607 880 c 0
 625 880 630 877 630 836 c 0
 630 818 612 814 609 814 c 0
 582 814 381 816 327 816 c 0
 321 816 312 819 312 854 c 0
EndSplineSet
EndChar
StartChar: Ohungarumlaut
Encoding: 336 336 485
Width: 938
Flags: MW
LayerCount: 2
Back
Fore
SplineSet
44 338 m 0
 44 559 191 732 474 732 c 0
 810 732 894 497 894 392 c 0
 894 103 701 -28 458 -28 c 0
 182 -28 44 153 44 338 c 0
176 389 m 0
 176 266 267 39 493 39 c 0
 604 39 771 124 771 302 c 0
 771 546 617 671 441 671 c 0
 307 671 176 586 176 389 c 0
344 715 m 0
 344 736 356 755 408 943 c 0
 415 967 425 972 429 972 c 0
 433 972 493 965 493 933 c 0
 493 901 437 810 396 745 c 0
 381 721 365 698 357 698 c 0
 351 698 344 706 344 715 c 0
503 715 m 0
 503 736 514 755 566 943 c 4
 573 967 582 972 586 972 c 4
 590 972 651 965 651 933 c 0
 651 901 595 810 554 745 c 0
 539 721 523 698 515 698 c 0
 509 698 503 706 503 715 c 0
EndSplineSet
EndChar
StartChar: ohungarumlaut
Encoding: 337 337 499
Width: 625
Flags: MW
LayerCount: 2
Back
Fore
SplineSet
39 202 m 0
 39 319 131 438 314 438 c 0
 450 438 586 360 586 209 c 0
 586 54 446 -26 306 -26 c 0
 128 -26 39 87 39 202 c 0
158 236 m 0
 158 96 253 20 338 20 c 0
 409 20 473 72 473 180 c 0
 473 282 414 396 291 396 c 0
 233 396 158 355 158 236 c 0
192 451 m 0
 192 472 204 491 256 679 c 0
 263 703 273 708 277 708 c 0
 281 708 341 701 341 669 c 0
 341 637 285 546 244 481 c 0
 229 457 213 434 205 434 c 0
 199 434 192 442 192 451 c 0
351 451 m 0
 351 472 362 491 414 679 c 0
 421 703 430 708 434 708 c 0
 438 708 499 701 499 669 c 0
 499 637 443 546 402 481 c 4
 387 457 371 434 363 434 c 0
 357 434 351 442 351 451 c 0
EndSplineSet
EndChar
StartChar: OE
Encoding: 338 338 133
Width: 1142
Flags: MW
LayerCount: 2
Back
Fore
SplineSet
44 337 m 0
 44 564 191 741 473 741 c 0
 570 741 549 717 834 717 c 0
 878 717 1023 723 1056 723 c 0
 1064 723 1076 720 1076 697 c 0
 1076 675 1064 640 1064 584 c 0
 1064 571 1054 560 1042 560 c 0
 1030 560 1019 566 1019 579 c 0
 1019 611 993 643 959 645 c 0
 895 650 877 651 822 651 c 2
 797 651 l 2
 727 651 729 650 726 595 c 0
 723 562 721 485 721 443 c 0
 721 427 721 397 739 396 c 2
 764 396 l 1
 807 396 l 1
 837 396 l 2
 923 396 934 401 953 413 c 0
 986 433 969 463 991 463 c 0
 1003 463 1004 459 1004 446 c 0
 1004 427 995 372 995 335 c 0
 995 299 999 291 999 271 c 0
 999 246 995 245 992 245 c 0
 965 245 972 296 945 312 c 0
 924 325 852 324 848 324 c 0
 761 324 772 326 761 326 c 0
 740 326 720 324 720 309 c 0
 720 257 716 228 716 176 c 0
 716 163 715 151 715 139 c 0
 715 109 722 71 740 66 c 0
 763 60 769 59 785 59 c 0
 1263 59 1080 146 1110 146 c 0
 1116 146 1123 141 1123 127 c 0
 1123 59 1036 -21 992 -21 c 0
 851 -21 757 -7 690 -7 c 0
 586 -7 555 -37 455 -37 c 0
 182 -37 44 147 44 337 c 0
176 390 m 0
 176 263 267 29 493 29 c 0
 574 29 581 54 586 67 c 0
 595 92 599 137 599 231 c 2
 599 355 l 2
 599 410 604 465 604 527 c 0
 604 651 600 643 566 657 c 0
 527 673 485 681 442 681 c 0
 308 681 176 593 176 390 c 0
EndSplineSet
EndChar
StartChar: oe
Encoding: 339 339 139
Width: 985
Flags: MW
LayerCount: 2
Back
Fore
SplineSet
39 199 m 0
 39 318 131 438 313 438 c 0
 386 438 468 414 523 357 c 0
 535 345 538 333 540 333 c 0
 542 333 553 370 610 406 c 0
 644 428 686 440 731 440 c 0
 905 440 945 283 945 267 c 0
 945 252 930 248 898 248 c 2
 636 248 l 1
 602 248 l 2
 589 248 589 247 589 238 c 0
 589 119 688 57 784 57 c 0
 866 57 916 97 936 97 c 0
 942 97 946 91 946 86 c 0
 946 72 876 -35 740 -35 c 0
 668 -35 598 -6 550 56 c 0
 537 73 534 87 531 87 c 0
 530 87 517 47 450 7 c 0
 406 -20 355 -33 305 -33 c 0
 127 -33 39 83 39 199 c 0
158 232 m 0
 158 89 253 12 338 12 c 0
 410 12 473 67 473 176 c 0
 473 287 409 396 291 396 c 0
 233 396 158 353 158 232 c 0
598 298 m 0
 598 290 600 285 611 285 c 0
 656 285 767 294 784 294 c 0
 803 294 805 296 805 304 c 0
 805 327 777 400 699 400 c 0
 628 400 598 330 598 298 c 0
EndSplineSet
EndChar
StartChar: Racute
Encoding: 340 340 476
Width: 802
Flags: MW
LayerCount: 2
Back
Fore
SplineSet
20 706 m 0
 20 719 30 722 54 722 c 2
 247 722 l 2
 297 722 322 726 363 726 c 0
 496 726 629 665 629 558 c 0
 629 386 483 371 483 355 c 0
 483 339 630.956054688 130.043945312 676 85 c 0
 681 80 722 38 781 38 c 0
 788 38 797 32 797 20 c 0
 797 -6 795 -18 717 -18 c 0
 714 -18 612.912109375 -10.1630859375 574 11 c 0
 517 42 452.94921875 161.965820312 398 245 c 0
 353 313 348 323 335 323 c 2
 312 323 l 1
 261 323 l 2
 245 323 243 323 243 252 c 0
 243 111 244 125 244 111 c 0
 244 0 367 32 367 -1 c 0
 367 -11 362 -16 346 -16 c 0
 341 -16 194 -6 183 -6 c 0
 128 -6 70 -12 57 -12 c 0
 46 -12 33 -9 33 4 c 0
 33 40 116 0 116 108 c 0
 116 174 118 317 118 431 c 0
 118 539 116 576 116 604 c 0
 116 724 20 674 20 706 c 0
243 535 m 2
 243 413 243 394 251 389 c 0
 264 382 275 381 294 381 c 2
 304 381 l 1
 333 381 l 2
 455 381 491 445 491 511 c 0
 491 575 440 664 296 664 c 0
 245 664 243 645 243 561 c 2
 243 535 l 2
259 715 m 0
 259 736 294 755 372 943 c 0
 382 967 397 972 403 972 c 0
 409 972 481 965 481 933 c 0
 481 901 398 810 336 745 c 0
 314 721 289 698 277 698 c 0
 268 698 259 706 259 715 c 0
EndSplineSet
EndChar
StartChar: racute
Encoding: 341 341 489
Width: 412
Flags: MW
LayerCount: 2
Back
Fore
SplineSet
22 398 m 0
 22 423 84 420 186 460 c 0
 192 462 203 464 204 464 c 0
 215 464 220 450 220 435 c 0
 220 423 218 411 218 396 c 0
 218 354 220 346 226 346 c 0
 234 346 267 455 331 455 c 0
 352 455 357 447 377 429 c 0
 395 413 398 396 398 389 c 0
 398 333 367 312 364 312 c 0
 341 312 336 334 288 334 c 0
 249 334 214 297 214 278 c 2
 214 183 l 2
 214 80 217 91 217 76 c 0
 217 49 241.299804688 44.4482421875 264 39 c 0
 289 33 314 36 314 13 c 0
 314 2 313 -11 300 -11 c 0
 263 -11 228 -4 201 -4 c 0
 138 -4 100 -11 80 -11 c 0
 54 -11 54 -4 54 7 c 0
 54 19 56 28 67 33 c 0
 103 42 104 64 104 145 c 0
 104 342 101 322 101 342 c 0
 101 361 96 380 52 380 c 0
 49 380 45 382 41 382 c 0
 32 382 22 384 22 398 c 0
179 451 m 0
 179 472 214 491 292 679 c 0
 302 703 317 708 323 708 c 0
 329 708 401 701 401 669 c 0
 401 637 318 546 256 481 c 0
 234 457 209 434 197 434 c 0
 188 434 179 442 179 451 c 0
EndSplineSet
EndChar
StartChar: Rcommaaccent
Encoding: 342 342 542
Width: 802
Flags: MW
LayerCount: 2
Back
Fore
SplineSet
20 706 m 0
 20 719 30 722 54 722 c 2
 247 722 l 2
 297 722 322 726 363 726 c 0
 496 726 629 665 629 558 c 0
 629 386 483 371 483 355 c 0
 483 339 630.956054688 130.043945312 676 85 c 0
 681 80 722 38 781 38 c 0
 788 38 797 32 797 20 c 0
 797 -6 795 -18 717 -18 c 0
 714 -18 612.912109375 -10.1630859375 574 11 c 0
 517 42 452.94921875 161.965820312 398 245 c 0
 353 313 348 323 335 323 c 2
 312 323 l 1
 261 323 l 2
 245 323 243 323 243 252 c 0
 243 111 244 125 244 111 c 0
 244 0 367 32 367 -1 c 0
 367 -11 362 -16 346 -16 c 0
 341 -16 194 -6 183 -6 c 0
 128 -6 70 -12 57 -12 c 0
 46 -12 33 -9 33 4 c 0
 33 40 116 0 116 108 c 0
 116 174 118 317 118 431 c 0
 118 539 116 576 116 604 c 0
 116 724 20 674 20 706 c 0
243 535 m 2
 243 413 243 394 251 389 c 0
 264 382 275 381 294 381 c 2
 304 381 l 1
 333 381 l 2
 455 381 491 445 491 511 c 0
 491 575 440 664 296 664 c 0
 245 664 243 645 243 561 c 2
 243 535 l 2
305 -58 m 0
 305 -52 316 -43 330 -31 c 0
 341 -22 351 -5 367 -5 c 0
 374 -5 432 -29 432 -97 c 0
 432 -198 345 -241 326 -241 c 0
 318 -241 315 -233 315 -230 c 0
 315 -215 357 -210 357 -148 c 0
 357 -82 305 -88 305 -58 c 0
EndSplineSet
EndChar
StartChar: rcommaaccent
Encoding: 343 343 560
Width: 412
Flags: MW
LayerCount: 2
Back
Fore
SplineSet
22 398 m 0
 22 423 84 420 186 460 c 0
 192 462 203 464 204 464 c 0
 215 464 220 450 220 435 c 0
 220 423 218 411 218 396 c 0
 218 354 220 346 226 346 c 0
 234 346 267 455 331 455 c 0
 352 455 357 447 377 429 c 0
 395 413 398 396 398 389 c 0
 398 333 367 312 364 312 c 0
 341 312 336 334 288 334 c 0
 249 334 214 297 214 278 c 2
 214 183 l 2
 214 80 217 91 217 76 c 0
 217 49 241.299804688 44.4482421875 264 39 c 0
 289 33 314 36 314 13 c 0
 314 2 313 -11 300 -11 c 0
 263 -11 228 -4 201 -4 c 0
 138 -4 100 -11 80 -11 c 0
 54 -11 54 -4 54 7 c 0
 54 19 56 28 67 33 c 0
 103 42 104 64 104 145 c 0
 104 342 101 322 101 342 c 0
 101 361 96 380 52 380 c 0
 49 380 45 382 41 382 c 0
 32 382 22 384 22 398 c 0
115 -58 m 0
 115 -52 126 -43 140 -31 c 0
 151 -22 161 -5 177 -5 c 0
 184 -5 242 -29 242 -97 c 0
 242 -198 155 -241 136 -241 c 0
 128 -241 125 -233 125 -230 c 0
 125 -215 167 -210 167 -148 c 0
 167 -82 115 -88 115 -58 c 0
EndSplineSet
EndChar
StartChar: Rcaron
Encoding: 344 344 486
Width: 802
Flags: MW
LayerCount: 2
Back
Fore
SplineSet
20 706 m 0
 20 719 30 722 54 722 c 2
 247 722 l 2
 297 722 322 726 363 726 c 0
 496 726 629 665 629 558 c 0
 629 386 483 371 483 355 c 0
 483 339 630.956054688 130.043945312 676 85 c 0
 681 80 722 38 781 38 c 0
 788 38 797 32 797 20 c 0
 797 -6 795 -18 717 -18 c 0
 714 -18 612.912109375 -10.1630859375 574 11 c 0
 517 42 452.94921875 161.965820312 398 245 c 0
 353 313 348 323 335 323 c 2
 312 323 l 1
 261 323 l 2
 245 323 243 323 243 252 c 0
 243 111 244 125 244 111 c 0
 244 0 367 32 367 -1 c 0
 367 -11 362 -16 346 -16 c 0
 341 -16 194 -6 183 -6 c 0
 128 -6 70 -12 57 -12 c 0
 46 -12 33 -9 33 4 c 0
 33 40 116 0 116 108 c 0
 116 174 118 317 118 431 c 0
 118 539 116 576 116 604 c 0
 116 724 20 674 20 706 c 0
185 920 m 0
 185 930 198 930 202 930 c 0
 222 930 344 845 354 845 c 0
 374 845 488 929 509 929 c 0
 513 929 524 928 524 922 c 0
 524 920 521 915 518 910 c 0
 388 753 403 737 377 737 c 2
 340 737 l 2
 331 737 321 737 312 751 c 0
 255 835 185 908 185 920 c 0
243 535 m 2
 243 413 243 394 251 389 c 0
 264 382 275 381 294 381 c 2
 304 381 l 1
 333 381 l 2
 455 381 491 445 491 511 c 0
 491 575 440 664 296 664 c 0
 245 664 243 645 243 561 c 2
 243 535 l 2
EndSplineSet
EndChar
StartChar: rcaron
Encoding: 345 345 500
Width: 412
Flags: MW
LayerCount: 2
Back
Fore
SplineSet
22 398 m 0
 22 423 84 420 186 460 c 0
 192 462 203 464 204 464 c 0
 215 464 220 450 220 435 c 0
 220 423 218 411 218 396 c 0
 218 354 220 346 226 346 c 0
 234 346 267 455 331 455 c 0
 352 455 357 447 377 429 c 0
 395 413 398 396 398 389 c 0
 398 333 367 312 364 312 c 0
 341 312 336 334 288 334 c 0
 249 334 214 297 214 278 c 2
 214 183 l 2
 214 80 217 91 217 76 c 0
 217 49 241.299804688 44.4482421875 264 39 c 0
 289 33 314 36 314 13 c 0
 314 2 313 -11 300 -11 c 0
 263 -11 228 -4 201 -4 c 0
 138 -4 100 -11 80 -11 c 0
 54 -11 54 -4 54 7 c 0
 54 19 56 28 67 33 c 0
 103 42 104 64 104 145 c 0
 104 342 101 322 101 342 c 0
 101 361 96 380 52 380 c 0
 49 380 45 382 41 382 c 0
 32 382 22 384 22 398 c 0
73 656 m 0
 73 666 86 666 90 666 c 0
 110 666 232 581 242 581 c 0
 262 581 376 665 397 665 c 0
 401 665 412 664 412 658 c 0
 412 656 409 651 406 646 c 0
 276 489 291 473 265 473 c 2
 228 473 l 2
 219 473 209 473 200 487 c 0
 143 571 73 644 73 656 c 0
EndSplineSet
EndChar
StartChar: Scedilla
Encoding: 350 350 462
Width: 670
Flags: MW
LayerCount: 2
Back
Fore
SplineSet
59 190 m 0
 59 206 70 213 80 213 c 0
 89 213 101 209 104 203 c 0
 131 144 184 42 338 42 c 0
 446 42 516 100 516 185 c 0
 516 320 328 265 187 343 c 0
 125 377 89 468 89 536 c 0
 89 655 197 732 349 732 c 0
 421 732 494 682 510 682 c 0
 517 682 528 694 536 694 c 0
 543 694 551 691 552 686 c 0
 561 639 576 562 576 548 c 0
 576 527 564 519 555 519 c 0
 543 519 538 524 534 533 c 0
 509 592 497 599 467 624 c 0
 429 656 381 670 334 670 c 0
 254 670 185 629 185 559 c 0
 185 399 436 489 569 357 c 0
 595 331 612 249 612 203 c 0
 612 59 490 -25 343 -25 c 0
 245 -25 188 -20 116 16 c 0
 92 29 59 180 59 190 c 0
257 -58 m 0
 257 -52 268 -43 282 -31 c 0
 293 -22 303 -5 319 -5 c 0
 326 -5 384 -29 384 -97 c 0
 384 -198 297 -241 278 -241 c 0
 270 -241 267 -233 267 -230 c 0
 267 -215 309 -210 309 -148 c 0
 309 -82 257 -88 257 -58 c 0
EndSplineSet
EndChar
StartChar: scedilla
Encoding: 351 351 471
Width: 448
Flags: MW
LayerCount: 2
Back
Fore
SplineSet
55 37 m 2
 55 131 l 2
 55 147 67 159 78 159 c 0
 110 159 103 140 117 118 c 0
 127 94 159 30 221 30 c 0
 252 30 308 44 308 101 c 0
 308 222 67 124 67 323 c 0
 67 400 151 447 240 447 c 0
 359 447 371 414 371 406 c 0
 371 403 376 351 376 339 c 0
 376 315 372 307 357 307 c 0
 339 307 324 395 231 395 c 0
 192 395 162 374 162 344 c 0
 162 285 226 286 278 268 c 0
 381 232 410 231 410 109 c 0
 410 71 381 31 347 5 c 0
 330 -7 301 -26 230 -26 c 0
 168 -26 116 -2 98 3 c 0
 70 12 55 10 55 37 c 2
154 -58 m 0
 154 -52 165 -43 179 -31 c 0
 190 -22 200 -5 216 -5 c 0
 223 -5 281 -29 281 -97 c 0
 281 -198 194 -241 175 -241 c 0
 167 -241 164 -233 164 -230 c 0
 164 -215 206 -210 206 -148 c 0
 206 -82 154 -88 154 -58 c 0
EndSplineSet
EndChar
StartChar: Scaron
Encoding: 352 352 217
Width: 670
Flags: MW
LayerCount: 2
Back
Fore
SplineSet
59 190 m 0
 59 206 70 213 80 213 c 0
 89 213 101 209 104 203 c 0
 131 144 184 42 338 42 c 0
 446 42 516 100 516 185 c 0
 516 320 328 265 187 343 c 0
 125 377 89 468 89 536 c 0
 89 655 197 732 349 732 c 0
 421 732 494 682 510 682 c 0
 517 682 528 694 536 694 c 0
 543 694 551 691 552 686 c 0
 561 639 576 562 576 548 c 0
 576 527 564 519 555 519 c 0
 543 519 538 524 534 533 c 0
 509 592 497 599 467 624 c 0
 429 656 381 670 334 670 c 0
 254 670 185 629 185 559 c 0
 185 399 436 489 569 357 c 0
 595 331 612 249 612 203 c 0
 612 59 490 -25 343 -25 c 0
 245 -25 188 -20 116 16 c 0
 92 29 59 180 59 190 c 0
193 920 m 0
 193 930 206 930 210 930 c 0
 230 930 352 845 362 845 c 0
 382 845 496 929 517 929 c 0
 521 929 532 928 532 922 c 0
 532 920 529 915 526 910 c 0
 396 753 411 737 385 737 c 2
 348 737 l 2
 339 737 329 737 320 751 c 0
 263 835 193 908 193 920 c 0
EndSplineSet
EndChar
StartChar: Tbar
Encoding: 358 358 525
Width: 783
Flags: MW
LayerCount: 2
Back
Fore
SplineSet
20 576 m 0
 20 609 27 664 31 692 c 0
 34 717 32 732 66 732 c 0
 144 732 134 720 382 720 c 0
 548 720 668 724 727 728 c 0
 729 728 733 729 735 729 c 0
 754 729 756 712 756 709 c 0
 756 695 763 625 763 616 c 0
 763 576 759 572 739 572 c 0
 736 572 727 573 722 583 c 0
 709 625 705 642 621 642 c 2
 491 642 l 2
 459 642 456 639 456 585 c 2
 456 541 l 2
 456 500 455 466 455 436 c 2
 455 423 l 2
 455 414 457 408 475 408 c 2
 611 408 l 2
 635 408 635 398 635 374 c 0
 635 354 634 341 608 341 c 0
 570 341 519 340 473 340 c 0
 458 340 455 339 455 322 c 0
 455 264 450 103 450 103 c 2
 450 76 453 58 465 46 c 0
 504 9 550 28 550 2 c 0
 550 -14 541 -15 522 -15 c 0
 492 -15 433 -3 395 -3 c 0
 365 -3 315 -14 278 -14 c 0
 254 -14 236 -7 236 11 c 0
 236 43 263 37 288 46 c 0
 306 50 323 58 326 83 c 0
 331 124 334 236 335 323 c 0
 335 339 330 341 319 341 c 2
 310 341 l 2
 308 341 176 342 168 342 c 0
 162 342 153 350 153 376 c 0
 153 405 160 406 167 406 c 0
 235 406 254 408 313 408 c 0
 334 408 336 411 336 427 c 2
 336 459 l 2
 336 555 335 621 335 621 c 2
 335 644 332 646 259 646 c 0
 111 646 109 636 98 623 c 0
 58 590 74 557 36 557 c 0
 27 557 20 560 20 576 c 0
EndSplineSet
EndChar
StartChar: tbar
Encoding: 359 359 530
Width: 379
Flags: MW
LayerCount: 2
Back
Fore
SplineSet
27 226 m 0
 27 255 33 258 39 258 c 2
 71 258 l 2
 92 258 83 266 83 274 c 2
 84 296 l 2
 86 323 86 343 86 345 c 0
 86 355 82 358 64 358 c 0
 57 358 50 356 45 356 c 0
 33 356 27 358 27 372 c 0
 27 391 50 393 94 435 c 0
 145 484 165 531 190 531 c 0
 200 531 204 525 204 508 c 0
 204 490 200 470 200 451 c 0
 200 432 200 431 241 431 c 2
 276 431 l 2
 341 431 342 445 353 445 c 0
 360 445 363 438 363 430 c 0
 363 416 339 353 331 353 c 0
 259 354 228 363 227 363 c 0
 201 363 197 359 197 336 c 0
 197 325 196 301 194 273 c 0
 194 262 195 260 210 260 c 2
 327 260 l 2
 347 260 348 249 348 224 c 0
 348 204 347 190 325 190 c 0
 283 190 278 189 204 189 c 0
 194 189 191 186 191 178 c 2
 191 150 l 2
 191 82 202 53 277 53 c 0
 313 53 340 69 351 69 c 0
 358 69 361 66 361 53 c 0
 361 33 303 -23 235 -23 c 0
 89 -23 80 56 80 95 c 2
 80 110 l 2
 80 131 82 154 82 177 c 0
 82 189 78 192 67 192 c 2
 40 192 l 2
 35 192 27 200 27 226 c 0
EndSplineSet
EndChar
StartChar: Utilde
Encoding: 360 360 364
Width: 881
Flags: MW
LayerCount: 2
Back
Fore
SplineSet
20 702 m 0
 20 712 20 721 47 721 c 0
 80 721 113 715 179 715 c 0
 234 715 201 718 289 718 c 0
 300 718 314 717 314 704 c 0
 314 670 244 717 244 590 c 2
 244 562 l 2
 244 475 243 406 243 347 c 0
 243 210 243 40 475 40 c 0
 587 40 734 41 734 326 c 0
 734 490 732 490 732 531 c 0
 732 583 732 637 697 660 c 0
 673 686 635 670 635 694 c 0
 635 706 639 718 657 718 c 0
 670 718 731 715 743 715 c 0
 790 715 817 720 838 720 c 0
 861 720 861 711 861 706 c 0
 861 689 824 684 813 662 c 0
 804 644 802 632 802 594 c 0
 802 576 803 555 803 524 c 0
 803 130 760 45 624 -9 c 0
 584 -24 504 -32 466 -32 c 0
 331 -32 257 -12 204 33 c 0
 116 107 114 199 114 406 c 2
 114 423 l 2
 114 493 117 538 117 569 c 0
 117 639 111 663 42 673 c 0
 21 677 20 694 20 702 c 0
253 783 m 0
 253 807 331 939 399 939 c 0
 473 939 512 867 586 867 c 0
 636 867 665 947 679 947 c 0
 685 947 694 944 694 929 c 0
 694 902 618 779 550 779 c 0
 475 779 427 852 361 852 c 0
 309 852 282 771 268 771 c 0
 262 771 253 773 253 783 c 0
EndSplineSet
EndChar
StartChar: utilde
Encoding: 361 361 376
Width: 652
Flags: MW
LayerCount: 2
Back
Fore
SplineSet
29 391 m 0
 29 411 41 425 115 425 c 0
 132 425 180 432 188 432 c 0
 217 432 218 430 218 383 c 0
 218 330 210 312 210 207 c 0
 210 76 277 47 321 47 c 0
 404 47 443 74 443 161 c 2
 440 291 l 2
 440 349 437 369 395 373 c 0
 384 375 373 381 373 393 c 0
 373 414 398 428 483 428 c 0
 502 428 517 432 528 432 c 0
 554 432 558 427 558 404 c 0
 558 398 553 287 553 153 c 0
 553 74 559 49 581 49 c 0
 590 49 599 50 607 50 c 0
 621 50 631 46 631 31 c 0
 631 7 621 6 588 6 c 0
 553 6 482 -11 470 -11 c 0
 455 -11 456 52 449 52 c 0
 440 52 387 -32 282 -32 c 0
 166 -32 94 21 94 144 c 0
 94 308 96 290 96 326 c 0
 96 356 75 370 65 370 c 2
 47 370 l 2
 36 370 29 374 29 391 c 0
100 519 m 0
 100 543 178 675 246 675 c 0
 320 675 359 603 433 603 c 4
 483 603 512 683 526 683 c 0
 532 683 541 680 541 665 c 0
 541 638 465 515 397 515 c 0
 322 515 274 588 208 588 c 0
 156 588 129 507 115 507 c 0
 109 507 100 509 100 519 c 0
EndSplineSet
EndChar
StartChar: umacron
Encoding: 363 363 345
Width: 652
Flags: MW
LayerCount: 2
Back
Fore
SplineSet
29 391 m 0
 29 411 41 425 115 425 c 0
 132 425 180 432 188 432 c 0
 217 432 218 430 218 383 c 0
 218 330 210 312 210 207 c 0
 210 76 277 47 321 47 c 0
 404 47 443 74 443 161 c 2
 440 291 l 2
 440 349 437 369 395 373 c 0
 384 375 373 381 373 393 c 0
 373 414 398 428 483 428 c 0
 502 428 517 432 528 432 c 0
 554 432 558 427 558 404 c 0
 558 398 553 287 553 153 c 0
 553 74 559 49 581 49 c 0
 590 49 599 50 607 50 c 0
 621 50 631 46 631 31 c 0
 631 7 621 6 588 6 c 0
 553 6 482 -11 470 -11 c 0
 455 -11 456 52 449 52 c 0
 440 52 387 -32 282 -32 c 0
 166 -32 94 21 94 144 c 0
 94 308 96 290 96 326 c 0
 96 356 75 370 65 370 c 2
 47 370 l 2
 36 370 29 374 29 391 c 0
174 590 m 0
 174 613 188 619 198 619 c 0
 408 619 339 616 469 616 c 0
 487 616 492 613 492 572 c 0
 492 554 474 550 471 550 c 0
 444 550 243 552 189 552 c 0
 183 552 174 555 174 590 c 0
EndSplineSet
EndChar
StartChar: ubreve
Encoding: 365 365 515
Width: 652
Flags: MW
LayerCount: 2
Back
Fore
SplineSet
29 391 m 0
 29 411 41 425 115 425 c 0
 132 425 180 432 188 432 c 0
 217 432 218 430 218 383 c 0
 218 330 210 312 210 207 c 0
 210 76 277 47 321 47 c 0
 404 47 443 74 443 161 c 2
 440 291 l 2
 440 349 437 369 395 373 c 0
 384 375 373 381 373 393 c 0
 373 414 398 428 483 428 c 0
 502 428 517 432 528 432 c 0
 554 432 558 427 558 404 c 0
 558 398 553 287 553 153 c 0
 553 74 559 49 581 49 c 0
 590 49 599 50 607 50 c 0
 621 50 631 46 631 31 c 0
 631 7 621 6 588 6 c 0
 553 6 482 -11 470 -11 c 0
 455 -11 456 52 449 52 c 0
 440 52 387 -32 282 -32 c 0
 166 -32 94 21 94 144 c 0
 94 308 96 290 96 326 c 0
 96 356 75 370 65 370 c 2
 47 370 l 2
 36 370 29 374 29 391 c 0
149 642 m 0
 149 644 158 645 166 645 c 2
 173 645 l 2
 193 645 209 575 335 575 c 0
 457 575 462 645 482 645 c 2
 488 645 l 2
 496 645 505 644 505 642 c 0
 505 590 451 485 326 485 c 0
 201 485 149 583 149 642 c 0
EndSplineSet
EndChar
StartChar: uring
Encoding: 367 367 375
Width: 652
Flags: MW
LayerCount: 2
Back
Fore
SplineSet
29 391 m 0
 29 411 41 425 115 425 c 0
 132 425 180 432 188 432 c 0
 217 432 218 430 218 383 c 0
 218 330 210 312 210 207 c 0
 210 76 277 47 321 47 c 0
 404 47 443 74 443 161 c 2
 440 291 l 2
 440 349 437 369 395 373 c 0
 384 375 373 381 373 393 c 0
 373 414 398 428 483 428 c 0
 502 428 517 432 528 432 c 0
 554 432 558 427 558 404 c 0
 558 398 553 287 553 153 c 0
 553 74 559 49 581 49 c 0
 590 49 599 50 607 50 c 0
 621 50 631 46 631 31 c 0
 631 7 621 6 588 6 c 0
 553 6 482 -11 470 -11 c 0
 455 -11 456 52 449 52 c 0
 440 52 387 -32 282 -32 c 0
 166 -32 94 21 94 144 c 0
 94 308 96 290 96 326 c 0
 96 356 75 370 65 370 c 2
 47 370 l 2
 36 370 29 374 29 391 c 0
219 591 m 0
 219 627 258 678 316 678 c 0
 385 678 409 618 409 586 c 0
 409 523 333 499 315 499 c 0
 230 499 219 565 219 591 c 0
276 589 m 0
 276 571 292 559 315 559 c 0
 322 559 352 564 352 588 c 0
 352 599 347 618 315 618 c 0
 297 618 276 605 276 589 c 0
EndSplineSet
EndChar
StartChar: Uhungarumlaut
Encoding: 368 368 487
Width: 881
Flags: MW
LayerCount: 2
Back
Fore
SplineSet
20 702 m 0
 20 712 20 721 47 721 c 0
 80 721 113 715 179 715 c 0
 234 715 201 718 289 718 c 0
 300 718 314 717 314 704 c 0
 314 670 244 717 244 590 c 2
 244 562 l 2
 244 475 243 406 243 347 c 0
 243 210 243 40 475 40 c 0
 587 40 734 41 734 326 c 0
 734 490 732 490 732 531 c 0
 732 583 732 637 697 660 c 0
 673 686 635 670 635 694 c 0
 635 706 639 718 657 718 c 0
 670 718 731 715 743 715 c 0
 790 715 817 720 838 720 c 0
 861 720 861 711 861 706 c 0
 861 689 824 684 813 662 c 0
 804 644 802 632 802 594 c 0
 802 576 803 555 803 524 c 0
 803 130 760 45 624 -9 c 0
 584 -24 504 -32 466 -32 c 0
 331 -32 257 -12 204 33 c 0
 116 107 114 199 114 406 c 2
 114 423 l 2
 114 493 117 538 117 569 c 0
 117 639 111 663 42 673 c 0
 21 677 20 694 20 702 c 0
329 715 m 0
 329 736 341 755 393 943 c 0
 400 967 410 972 414 972 c 0
 418 972 478 965 478 933 c 0
 478 901 422 810 381 745 c 0
 366 721 350 698 342 698 c 0
 336 698 329 706 329 715 c 0
488 715 m 0
 488 736 499 755 551 943 c 4
 558 967 567 972 571 972 c 4
 575 972 636 965 636 933 c 0
 636 901 580 810 539 745 c 0
 524 721 508 698 500 698 c 0
 494 698 488 706 488 715 c 0
EndSplineSet
EndChar
StartChar: Uogonek
Encoding: 370 370 543
Width: 914
Flags: MW
LayerCount: 2
Back
Fore
SplineSet
20 702 m 0
 20 712 20 721 47 721 c 0
 80 721 113 715 179 715 c 0
 234 715 201 718 289 718 c 0
 300 718 314 717 314 704 c 0
 314 670 244 710 244 589 c 2
 244 561 l 2
 244 473 243 402 243 343 c 0
 243 205 243 33 491 33 c 0
 611 33 767 75 767 322 c 0
 767 488 766 488 766 529 c 0
 766 582 765 637 730 660 c 0
 706 686 668 670 668 694 c 0
 668 706 672 718 690 718 c 0
 703 718 764 715 776 715 c 0
 823 715 850 720 871 720 c 0
 894 720 894 711 894 706 c 0
 894 690 857 684 846 663 c 0
 837 646 834 634 834 597 c 0
 834 580 836 560 836 530 c 0
 836 148 793 65 660 13 c 0
 586 -15 540 -18 540 -84 c 0
 540 -122 564 -156 590 -156 c 0
 615 -156 622 -145 630 -145 c 0
 633 -145 637 -147 637 -155 c 0
 637 -175 598 -214 543 -214 c 0
 479 -214 442 -167 442 -124 c 0
 442 -63 498 -34 498 -30 c 0
 498 -21 286 -48 211 36 c 0
 131.205862814 125.369433649 114 202 114 408 c 2
 114 425 l 2
 114 494 117 538 117 569 c 0
 117 638 111 663 42 673 c 0
 21 677 20 694 20 702 c 0
EndSplineSet
EndChar
StartChar: uogonek
Encoding: 371 371 561
Width: 652
Flags: MW
LayerCount: 2
Back
Fore
SplineSet
29 391 m 0
 29 411 41 425 115 425 c 0
 132 425 180 432 188 432 c 0
 217 432 218 430 218 383 c 0
 218 330 210 312 210 207 c 0
 210 76 277 47 321 47 c 0
 404 47 443 74 443 161 c 2
 440 291 l 2
 440 349 437 369 395 373 c 0
 384 375 373 381 373 393 c 0
 373 414 398 428 483 428 c 0
 502 428 517 432 528 432 c 0
 554 432 558 427 558 404 c 0
 558 398 553 287 553 153 c 0
 553 74 559 49 581 49 c 0
 590 49 599 50 607 50 c 0
 621 50 631 46 631 31 c 0
 631 7 620 6 586 6 c 0
 493 6 483 -15 482 -16 c 0
 466 -30 453 -52 453 -88 c 0
 453 -124 487 -156 522 -156 c 0
 555 -156 565 -147 576 -147 c 0
 580 -147 585 -148 585 -156 c 0
 585 -175 547 -214 490 -214 c 0
 425 -214 389 -159 389 -112 c 0
 389 -31 448 -7 448 21 c 0
 448 40 440 46 439 46 c 0
 430 46 378 -32 276 -32 c 0
 163 -32 94 21 94 144 c 0
 94 308 96 290 96 326 c 0
 96 356 75 370 65 370 c 2
 47 370 l 2
 36 370 29 374 29 391 c 0
EndSplineSet
EndChar
StartChar: Wcircumflex
Encoding: 372 372 548
Width: 1400
Flags: MW
LayerCount: 2
Back
Fore
SplineSet
20 702 m 0
 20 715 42 716 58 716 c 0
 89 716 120 712 213 712 c 0
 281 712 316 716 334 716 c 0
 351 716 354 713 354 704 c 0
 354 688 311 690 311 656 c 0
 311 624 355.291992188 560.610351562 494 309 c 0
 537 231 571 155 584 155 c 0
 592 155 641.399414062 233.798828125 676 303 c 0
 689 329 696 331 696 350 c 0
 696 363 572.10546875 593.741210938 542 628 c 0
 513 661 496.915039062 669.903320312 477 672 c 0
 420 678 420 683 420 697 c 0
 420 717 446 718 462 718 c 0
 494 718 525 712 620 712 c 0
 633 712 678 718 714 718 c 0
 738 718 758 715 758 709 c 0
 758 693 720 696 720 661 c 0
 720 638 734.924804688 611.9609375 759 566 c 0
 770 545 779 513 790 513 c 0
 804 513 879 636 879 657 c 0
 879 702 828 686 828 708 c 0
 828 718 836 720 851 720 c 0
 866 720 898 716 918 716 c 2
 936 716 l 2
 950 716 964 718 991 721 c 2
 1000 721 l 2
 1007 721 1014 719 1014 711 c 0
 1014 692 985 698 969 681 c 0
 960 672 945.6328125 655.22265625 933 634 c 0
 833 466 826 457 826 436 c 0
 826 431 952 162 969 162 c 0
 985 162 1240 621 1240 655 c 0
 1240 703 1174 683 1174 708 c 0
 1174 717 1175 718 1199 718 c 0
 1215 718 1235 716 1281 716 c 0
 1308 716 1316 720 1355 720 c 0
 1368.98144531 720 1381 717 1381 705 c 0
 1381 689 1356 690 1329 669 c 0
 1307 652 1301 635 1279 596 c 0
 930 -34 936 -35 918 -35 c 0
 904 -35 878.2578125 20.583984375 860 54 c 0
 807 151 745 281 732 281 c 0
 713 281 567.495117188 12.796875 564 5 c 0
 551 -24 544 -38 531 -38 c 0
 504 -38 471 67 355 269 c 0
 262 431 220.139648438 512.673828125 199 562 c 0
 130 723 20 655 20 702 c 0
577 745 m 0
 577 747 580 752 583 757 c 0
 713 914 698 930 724 930 c 2
 762 930 l 2
 771 930 778 930 787 916 c 0
 844 832 916 759 916 747 c 0
 916 737 904 737 900 737 c 0
 880 737 755 822 745 822 c 0
 725 822 613 738 592 738 c 0
 588 738 577 739 577 745 c 0
EndSplineSet
EndChar
StartChar: wcircumflex
Encoding: 373 373 562
Width: 903
Flags: MW
LayerCount: 2
Back
Fore
SplineSet
20 423 m 0
 20 433 38 435 46 435 c 0
 56 435 89 429 144 429 c 0
 184 429 159 430 199 430 c 0
 250 430 264 430 264 420 c 0
 264 401 220 418 220 377 c 0
 220 348 244.794921875 285.41015625 281 213 c 0
 302 171 321 120 330 120 c 0
 335 120 358.353515625 161.799804688 378 197 c 0
 426 283 428 275 428 297 c 0
 428 304 416.859375 352.895507812 402 373 c 0
 368 419 345 405 345 422 c 0
 345 430 355 430 362 430 c 0
 398 430 436 428 502 428 c 0
 531 428 523 429 538 429 c 0
 562 429 563 412 563 407 c 0
 563 393 559 394 548 392 c 0
 535 391 518 387 518 367 c 0
 518 350 541.450195312 287.713867188 577 220 c 0
 598 180 615 132 624 132 c 0
 637 132 751 321 751 366 c 0
 751 416 696 393 696 420 c 0
 696 427 709 428 724 428 c 2
 845 428 l 2
 877 428 884 426 884 413 c 0
 884 394 856 404 830 373 c 0
 798 334 804 316 655 36 c 0
 628 -15 614 -44 599 -44 c 0
 562 -44 473 229 451 229 c 0
 438 229 318 -39 278 -39 c 0
 259 -39 259 -18 133 259 c 0
 101 330 108 353 43 401 c 0
 27 413 20 410 20 423 c 0
297 481 m 0
 297 483 300 488 303 493 c 0
 433 650 418 666 444 666 c 2
 482 666 l 2
 491 666 498 666 507 652 c 4
 564 568 636 495 636 483 c 0
 636 473 624 473 620 473 c 0
 600 473 475 558 465 558 c 0
 445 558 333 474 312 474 c 0
 308 474 297 475 297 481 c 0
EndSplineSet
EndChar
StartChar: ycircumflex
Encoding: 375 375 563
Width: 572
Flags: MW
LayerCount: 2
Back
Fore
SplineSet
20 419 m 0
 20 428 39 431 47 431 c 0
 121 431 125 428 184 428 c 0
 218 428 224 431 261 431 c 0
 275 431 286 422 286 414 c 0
 286 390 277 387 262 387 c 2
 247 387 l 2
 232 387 231 370 231 359 c 0
 231 344 257 309 306 215 c 0
 328.954101562 170.96484375 343 144 352 144 c 0
 360 144 434 326 434 362 c 0
 434 428 372 385 372 420 c 0
 372 424 373 432 391 432 c 0
 418 432 452 431 470 431 c 0
 487 431 524 432 532 432 c 0
 546 432 553 427 553 419 c 0
 553 401 522 408 510 391 c 0
 499 375 475 317 454 262 c 2
 362 19 l 2
 303 -137 287 -198 271 -198 c 0
 266 -198 270 -199 223 -199 c 0
 217 -199 203 -197 203 -186 c 0
 203 -175 299 -71 299 8 c 0
 299 53 144.067382812 286.686523438 97 358 c 0
 64 408 20 392 20 419 c 0
147 481 m 0
 147 483 150 488 153 493 c 0
 283 650 268 666 294 666 c 2
 332 666 l 2
 341 666 348 666 357 652 c 0
 414 568 486 495 486 483 c 0
 486 473 474 473 470 473 c 0
 450 473 325 558 315 558 c 0
 295 558 183 474 162 474 c 0
 158 474 147 475 147 481 c 0
EndSplineSet
EndChar
StartChar: Zacute
Encoding: 377 377 464
Width: 688
Flags: MW
LayerCount: 2
Back
Fore
SplineSet
20 13 m 0
 20 26 55.7275390625 55.185546875 109 133 c 0
 198 263 426 597 426 622 c 0
 426 632 405 633 376 633 c 0
 271 633 238.0390625 627.790039062 195 627 c 0
 86 625 78 542 58 542 c 0
 52 542 42 545 42 560 c 0
 42 599 52 615 52 633 c 0
 52 651 55 658 59 686 c 0
 61 705 69 710 94 710 c 0
 120 710 201 705 362 705 c 0
 509 705 476 706 586 706 c 0
 622 706 640 704 640 692 c 0
 640 668 240 106 240 86 c 0
 240 67 272 67 346 67 c 0
 490 67 550 70 608 96 c 0
 640 111 645 128 659 128 c 0
 660 128 668 127 668 115 c 0
 668 98 649 64 630 36 c 0
 616 15 614 0 578 0 c 0
 445 0 456 -1 351 -1 c 0
 -36 -1 147 -2 45 -2 c 0
 31 -2 20 -1 20 13 c 0
236 715 m 0
 236 736 271 755 349 943 c 0
 359 967 374 972 380 972 c 0
 386 972 458 965 458 933 c 0
 458 901 375 810 313 745 c 0
 291 721 266 698 254 698 c 0
 245 698 236 706 236 715 c 0
EndSplineSet
EndChar
StartChar: zacute
Encoding: 378 378 473
Width: 395
Flags: MW
LayerCount: 2
Back
Fore
SplineSet
40 -2 m 0
 40 16 45.1982421875 18.8642578125 74 61 c 0
 128 140 270 347 270 362 c 0
 270 364 260 367 247 367 c 0
 226 367 152 357 125 355 c 0
 84 353 64 285 50 285 c 0
 48 285 42 287 42 298 c 0
 42 349 53 397 56 422 c 0
 57 434 66 444 76 444 c 0
 87 444 121 440 188 440 c 0
 250 440 295 444 341 444 c 0
 347 444 354 440 354 434 c 0
 354 418 330.262695312 381.829101562 323 371 c 0
 211 204 136 101 136 73 c 0
 136 66 140 64 158 64 c 0
 177 64 196 66 207 66 c 0
 299 66 298.806640625 114.940429688 316 135 c 0
 322 142 328 147 342 147 c 0
 351 147 366 143 366 131 c 0
 366 130 352 86 341 59 c 0
 329 30 328 -14 308 -14 c 2
 188 -14 l 2
 172 -14 141 -16 111 -16 c 2
 93 -16 l 2
 62 -16 66 -17 60 -17 c 0
 49 -17 40 -13 40 -2 c 0
159 451 m 0
 159 472 194 491 272 679 c 0
 282 703 297 708 303 708 c 0
 309 708 381 701 381 669 c 0
 381 637 298 546 236 481 c 0
 214 457 189 434 177 434 c 0
 168 434 159 442 159 451 c 0
EndSplineSet
EndChar
StartChar: Zdotaccent
Encoding: 379 379 465
Width: 688
Flags: MW
LayerCount: 2
Back
Fore
SplineSet
20 13 m 0
 20 26 55.7275390625 55.185546875 109 133 c 0
 198 263 426 597 426 622 c 0
 426 632 405 633 376 633 c 0
 271 633 238.0390625 627.790039062 195 627 c 0
 86 625 78 542 58 542 c 0
 52 542 42 545 42 560 c 0
 42 599 52 615 52 633 c 0
 52 651 55 658 59 686 c 0
 61 705 69 710 94 710 c 0
 120 710 201 705 362 705 c 0
 509 705 476 706 586 706 c 0
 622 706 640 704 640 692 c 0
 640 668 240 106 240 86 c 0
 240 67 272 67 346 67 c 0
 490 67 550 70 608 96 c 0
 640 111 645 128 659 128 c 0
 660 128 668 127 668 115 c 0
 668 98 649 64 630 36 c 0
 616 15 614 0 578 0 c 0
 445 0 456 -1 351 -1 c 0
 -36 -1 147 -2 45 -2 c 0
 31 -2 20 -1 20 13 c 0
228 826 m 0
 228 846 270 909 303 909 c 0
 338 909 374 854 374 824 c 0
 374 788 316 741 302 741 c 0
 258 741 228 802 228 826 c 0
EndSplineSet
EndChar
StartChar: Zcaron
Encoding: 381 381 219
Width: 688
Flags: MW
LayerCount: 2
Back
Fore
SplineSet
20 13 m 0
 20 26 55.7275390625 55.185546875 109 133 c 0
 198 263 426 597 426 622 c 0
 426 632 405 633 376 633 c 0
 271 633 238.0390625 627.790039062 195 627 c 0
 86 625 78 542 58 542 c 0
 52 542 42 545 42 560 c 0
 42 599 52 615 52 633 c 0
 52 651 55 658 59 686 c 0
 61 705 69 710 94 710 c 0
 120 710 201 705 362 705 c 0
 509 705 476 706 586 706 c 0
 622 706 640 704 640 692 c 0
 640 668 240 106 240 86 c 0
 240 67 272 67 346 67 c 0
 490 67 550 70 608 96 c 0
 640 111 645 128 659 128 c 0
 660 128 668 127 668 115 c 0
 668 98 649 64 630 36 c 0
 616 15 614 0 578 0 c 0
 445 0 456 -1 351 -1 c 0
 -36 -1 147 -2 45 -2 c 0
 31 -2 20 -1 20 13 c 0
162 920 m 0
 162 930 175 930 179 930 c 0
 199 930 321 845 331 845 c 0
 351 845 465 929 486 929 c 0
 490 929 501 928 501 922 c 0
 501 920 498 915 495 910 c 0
 365 753 380 737 354 737 c 2
 317 737 l 2
 308 737 298 737 289 751 c 0
 232 835 162 908 162 920 c 0
EndSplineSet
EndChar
StartChar: zcaron
Encoding: 382 382 222
Width: 395
Flags: MW
LayerCount: 2
Back
Fore
SplineSet
40 -2 m 0
 40 16 45.1982421875 18.8642578125 74 61 c 0
 128 140 270 347 270 362 c 0
 270 364 260 367 247 367 c 0
 226 367 152 357 125 355 c 0
 84 353 64 285 50 285 c 0
 48 285 42 287 42 298 c 0
 42 349 53 397 56 422 c 0
 57 434 66 444 76 444 c 0
 87 444 121 440 188 440 c 0
 250 440 295 444 341 444 c 0
 347 444 354 440 354 434 c 0
 354 418 330.262695312 381.829101562 323 371 c 0
 211 204 136 101 136 73 c 0
 136 66 140 64 158 64 c 0
 177 64 196 66 207 66 c 0
 299 66 298.806640625 114.940429688 316 135 c 0
 322 142 328 147 342 147 c 0
 351 147 366 143 366 131 c 0
 366 130 352 86 341 59 c 0
 329 30 328 -14 308 -14 c 2
 188 -14 l 2
 172 -14 141 -16 111 -16 c 2
 93 -16 l 2
 62 -16 66 -17 60 -17 c 0
 49 -17 40 -13 40 -2 c 0
85 656 m 0
 85 666 98 666 102 666 c 0
 122 666 244 581 254 581 c 0
 274 581 388 665 409 665 c 0
 413 665 424 664 424 658 c 0
 424 656 421 651 418 646 c 0
 288 489 303 473 277 473 c 2
 240 473 l 2
 231 473 221 473 212 487 c 0
 155 571 85 644 85 656 c 0
EndSplineSet
EndChar
StartChar: florin
Encoding: 402 402 104
Width: 347
Flags: MW
LayerCount: 2
Back
Fore
SplineSet
-43 -162 m 0
 -43 -152 -34 -80 -14 -80 c 0
 -9 -80 -2 -83 -1 -93 c 0
 3 -116 24 -128 29 -128 c 0
 61 -128 63.099354234 -15.0144557857 76 74 c 0
 116 350 102 349 102 351 c 0
 102 359 99 364 92 364 c 0
 34 364 57 362 45 362 c 0
 23 362 20 372 20 390 c 0
 20 419 23.4490604674 429.150825291 48 428 c 2
 48 428 88 425 112 425 c 0
 115 425 119 426 120 433 c 0
 131 503 162.653530474 599.026920875 227 682 c 0
 265 731 306 763 363 763 c 0
 399 763 414 751 414 718 c 0
 414 708 411 646 397 646 c 0
 376 646 359 684 314 684 c 0
 262 684 228 448 228 435 c 0
 228 428 232 426 240 426 c 0
 261 426 282 428 308 428 c 0
 323 428 327 419 327 404 c 0
 327 389 324 361 307 361 c 0
 268 361 263 366 236 366 c 0
 222 366 219 352 219 349 c 0
 210 293 171.529575125 -17.7777258699 141 -83 c 0
 97 -177 22 -190 -2 -190 c 0
 -21 -190 -43 -181 -43 -162 c 0
EndSplineSet
EndChar
StartChar: Ghook
Encoding: 403 403 595
Width: 912
Flags: MW
LayerCount: 2
Back
Fore
SplineSet
44 328 m 0
 44 547 190 729 474 729 c 0
 657 729 742 651 766 631 c 1
 820 724 896 770 944 770 c 0
 978 770 1002 755 1002 732 c 0
 1002 724 999 709 996 693 c 0
 990 666 989 649 972 649 c 0
 960 649 963 677 898 677 c 0
 858 677 832 651 815 612 c 1
 821 559 835 514 835 504 c 0
 835 489 823 488 817 488 c 0
 808 488 796 492 791 499 c 0
 742 594 611 669 489 669 c 0
 320 669 185 567 185 382 c 0
 185 207 294 34 481 34 c 0
 585 34 681 86 690 142 c 0
 692 150 694 221 694 260 c 0
 694 287 687 304 677 313 c 0
 665 324 648 326 633 328 c 0
 613 331 596 331 596 361 c 0
 596 370 601 378 618 378 c 0
 648 378 720 370 750 370 c 0
 805 370 860 372 864 372 c 0
 869 372 883 371 883 363 c 0
 883 346 829 346 823 315 c 0
 817 283 816 243 816 198 c 0
 816 105 823 92 823 81 c 0
 823 68 792 72 752 52 c 0
 738 45 621 -28 496 -28 c 0
 155 -28 44 152 44 328 c 0
EndSplineSet
EndChar
StartChar: clickalveolar
Encoding: 450 450 590
Width: 604
Flags: MW
LayerCount: 2
Back
Fore
SplineSet
83 186 m 256
 83 206 89 216 102 216 c 2
 271 216 l 1
 271 352 l 1
 102 352 l 2
 89 352 83 362 83 382 c 256
 83 402 89 413 102 413 c 2
 271 413 l 1
 271 630 l 2
 271 642 282 648 303 648 c 256
 323 648 333 642 333 630 c 2
 333 413 l 1
 503 413 l 2
 515 413 521 402 521 382 c 256
 521 362 515 352 503 352 c 2
 333 352 l 1
 333 216 l 1
 503 216 l 2
 515 216 521 206 521 186 c 256
 521 166 515 155 503 155 c 2
 333 155 l 1
 333 -62 l 2
 333 -74 323 -80 303 -80 c 256
 283 -80 273 -74 271 -62 c 2
 271 155 l 1
 102 155 l 2
 89 155 83 166 83 186 c 256
EndSplineSet
Colour: ffff00
EndChar
StartChar: acaron
Encoding: 462 462 365
Width: 535
Flags: MW
LayerCount: 2
Back
Fore
SplineSet
48 74 m 0
 48 183 169 193 314 215 c 0
 327 217 334 218 334 231 c 0
 334 251 337 267 337 283 c 0
 337 370 268 392 240 392 c 0
 177 392 168 359 168 335 c 0
 168 321 174 310 174 301 c 0
 174 285 163 282 147 282 c 0
 129 282 54 287 54 324 c 0
 54 379 155 442 261 442 c 0
 446 442 446 351 446 312 c 0
 446 177 438.41796875 196.998046875 439 119 c 0
 440 -15 515 43 515 6 c 0
 515 -10 490 -15 440 -15 c 0
 371 -15 351 56 345 56 c 0
 340 56 274 -26 188 -26 c 0
 137 -26 105 -20 78 4 c 0
 57 22 48 47 48 74 c 0
109 657 m 0
 109 667 122 667 126 667 c 0
 146 667 268 582 278 582 c 0
 298 582 412 666 433 666 c 0
 437 666 448 665 448 659 c 0
 448 657 445 652 442 647 c 0
 312 490 327 474 301 474 c 2
 264 474 l 2
 255 474 245 474 236 488 c 0
 179 572 109 645 109 657 c 0
165 106 m 0
 165 63 192 35 242 35 c 0
 334 35 334 101 334 132 c 2
 334 186 l 2
 334 192 331 195 327 195 c 0
 324 195 320 193 317 193 c 0
 253 183 165 185 165 106 c 0
EndSplineSet
EndChar
StartChar: Icaron
Encoding: 463 463 357
Width: 366
Flags: MW
LayerCount: 2
Back
Fore
SplineSet
20 688 m 0
 20 698 24 710 52 710 c 0
 84 710 118 704 182 704 c 0
 231 704 211 707 283 707 c 0
 291 707 314 705 314 686 c 0
 314 673 297 664 269 646 c 0
 242 636 238 574 238 537 c 0
 238 315 233 275 233 188 c 0
 233 130 239 100 258 74 c 0
 279 47 296 45 306 45 c 0
 309 45 323 44 326 44 c 0
 336 44 347 35 347 27 c 0
 347 3 338 0 319 0 c 0
 258 0 248 6 210 6 c 0
 151 6 126 -2 85 -2 c 0
 38 -2 34 5 34 13 c 0
 34 39 85 -2 108 76 c 0
 110.33203125 83.9091796875 119 270 119 337 c 2
 119 393 l 2
 119 421 120 459 120 499 c 2
 120 544 l 2
 120 569 119 593 116 615 c 0
 111 650 69 664 41 665 c 0
 21 667 20 680 20 688 c 0
17 920 m 0
 17 930 30 930 34 930 c 0
 54 930 176 845 186 845 c 4
 206 845 320 929 341 929 c 0
 345 929 356 928 356 922 c 0
 356 920 353 915 350 910 c 0
 220 753 235 737 209 737 c 2
 172 737 l 2
 163 737 153 737 144 751 c 0
 87 835 17 908 17 920 c 0
EndSplineSet
EndChar
